<ttFont>
<head>
    <!-- Most of this table will be recalculated by the compiler -->
    <tableVersion value="1.0"/>
    <fontRevision value="0.062"/>
    <checkSumAdjustment value="0xdf4b06a0"/>
    <magicNumber value="0x5f0f3cf5"/>
    <flags value="00100000 00001111"/>
    <unitsPerEm value="1024"/>
    <created value="Mon Jan 17 09:09:08 2022"/>
    <modified value="Fri Feb 25 17:24:25 2022"/>
    <xMin value="-159"/>
    <yMin value="-202"/>
    <xMax value="698"/>
    <yMax value="969"/>
    <macStyle value="00000000 00000010"/>
    <lowestRecPPEM value="7"/>
    <fontDirectionHint value="2"/>
    <indexToLocFormat value="0"/>
    <glyphDataFormat value="0"/>
  </head>
    <TTGlyph name=".notdef" xMin="-17" yMin="-30" xMax="503" yMax="670">
      <contour>
        <pt x="123" y="670" on="1" overlap="1"/>
        <pt x="503" y="670" on="1"/>
        <pt x="363" y="-30" on="1"/>
        <pt x="-17" y="-30" on="1"/>
      </contour>
      <contour>
        <pt x="129" y="16" on="0"/>
        <pt x="159" y="-10" on="0"/>
        <pt x="182" y="-10" on="1"/>
        <pt x="210" y="-10" on="0"/>
        <pt x="249" y="26" on="0"/>
        <pt x="249" y="59" on="1"/>
        <pt x="249" y="82" on="0"/>
        <pt x="219" y="108" on="0"/>
        <pt x="197" y="108" on="1"/>
        <pt x="169" y="108" on="0"/>
        <pt x="129" y="71" on="0"/>
        <pt x="129" y="39" on="1"/>
      </contour>
      <contour>
        <pt x="293" y="584" on="0"/>
        <pt x="377" y="542" on="0"/>
        <pt x="377" y="511" on="1"/>
        <pt x="377" y="504" on="0"/>
        <pt x="375" y="494" on="1"/>
        <pt x="370" y="466" on="0"/>
        <pt x="338" y="426" on="0"/>
        <pt x="308" y="398" on="1"/>
        <pt x="277" y="369" on="0"/>
        <pt x="236" y="322" on="0"/>
        <pt x="197" y="246" on="0"/>
        <pt x="185" y="192" on="1"/>
        <pt x="245" y="192" on="1"/>
        <pt x="258" y="256" on="0"/>
        <pt x="312" y="331" on="0"/>
        <pt x="356" y="370" on="1"/>
        <pt x="392" y="403" on="0"/>
        <pt x="429" y="451" on="0"/>
        <pt x="436" y="488" on="1"/>
        <pt x="439" y="505" on="0"/>
        <pt x="439" y="520" on="1"/>
        <pt x="439" y="578" on="0"/>
        <pt x="320" y="641" on="0"/>
        <pt x="183" y="645" on="1"/>
        <pt x="173" y="590" on="1"/>
      </contour>
    </TTGlyph>
    <TTGlyph name="A" xMin="-8" yMin="0" xMax="382" yMax="643">
      <contour>
        <pt x="45" y="187" on="0" overlap="1"/>
        <pt x="192" y="520" on="0"/>
        <pt x="278" y="643" on="1"/>
        <pt x="332" y="643" on="1"/>
        <pt x="382" y="489" on="0"/>
        <pt x="382" y="262" on="1"/>
        <pt x="382" y="131" on="0"/>
        <pt x="366" y="0" on="1"/>
        <pt x="302" y="0" on="1"/>
        <pt x="313" y="104" on="0"/>
        <pt x="317" y="196" on="1"/>
        <pt x="122" y="196" on="1"/>
        <pt x="83" y="85" on="0"/>
        <pt x="58" y="0" on="1"/>
        <pt x="-8" y="0" on="1"/>
      </contour>
      <contour>
        <pt x="318" y="252" on="1"/>
        <pt x="318" y="287" on="1"/>
        <pt x="318" y="449" on="0"/>
        <pt x="293" y="562" on="1"/>
        <pt x="214" y="434" on="0"/>
        <pt x="143" y="252" on="1"/>
      </contour>
    </TTGlyph>
    <TTGlyph name="A.hex" xMin="-8" yMin="0" xMax="376" yMax="579">
      <contour>
        <pt x="42" y="170" on="0" overlap="1"/>
        <pt x="182" y="470" on="0"/>
        <pt x="265" y="579" on="1"/>
        <pt x="319" y="579" on="1"/>
        <pt x="376" y="428" on="0"/>
        <pt x="376" y="200" on="1"/>
        <pt x="376" y="107" on="0"/>
        <pt x="365" y="0" on="1"/>
        <pt x="302" y="0" on="1"/>
        <pt x="308" y="69" on="0"/>
        <pt x="311" y="132" on="1"/>
        <pt x="102" y="132" on="1"/>
        <pt x="83" y="78" on="0"/>
        <pt x="59" y="0" on="1"/>
        <pt x="-8" y="0" on="1"/>
      </contour>
      <contour>
        <pt x="312" y="188" on="1"/>
        <pt x="315" y="372" on="0"/>
        <pt x="281" y="500" on="1"/>
        <pt x="195" y="373" on="0"/>
        <pt x="123" y="188" on="1"/>
      </contour>
    </TTGlyph>
    <TTGlyph name="A.short" xMin="-8" yMin="0" xMax="376" yMax="579">
      <component glyphName="A.hex" x="0" y="0" flags="0x400"/>
    </TTGlyph>
    <TTGlyph name="A.sups" xMin="147" yMin="320" xMax="403" yMax="640">
      <contour>
        <pt x="403" y="640" on="1" overlap="1"/>
        <pt x="390" y="576" on="1"/>
        <pt x="378" y="512" on="1"/>
        <pt x="339" y="320" on="1"/>
        <pt x="275" y="320" on="1"/>
        <pt x="301" y="448" on="1"/>
        <pt x="237" y="448" on="1"/>
        <pt x="211" y="320" on="1"/>
        <pt x="147" y="320" on="1"/>
        <pt x="186" y="512" on="1"/>
        <pt x="198" y="576" on="1"/>
        <pt x="211" y="640" on="1"/>
      </contour>
      <contour>
        <pt x="314" y="512" on="1"/>
        <pt x="326" y="576" on="1"/>
        <pt x="262" y="576" on="1"/>
        <pt x="250" y="512" on="1"/>
      </contour>
    </TTGlyph>
    <TTGlyph name="AE" xMin="-61" yMin="0" xMax="529" yMax="640">
      <contour>
        <pt x="422" y="56" on="1" overlap="1"/>
        <pt x="411" y="0" on="1"/>
        <pt x="157" y="0" on="1"/>
        <pt x="196" y="196" on="1"/>
        <pt x="69" y="196" on="1"/>
        <pt x="36" y="107" on="0"/>
        <pt x="5" y="0" on="1"/>
        <pt x="-61" y="0" on="1"/>
        <pt x="-7" y="187" on="0"/>
        <pt x="139" y="519" on="0"/>
        <pt x="223" y="640" on="1"/>
        <pt x="529" y="640" on="1"/>
        <pt x="517" y="584" on="1"/>
        <pt x="336" y="584" on="1"/>
        <pt x="282" y="316" on="1"/>
        <pt x="410" y="316" on="1"/>
        <pt x="398" y="260" on="1"/>
        <pt x="271" y="260" on="1"/>
        <pt x="230" y="56" on="1"/>
      </contour>
      <contour>
        <pt x="207" y="252" on="1"/>
        <pt x="274" y="584" on="1"/>
        <pt x="254" y="584" on="1"/>
        <pt x="167" y="450" on="0"/>
        <pt x="90" y="252" on="1"/>
      </contour>
    </TTGlyph>
    <TTGlyph name="AEacute" xMin="-61" yMin="0" xMax="529" yMax="841">
      <component glyphName="AE" x="0" y="0" flags="0x400"/>
      <component glyphName="acutecomb.case" x="41" y="0" flags="0x400"/>
    </TTGlyph>
    <TTGlyph name="Aacute" xMin="-8" yMin="0" xMax="455" yMax="841">
      <component glyphName="A" x="0" y="0" flags="0x400"/>
      <component glyphName="acutecomb.case" x="0" y="0" flags="0x400"/>
    </TTGlyph>
    <TTGlyph name="Abreve" xMin="-8" yMin="0" xMax="472" yMax="834">
      <component glyphName="A" x="0" y="0" flags="0x400"/>
      <component glyphName="uni0306.case" x="0" y="0" flags="0x400"/>
    </TTGlyph>
    <TTGlyph name="Acircumflex" xMin="-8" yMin="0" xMax="452" yMax="841">
      <component glyphName="A" x="0" y="0" flags="0x400"/>
      <component glyphName="uni0302.case" x="0" y="0" flags="0x400"/>
    </TTGlyph>
    <TTGlyph name="Adieresis" xMin="-8" yMin="0" xMax="472" yMax="814">
      <component glyphName="A" x="0" y="0" flags="0x400"/>
      <component glyphName="uni0308.case" x="0" y="0" flags="0x400"/>
    </TTGlyph>
    <TTGlyph name="Agrave" xMin="-8" yMin="0" xMax="382" yMax="835">
      <component glyphName="A" x="0" y="0" flags="0x400"/>
      <component glyphName="gravecomb.case" x="0" y="0" flags="0x400"/>
    </TTGlyph>
    <TTGlyph name="Alpha" xMin="-8" yMin="0" xMax="382" yMax="643">
      <component glyphName="A" x="0" y="0" flags="0x400"/>
    </TTGlyph>
    <TTGlyph name="Alphatonos" xMin="-8" yMin="0" xMax="382" yMax="704">
      <component glyphName="A" x="0" y="0" flags="0x400"/>
      <component glyphName="tonos" x="-192" y="0" flags="0x400"/>
    </TTGlyph>
    <TTGlyph name="Amacron" xMin="-8" yMin="0" xMax="452" yMax="776">
      <component glyphName="A" x="0" y="0" flags="0x400"/>
      <component glyphName="uni0304.case" x="0" y="0" flags="0x400"/>
    </TTGlyph>
    <TTGlyph name="Aogonek" xMin="-8" yMin="-197" xMax="382" yMax="643">
      <component glyphName="A" x="0" y="0" flags="0x400"/>
      <component glyphName="uni0328" x="29" y="0" flags="0x400"/>
    </TTGlyph>
    <TTGlyph name="Aring" xMin="-8" yMin="0" xMax="427" yMax="821">
      <component glyphName="A.short" x="0" y="0" flags="0x400"/>
      <component glyphName="uni030A.case" x="0" y="0" flags="0x400"/>
    </TTGlyph>
    <TTGlyph name="Aringacute" xMin="-8" yMin="0" xMax="455" yMax="840">
      <component glyphName="A.short" x="0" y="0" flags="0x400"/>
      <component glyphName="uni030A.case" x="-20" y="-95" flags="0x404"/>
      <component glyphName="acutecomb.case" x="0" y="-1" flags="0x404"/>
    </TTGlyph>
    <TTGlyph name="Atilde" xMin="-8" yMin="0" xMax="495" yMax="837">
      <component glyphName="A" x="0" y="0" flags="0x400"/>
      <component glyphName="tildecomb.case" x="0" y="0" flags="0x400"/>
    </TTGlyph>
    <TTGlyph name="B" xMin="18" yMin="0" xMax="442" yMax="640">
      <contour>
        <pt x="146" y="640" on="1" overlap="1"/>
        <pt x="272" y="640" on="1"/>
        <pt x="353" y="640" on="0"/>
        <pt x="442" y="576" on="0"/>
        <pt x="442" y="514" on="1"/>
        <pt x="442" y="497" on="0"/>
        <pt x="437" y="472" on="1"/>
        <pt x="420" y="383" on="0"/>
        <pt x="316" y="310" on="1"/>
        <pt x="355" y="298" on="0"/>
        <pt x="400" y="240" on="0"/>
        <pt x="400" y="197" on="1"/>
        <pt x="400" y="178" on="0"/>
        <pt x="396" y="161" on="1"/>
        <pt x="381" y="84" on="0"/>
        <pt x="259" y="0" on="0"/>
        <pt x="169" y="0" on="1"/>
        <pt x="18" y="0" on="1"/>
      </contour>
      <contour>
        <pt x="169" y="56" on="1"/>
        <pt x="243" y="56" on="0"/>
        <pt x="321" y="114" on="0"/>
        <pt x="332" y="173" on="1"/>
        <pt x="335" y="188" on="0"/>
        <pt x="335" y="201" on="1"/>
        <pt x="335" y="238" on="0"/>
        <pt x="280" y="276" on="0"/>
        <pt x="217" y="276" on="1"/>
        <pt x="135" y="276" on="1"/>
        <pt x="91" y="56" on="1"/>
      </contour>
      <contour>
        <pt x="262" y="332" on="1"/>
        <pt x="313" y="363" on="0"/>
        <pt x="375" y="465" on="0"/>
        <pt x="375" y="512" on="1"/>
        <pt x="375" y="549" on="0"/>
        <pt x="321" y="584" on="0"/>
        <pt x="260" y="584" on="1"/>
        <pt x="196" y="584" on="1"/>
        <pt x="146" y="332" on="1"/>
      </contour>
    </TTGlyph>
    <TTGlyph name="B.hex" xMin="18" yMin="0" xMax="431" yMax="576">
      <contour>
        <pt x="133" y="576" on="1" overlap="1"/>
        <pt x="259" y="576" on="1"/>
        <pt x="341" y="576" on="0"/>
        <pt x="431" y="517" on="0"/>
        <pt x="431" y="459" on="1"/>
        <pt x="431" y="440" on="0"/>
        <pt x="427" y="424" on="1"/>
        <pt x="413" y="344" on="0"/>
        <pt x="312" y="277" on="1"/>
        <pt x="351" y="265" on="0"/>
        <pt x="396" y="213" on="0"/>
        <pt x="396" y="174" on="1"/>
        <pt x="396" y="160" on="0"/>
        <pt x="393" y="145" on="1"/>
        <pt x="379" y="75" on="0"/>
        <pt x="259" y="0" on="0"/>
        <pt x="169" y="0" on="1"/>
        <pt x="18" y="0" on="1"/>
      </contour>
      <contour>
        <pt x="169" y="56" on="1"/>
        <pt x="242" y="56" on="0"/>
        <pt x="319" y="106" on="0"/>
        <pt x="329" y="157" on="1"/>
        <pt x="331" y="164" on="0"/>
        <pt x="331" y="178" on="1"/>
        <pt x="331" y="210" on="0"/>
        <pt x="275" y="244" on="0"/>
        <pt x="211" y="244" on="1"/>
        <pt x="128" y="244" on="1"/>
        <pt x="91" y="56" on="1"/>
      </contour>
      <contour>
        <pt x="257" y="300" on="1"/>
        <pt x="306" y="328" on="0"/>
        <pt x="364" y="415" on="0"/>
        <pt x="364" y="457" on="1"/>
        <pt x="364" y="489" on="0"/>
        <pt x="309" y="520" on="0"/>
        <pt x="247" y="520" on="1"/>
        <pt x="183" y="520" on="1"/>
        <pt x="140" y="300" on="1"/>
      </contour>
    </TTGlyph>
    <TTGlyph name="B.sups" xMin="147" yMin="320" xMax="403" yMax="640">
      <contour>
        <pt x="403" y="640" on="1" overlap="1"/>
        <pt x="390" y="576" on="1"/>
        <pt x="378" y="512" on="1"/>
        <pt x="314" y="512" on="1"/>
        <pt x="326" y="576" on="1"/>
        <pt x="262" y="576" on="1"/>
        <pt x="250" y="512" on="1"/>
        <pt x="314" y="512" on="1"/>
        <pt x="301" y="448" on="1"/>
        <pt x="237" y="448" on="1"/>
        <pt x="224" y="384" on="1"/>
        <pt x="288" y="384" on="1"/>
        <pt x="301" y="448" on="1"/>
        <pt x="365" y="448" on="1"/>
        <pt x="339" y="320" on="1"/>
        <pt x="147" y="320" on="1"/>
        <pt x="186" y="512" on="1"/>
        <pt x="198" y="576" on="1"/>
        <pt x="211" y="640" on="1"/>
      </contour>
    </TTGlyph>
    <TTGlyph name="Beta" xMin="18" yMin="0" xMax="442" yMax="640">
      <component glyphName="B" x="0" y="0" flags="0x400"/>
    </TTGlyph>
    <TTGlyph name="C" xMin="63" yMin="-9" xMax="456" yMax="647">
      <contour>
        <pt x="144" y="-9" on="0" overlap="1"/>
        <pt x="63" y="72" on="0"/>
        <pt x="63" y="163" on="1"/>
        <pt x="63" y="226" on="0"/>
        <pt x="83" y="324" on="1"/>
        <pt x="107" y="445" on="0"/>
        <pt x="175" y="585" on="0"/>
        <pt x="277" y="647" on="0"/>
        <pt x="354" y="647" on="1"/>
        <pt x="403" y="647" on="0"/>
        <pt x="456" y="635" on="1"/>
        <pt x="439" y="584" on="1"/>
        <pt x="398" y="591" on="0"/>
        <pt x="356" y="591" on="1"/>
        <pt x="291" y="591" on="0"/>
        <pt x="215" y="535" on="0"/>
        <pt x="170" y="420" on="0"/>
        <pt x="149" y="314" on="1"/>
        <pt x="127" y="209" on="0"/>
        <pt x="127" y="154" on="1"/>
        <pt x="127" y="97" on="0"/>
        <pt x="178" y="47" on="0"/>
        <pt x="239" y="47" on="1"/>
        <pt x="284" y="47" on="0"/>
        <pt x="334" y="57" on="1"/>
        <pt x="339" y="4" on="1"/>
        <pt x="284" y="-9" on="0"/>
        <pt x="231" y="-9" on="1"/>
      </contour>
    </TTGlyph>
    <TTGlyph name="C.hex" xMin="60" yMin="-9" xMax="443" yMax="583">
      <contour>
        <pt x="142" y="-9" on="0" overlap="1"/>
        <pt x="60" y="68" on="0"/>
        <pt x="60" y="155" on="1"/>
        <pt x="60" y="215" on="0"/>
        <pt x="76" y="292" on="1"/>
        <pt x="98" y="401" on="0"/>
        <pt x="163" y="527" on="0"/>
        <pt x="264" y="583" on="0"/>
        <pt x="341" y="583" on="1"/>
        <pt x="390" y="583" on="0"/>
        <pt x="443" y="571" on="1"/>
        <pt x="426" y="520" on="1"/>
        <pt x="385" y="527" on="0"/>
        <pt x="343" y="527" on="1"/>
        <pt x="278" y="527" on="0"/>
        <pt x="203" y="478" on="0"/>
        <pt x="161" y="376" on="0"/>
        <pt x="142" y="282" on="1"/>
        <pt x="124" y="192" on="0"/>
        <pt x="124" y="147" on="1"/>
        <pt x="124" y="94" on="0"/>
        <pt x="176" y="47" on="0"/>
        <pt x="239" y="47" on="1"/>
        <pt x="284" y="47" on="0"/>
        <pt x="334" y="57" on="1"/>
        <pt x="338" y="4" on="1"/>
        <pt x="283" y="-9" on="0"/>
        <pt x="231" y="-9" on="1"/>
      </contour>
    </TTGlyph>
    <TTGlyph name="C.pl" xMin="107" yMin="380" xMax="360" yMax="708">
      <contour>
        <pt x="166" y="380" on="0" overlap="1"/>
        <pt x="107" y="440" on="0"/>
        <pt x="107" y="497" on="1"/>
        <pt x="107" y="522" on="0"/>
        <pt x="113" y="550" on="1"/>
        <pt x="129" y="627" on="0"/>
        <pt x="214" y="708" on="0"/>
        <pt x="276" y="708" on="1"/>
        <pt x="318" y="708" on="0"/>
        <pt x="360" y="697" on="1"/>
        <pt x="345" y="647" on="1"/>
        <pt x="305" y="654" on="0"/>
        <pt x="279" y="654" on="1"/>
        <pt x="240" y="654" on="0"/>
        <pt x="192" y="604" on="0"/>
        <pt x="179" y="538" on="1"/>
        <pt x="173" y="507" on="0"/>
        <pt x="173" y="486" on="1"/>
        <pt x="173" y="456" on="0"/>
        <pt x="198" y="434" on="0"/>
        <pt x="225" y="434" on="1"/>
        <pt x="256" y="434" on="0"/>
        <pt x="298" y="441" on="1"/>
        <pt x="303" y="389" on="1"/>
        <pt x="266" y="380" on="0"/>
        <pt x="220" y="380" on="1"/>
      </contour>
    </TTGlyph>
    <TTGlyph name="C.sups" xMin="173" yMin="316" xMax="406" yMax="644">
      <contour>
        <pt x="302" y="370" on="0" overlap="1"/>
        <pt x="344" y="378" on="1"/>
        <pt x="348" y="325" on="1"/>
        <pt x="315" y="316" on="0"/>
        <pt x="275" y="316" on="1"/>
        <pt x="225" y="316" on="0"/>
        <pt x="173" y="373" on="0"/>
        <pt x="173" y="428" on="1"/>
        <pt x="173" y="454" on="0"/>
        <pt x="179" y="485" on="1"/>
        <pt x="195" y="563" on="0"/>
        <pt x="274" y="644" on="0"/>
        <pt x="332" y="644" on="1"/>
        <pt x="368" y="644" on="0"/>
        <pt x="406" y="633" on="1"/>
        <pt x="390" y="584" on="1"/>
        <pt x="362" y="590" on="0"/>
        <pt x="334" y="590" on="1"/>
        <pt x="300" y="590" on="0"/>
        <pt x="257" y="543" on="0"/>
        <pt x="243" y="475" on="1"/>
        <pt x="236" y="441" on="0"/>
        <pt x="236" y="417" on="1"/>
        <pt x="236" y="389" on="0"/>
        <pt x="258" y="370" on="0"/>
        <pt x="281" y="370" on="1"/>
      </contour>
    </TTGlyph>
    <TTGlyph name="Cacute" xMin="63" yMin="-9" xMax="487" yMax="841">
      <component glyphName="C" x="0" y="0" flags="0x400"/>
      <component glyphName="acutecomb.case" x="32" y="0" flags="0x400"/>
    </TTGlyph>
    <TTGlyph name="Ccaron" xMin="63" yMin="-9" xMax="514" yMax="839">
      <component glyphName="C" x="0" y="0" flags="0x400"/>
      <component glyphName="uni030C.case" x="32" y="0" flags="0x400"/>
    </TTGlyph>
    <TTGlyph name="Ccedilla" xMin="47" yMin="-192" xMax="456" yMax="647">
      <component glyphName="C" x="0" y="0" flags="0x400"/>
      <component glyphName="uni0327" x="0" y="0" flags="0x400"/>
    </TTGlyph>
    <TTGlyph name="Ccircumflex" xMin="63" yMin="-9" xMax="484" yMax="841">
      <component glyphName="C" x="0" y="0" flags="0x400"/>
      <component glyphName="uni0302.case" x="32" y="0" flags="0x400"/>
    </TTGlyph>
    <TTGlyph name="Cdotaccent" xMin="63" yMin="-9" xMax="456" yMax="816">
      <component glyphName="C" x="0" y="0" flags="0x400"/>
      <component glyphName="uni0307.case" x="32" y="0" flags="0x400"/>
    </TTGlyph>
    <TTGlyph name="Chi" xMin="4" yMin="0" xMax="473" yMax="640">
      <component glyphName="X" x="0" y="0" flags="0x400"/>
    </TTGlyph>
    <TTGlyph name="D" xMin="18" yMin="0" xMax="427" yMax="640">
      <contour>
        <pt x="346" y="640" on="0" overlap="1"/>
        <pt x="427" y="554" on="0"/>
        <pt x="427" y="462" on="1"/>
        <pt x="427" y="399" on="0"/>
        <pt x="409" y="312" on="1"/>
        <pt x="386" y="197" on="0"/>
        <pt x="318" y="61" on="0"/>
        <pt x="215" y="0" on="0"/>
        <pt x="138" y="0" on="1"/>
        <pt x="18" y="0" on="1"/>
        <pt x="146" y="640" on="1"/>
        <pt x="261" y="640" on="1"/>
      </contour>
      <contour>
        <pt x="137" y="56" on="1"/>
        <pt x="203" y="56" on="0"/>
        <pt x="280" y="112" on="0"/>
        <pt x="323" y="222" on="0"/>
        <pt x="343" y="322" on="1"/>
        <pt x="364" y="425" on="0"/>
        <pt x="364" y="477" on="1"/>
        <pt x="364" y="534" on="0"/>
        <pt x="312" y="584" on="0"/>
        <pt x="248" y="584" on="1"/>
        <pt x="196" y="584" on="1"/>
        <pt x="91" y="56" on="1"/>
      </contour>
    </TTGlyph>
    <TTGlyph name="D.hex" xMin="18" yMin="0" xMax="418" yMax="576">
      <contour>
        <pt x="336" y="576" on="0" overlap="1"/>
        <pt x="418" y="495" on="0"/>
        <pt x="418" y="407" on="1"/>
        <pt x="418" y="354" on="0"/>
        <pt x="403" y="280" on="1"/>
        <pt x="382" y="176" on="0"/>
        <pt x="316" y="54" on="0"/>
        <pt x="215" y="0" on="0"/>
        <pt x="138" y="0" on="1"/>
        <pt x="18" y="0" on="1"/>
        <pt x="133" y="576" on="1"/>
        <pt x="248" y="576" on="1"/>
      </contour>
      <contour>
        <pt x="137" y="56" on="1"/>
        <pt x="203" y="56" on="0"/>
        <pt x="278" y="105" on="0"/>
        <pt x="319" y="202" on="0"/>
        <pt x="337" y="290" on="1"/>
        <pt x="354" y="378" on="0"/>
        <pt x="354" y="419" on="1"/>
        <pt x="354" y="473" on="0"/>
        <pt x="301" y="520" on="0"/>
        <pt x="235" y="520" on="1"/>
        <pt x="183" y="520" on="1"/>
        <pt x="91" y="56" on="1"/>
      </contour>
    </TTGlyph>
    <TTGlyph name="D.sups" xMin="147" yMin="320" xMax="390" yMax="640">
      <contour>
        <pt x="339" y="640" on="1" overlap="1"/>
        <pt x="326" y="576" on="1"/>
        <pt x="262" y="576" on="1"/>
        <pt x="250" y="512" on="1"/>
        <pt x="224" y="384" on="1"/>
        <pt x="288" y="384" on="1"/>
        <pt x="275" y="320" on="1"/>
        <pt x="147" y="320" on="1"/>
        <pt x="186" y="512" on="1"/>
        <pt x="198" y="576" on="1"/>
        <pt x="211" y="640" on="1"/>
      </contour>
      <contour>
        <pt x="314" y="512" on="1"/>
        <pt x="326" y="576" on="1"/>
        <pt x="390" y="576" on="1"/>
        <pt x="378" y="512" on="1"/>
        <pt x="352" y="384" on="1"/>
        <pt x="288" y="384" on="1"/>
      </contour>
    </TTGlyph>
    <TTGlyph name="Dcaron" xMin="18" yMin="0" xMax="470" yMax="839">
      <component glyphName="D" x="0" y="0" flags="0x400"/>
      <component glyphName="uni030C.case" x="-12" y="0" flags="0x400"/>
    </TTGlyph>
    <TTGlyph name="Dcroat" xMin="14" yMin="0" xMax="427" yMax="640">
      <component glyphName="Eth" x="0" y="0" flags="0x400"/>
    </TTGlyph>
    <TTGlyph name="E" xMin="18" yMin="0" xMax="452" yMax="640">
      <contour>
        <pt x="146" y="640" on="1" overlap="1"/>
        <pt x="452" y="640" on="1"/>
        <pt x="441" y="584" on="1"/>
        <pt x="196" y="584" on="1"/>
        <pt x="143" y="316" on="1"/>
        <pt x="333" y="316" on="1"/>
        <pt x="322" y="260" on="1"/>
        <pt x="131" y="260" on="1"/>
        <pt x="91" y="56" on="1"/>
        <pt x="345" y="56" on="1"/>
        <pt x="334" y="0" on="1"/>
        <pt x="18" y="0" on="1"/>
      </contour>
    </TTGlyph>
    <TTGlyph name="E.hex" xMin="18" yMin="0" xMax="439" yMax="576">
      <contour>
        <pt x="133" y="576" on="1" overlap="1"/>
        <pt x="439" y="576" on="1"/>
        <pt x="428" y="520" on="1"/>
        <pt x="183" y="520" on="1"/>
        <pt x="140" y="300" on="1"/>
        <pt x="330" y="300" on="1"/>
        <pt x="319" y="244" on="1"/>
        <pt x="128" y="244" on="1"/>
        <pt x="91" y="56" on="1"/>
        <pt x="345" y="56" on="1"/>
        <pt x="334" y="0" on="1"/>
        <pt x="18" y="0" on="1"/>
      </contour>
    </TTGlyph>
    <TTGlyph name="E.short" xMin="18" yMin="0" xMax="439" yMax="576">
      <component glyphName="E.hex" x="0" y="0" flags="0x400"/>
    </TTGlyph>
    <TTGlyph name="E.sups" xMin="147" yMin="320" xMax="397" yMax="640">
      <contour>
        <pt x="211" y="640" on="1" overlap="1"/>
        <pt x="397" y="640" on="1"/>
        <pt x="386" y="585" on="1"/>
        <pt x="264" y="585" on="1"/>
        <pt x="249" y="509" on="1"/>
        <pt x="359" y="509" on="1"/>
        <pt x="348" y="454" on="1"/>
        <pt x="238" y="454" on="1"/>
        <pt x="222" y="375" on="1"/>
        <pt x="348" y="375" on="1"/>
        <pt x="337" y="320" on="1"/>
        <pt x="147" y="320" on="1"/>
      </contour>
    </TTGlyph>
    <TTGlyph name="Eacute" xMin="18" yMin="0" xMax="452" yMax="841">
      <component glyphName="E" x="0" y="0" flags="0x400"/>
      <component glyphName="acutecomb.case" x="-4" y="0" flags="0x400"/>
    </TTGlyph>
    <TTGlyph name="Ebreve" xMin="18" yMin="0" xMax="468" yMax="834">
      <component glyphName="E" x="0" y="0" flags="0x400"/>
      <component glyphName="uni0306.case" x="-4" y="0" flags="0x400"/>
    </TTGlyph>
    <TTGlyph name="Ecaron" xMin="18" yMin="0" xMax="478" yMax="839">
      <component glyphName="E" x="0" y="0" flags="0x400"/>
      <component glyphName="uni030C.case" x="-4" y="0" flags="0x400"/>
    </TTGlyph>
    <TTGlyph name="Ecircumflex" xMin="18" yMin="0" xMax="452" yMax="841">
      <component glyphName="E" x="0" y="0" flags="0x400"/>
      <component glyphName="uni0302.case" x="-4" y="0" flags="0x400"/>
    </TTGlyph>
    <TTGlyph name="Edieresis" xMin="18" yMin="0" xMax="468" yMax="814">
      <component glyphName="E" x="0" y="0" flags="0x400"/>
      <component glyphName="uni0308.case" x="-4" y="0" flags="0x400"/>
    </TTGlyph>
    <TTGlyph name="Edotaccent" xMin="18" yMin="0" xMax="452" yMax="816">
      <component glyphName="E" x="0" y="0" flags="0x400"/>
      <component glyphName="uni0307.case" x="-4" y="0" flags="0x400"/>
    </TTGlyph>
    <TTGlyph name="Egrave" xMin="18" yMin="0" xMax="452" yMax="835">
      <component glyphName="E" x="0" y="0" flags="0x400"/>
      <component glyphName="gravecomb.case" x="-4" y="0" flags="0x400"/>
    </TTGlyph>
    <TTGlyph name="Emacron" xMin="18" yMin="0" xMax="452" yMax="776">
      <component glyphName="E" x="0" y="0" flags="0x400"/>
      <component glyphName="uni0304.case" x="-4" y="0" flags="0x400"/>
    </TTGlyph>
    <TTGlyph name="Eng" xMin="18" yMin="-197" xMax="469" yMax="640">
      <contour>
        <pt x="325" y="-80" on="0" overlap="1"/>
        <pt x="258" y="-168" on="0"/>
        <pt x="187" y="-197" on="1"/>
        <pt x="168" y="-144" on="1"/>
        <pt x="217" y="-124" on="0"/>
        <pt x="266" y="-65" on="0"/>
        <pt x="277" y="-10" on="1"/>
        <pt x="280" y="7" on="1"/>
        <pt x="205" y="384" on="1"/>
        <pt x="187" y="533" on="1"/>
        <pt x="80" y="0" on="1"/>
        <pt x="18" y="0" on="1"/>
        <pt x="146" y="640" on="1"/>
        <pt x="219" y="640" on="1"/>
        <pt x="295" y="260" on="1"/>
        <pt x="308" y="142" on="1"/>
        <pt x="407" y="640" on="1"/>
        <pt x="469" y="640" on="1"/>
        <pt x="340" y="-8" on="1"/>
      </contour>
    </TTGlyph>
    <TTGlyph name="Eogonek" xMin="18" yMin="-197" xMax="452" yMax="640">
      <component glyphName="E" x="0" y="0" flags="0x400"/>
      <component glyphName="uni0328" x="-3" y="0" flags="0x400"/>
    </TTGlyph>
    <TTGlyph name="Epsilon" xMin="18" yMin="0" xMax="452" yMax="640">
      <component glyphName="E" x="0" y="0" flags="0x400"/>
    </TTGlyph>
    <TTGlyph name="Epsilontonos" xMin="0" yMin="0" xMax="452" yMax="704">
      <component glyphName="E" x="0" y="0" flags="0x400"/>
      <component glyphName="tonos" x="-256" y="0" flags="0x400"/>
    </TTGlyph>
    <TTGlyph name="Eta" xMin="18" yMin="0" xMax="469" yMax="640">
      <component glyphName="H" x="0" y="0" flags="0x400"/>
    </TTGlyph>
    <TTGlyph name="Etatonos" xMin="0" yMin="0" xMax="469" yMax="704">
      <component glyphName="H" x="0" y="0" flags="0x400"/>
      <component glyphName="tonos" x="-256" y="0" flags="0x400"/>
    </TTGlyph>
    <TTGlyph name="Eth" xMin="14" yMin="0" xMax="427" yMax="640">
      <contour>
        <pt x="81" y="316" on="1" overlap="1"/>
        <pt x="146" y="640" on="1"/>
        <pt x="261" y="640" on="1"/>
        <pt x="346" y="640" on="0"/>
        <pt x="427" y="554" on="0"/>
        <pt x="427" y="462" on="1"/>
        <pt x="427" y="399" on="0"/>
        <pt x="409" y="312" on="1"/>
        <pt x="386" y="197" on="0"/>
        <pt x="318" y="61" on="0"/>
        <pt x="215" y="0" on="0"/>
        <pt x="138" y="0" on="1"/>
        <pt x="18" y="0" on="1"/>
        <pt x="70" y="260" on="1"/>
        <pt x="14" y="260" on="1"/>
        <pt x="26" y="316" on="1"/>
      </contour>
      <contour>
        <pt x="137" y="56" on="1"/>
        <pt x="203" y="56" on="0"/>
        <pt x="280" y="112" on="0"/>
        <pt x="323" y="222" on="0"/>
        <pt x="343" y="322" on="1"/>
        <pt x="364" y="425" on="0"/>
        <pt x="364" y="477" on="1"/>
        <pt x="364" y="534" on="0"/>
        <pt x="312" y="584" on="0"/>
        <pt x="248" y="584" on="1"/>
        <pt x="196" y="584" on="1"/>
        <pt x="143" y="316" on="1"/>
        <pt x="252" y="316" on="1"/>
        <pt x="240" y="260" on="1"/>
        <pt x="132" y="260" on="1"/>
        <pt x="91" y="56" on="1"/>
      </contour>
    </TTGlyph>
    <TTGlyph name="Euro" xMin="61" yMin="-7" xMax="473" yMax="583">
      <contour>
        <pt x="307" y="49" on="0" overlap="1"/>
        <pt x="358" y="64" on="1"/>
        <pt x="366" y="11" on="1"/>
        <pt x="315" y="-7" on="0"/>
        <pt x="266" y="-7" on="1"/>
        <pt x="182" y="-7" on="0"/>
        <pt x="109" y="96" on="0"/>
        <pt x="115" y="196" on="1"/>
        <pt x="61" y="196" on="1"/>
        <pt x="72" y="250" on="1"/>
        <pt x="121" y="250" on="1"/>
        <pt x="129" y="293" on="1"/>
        <pt x="136" y="326" on="1"/>
        <pt x="87" y="326" on="1"/>
        <pt x="98" y="380" on="1"/>
        <pt x="151" y="380" on="1"/>
        <pt x="183" y="481" on="0"/>
        <pt x="293" y="583" on="0"/>
        <pt x="375" y="583" on="1"/>
        <pt x="398" y="583" on="0"/>
        <pt x="451" y="572" on="0"/>
        <pt x="473" y="563" on="1"/>
        <pt x="452" y="515" on="1"/>
        <pt x="416" y="527" on="0"/>
        <pt x="375" y="527" on="1"/>
        <pt x="320" y="527" on="0"/>
        <pt x="241" y="457" on="0"/>
        <pt x="214" y="380" on="1"/>
        <pt x="395" y="380" on="1"/>
        <pt x="371" y="326" on="1"/>
        <pt x="198" y="326" on="1"/>
        <pt x="189" y="283" on="1"/>
        <pt x="183" y="250" on="1"/>
        <pt x="341" y="250" on="1"/>
        <pt x="318" y="196" on="1"/>
        <pt x="176" y="196" on="1"/>
        <pt x="175" y="185" on="0"/>
        <pt x="175" y="164" on="1"/>
        <pt x="175" y="102" on="0"/>
        <pt x="222" y="49" on="0"/>
        <pt x="270" y="49" on="1"/>
      </contour>
    </TTGlyph>
    <TTGlyph name="F" xMin="18" yMin="0" xMax="462" yMax="640">
      <contour>
        <pt x="146" y="640" on="1" overlap="1"/>
        <pt x="462" y="640" on="1"/>
        <pt x="451" y="584" on="1"/>
        <pt x="197" y="584" on="1"/>
        <pt x="143" y="316" on="1"/>
        <pt x="333" y="316" on="1"/>
        <pt x="322" y="260" on="1"/>
        <pt x="132" y="260" on="1"/>
        <pt x="80" y="0" on="1"/>
        <pt x="18" y="0" on="1"/>
      </contour>
    </TTGlyph>
    <TTGlyph name="F.hex" xMin="18" yMin="0" xMax="449" yMax="576">
      <contour>
        <pt x="133" y="576" on="1" overlap="1"/>
        <pt x="449" y="576" on="1"/>
        <pt x="438" y="520" on="1"/>
        <pt x="184" y="520" on="1"/>
        <pt x="140" y="300" on="1"/>
        <pt x="330" y="300" on="1"/>
        <pt x="319" y="244" on="1"/>
        <pt x="129" y="244" on="1"/>
        <pt x="80" y="0" on="1"/>
        <pt x="18" y="0" on="1"/>
      </contour>
    </TTGlyph>
    <TTGlyph name="F.pl" xMin="134" yMin="-66" xMax="414" yMax="254">
      <contour>
        <pt x="198" y="254" on="1" overlap="1"/>
        <pt x="414" y="254" on="1"/>
        <pt x="403" y="198" on="1"/>
        <pt x="251" y="198" on="1"/>
        <pt x="235" y="118" on="1"/>
        <pt x="367" y="118" on="1"/>
        <pt x="355" y="62" on="1"/>
        <pt x="223" y="62" on="1"/>
        <pt x="198" y="-66" on="1"/>
        <pt x="134" y="-66" on="1"/>
      </contour>
    </TTGlyph>
    <TTGlyph name="F.sups" xMin="147" yMin="320" xMax="403" yMax="640">
      <contour>
        <pt x="211" y="640" on="1" overlap="1"/>
        <pt x="403" y="640" on="1"/>
        <pt x="392" y="585" on="1"/>
        <pt x="264" y="585" on="1"/>
        <pt x="247" y="503" on="1"/>
        <pt x="355" y="503" on="1"/>
        <pt x="345" y="448" on="1"/>
        <pt x="237" y="448" on="1"/>
        <pt x="211" y="320" on="1"/>
        <pt x="147" y="320" on="1"/>
      </contour>
    </TTGlyph>
    <TTGlyph name="G" xMin="57" yMin="-9" xMax="460" yMax="647">
      <contour>
        <pt x="138" y="-9" on="0" overlap="1"/>
        <pt x="57" y="72" on="0"/>
        <pt x="57" y="163" on="1"/>
        <pt x="57" y="226" on="0"/>
        <pt x="77" y="324" on="1"/>
        <pt x="101" y="445" on="0"/>
        <pt x="169" y="585" on="0"/>
        <pt x="271" y="647" on="0"/>
        <pt x="348" y="647" on="1"/>
        <pt x="405" y="647" on="0"/>
        <pt x="460" y="632" on="1"/>
        <pt x="443" y="581" on="1"/>
        <pt x="399" y="591" on="0"/>
        <pt x="350" y="591" on="1"/>
        <pt x="285" y="591" on="0"/>
        <pt x="209" y="535" on="0"/>
        <pt x="164" y="420" on="0"/>
        <pt x="143" y="314" on="1"/>
        <pt x="121" y="209" on="0"/>
        <pt x="121" y="154" on="1"/>
        <pt x="121" y="97" on="0"/>
        <pt x="172" y="47" on="0"/>
        <pt x="233" y="47" on="1"/>
        <pt x="261" y="47" on="0"/>
        <pt x="289" y="51" on="1"/>
        <pt x="330" y="260" on="1"/>
        <pt x="237" y="260" on="1"/>
        <pt x="248" y="316" on="1"/>
        <pt x="404" y="316" on="1"/>
        <pt x="343" y="7" on="1"/>
        <pt x="316" y="-1" on="0"/>
        <pt x="249" y="-9" on="0"/>
        <pt x="225" y="-9" on="1"/>
      </contour>
    </TTGlyph>
    <TTGlyph name="G.sups" xMin="160" yMin="320" xMax="403" yMax="640">
      <contour>
        <pt x="262" y="576" on="1" overlap="1"/>
        <pt x="250" y="512" on="1"/>
        <pt x="224" y="384" on="1"/>
        <pt x="160" y="384" on="1"/>
        <pt x="186" y="512" on="1"/>
        <pt x="198" y="576" on="1"/>
      </contour>
      <contour>
        <pt x="224" y="384" on="1"/>
        <pt x="288" y="384" on="1"/>
        <pt x="314" y="512" on="1"/>
        <pt x="378" y="512" on="1"/>
        <pt x="339" y="320" on="1"/>
        <pt x="211" y="320" on="1"/>
      </contour>
      <contour>
        <pt x="275" y="640" on="1"/>
        <pt x="403" y="640" on="1"/>
        <pt x="390" y="576" on="1"/>
        <pt x="262" y="576" on="1"/>
      </contour>
    </TTGlyph>
    <TTGlyph name="Gamma" xMin="18" yMin="0" xMax="465" yMax="640">
      <component glyphName="uni0413" x="0" y="0" flags="0x400"/>
    </TTGlyph>
    <TTGlyph name="Gbreve" xMin="57" yMin="-9" xMax="492" yMax="834">
      <component glyphName="G" x="0" y="0" flags="0x400"/>
      <component glyphName="uni0306.case" x="20" y="0" flags="0x400"/>
    </TTGlyph>
    <TTGlyph name="Gcaron" xMin="57" yMin="-9" xMax="502" yMax="839">
      <component glyphName="G" x="0" y="0" flags="0x400"/>
      <component glyphName="uni030C.case" x="20" y="0" flags="0x400"/>
    </TTGlyph>
    <TTGlyph name="Gcircumflex" xMin="57" yMin="-9" xMax="472" yMax="841">
      <component glyphName="G" x="0" y="0" flags="0x400"/>
      <component glyphName="uni0302.case" x="20" y="0" flags="0x400"/>
    </TTGlyph>
    <TTGlyph name="Gdotaccent" xMin="57" yMin="-9" xMax="460" yMax="816">
      <component glyphName="G" x="0" y="0" flags="0x400"/>
      <component glyphName="uni0307.case" x="20" y="0" flags="0x400"/>
    </TTGlyph>
    <TTGlyph name="H" xMin="18" yMin="0" xMax="469" yMax="640">
      <contour>
        <pt x="146" y="640" on="1" overlap="1"/>
        <pt x="208" y="640" on="1"/>
        <pt x="143" y="316" on="1"/>
        <pt x="342" y="316" on="1"/>
        <pt x="407" y="640" on="1"/>
        <pt x="469" y="640" on="1"/>
        <pt x="341" y="0" on="1"/>
        <pt x="279" y="0" on="1"/>
        <pt x="330" y="260" on="1"/>
        <pt x="131" y="260" on="1"/>
        <pt x="80" y="0" on="1"/>
        <pt x="18" y="0" on="1"/>
      </contour>
    </TTGlyph>
    <TTGlyph name="H.sups" xMin="147" yMin="320" xMax="403" yMax="640">
      <contour>
        <pt x="249" y="508" on="1" overlap="1"/>
        <pt x="313" y="508" on="1"/>
        <pt x="339" y="640" on="1"/>
        <pt x="403" y="640" on="1"/>
        <pt x="339" y="320" on="1"/>
        <pt x="275" y="320" on="1"/>
        <pt x="302" y="452" on="1"/>
        <pt x="238" y="452" on="1"/>
        <pt x="211" y="320" on="1"/>
        <pt x="147" y="320" on="1"/>
        <pt x="211" y="640" on="1"/>
        <pt x="275" y="640" on="1"/>
      </contour>
    </TTGlyph>
    <TTGlyph name="Hbar" xMin="18" yMin="0" xMax="493" yMax="640">
      <contour>
        <pt x="118" y="498" on="1" overlap="1"/>
        <pt x="146" y="640" on="1"/>
        <pt x="208" y="640" on="1"/>
        <pt x="180" y="498" on="1"/>
        <pt x="379" y="498" on="1"/>
        <pt x="407" y="640" on="1"/>
        <pt x="469" y="640" on="1"/>
        <pt x="441" y="498" on="1"/>
        <pt x="493" y="498" on="1"/>
        <pt x="481" y="445" on="1"/>
        <pt x="430" y="445" on="1"/>
        <pt x="341" y="0" on="1"/>
        <pt x="279" y="0" on="1"/>
        <pt x="330" y="260" on="1"/>
        <pt x="131" y="260" on="1"/>
        <pt x="80" y="0" on="1"/>
        <pt x="18" y="0" on="1"/>
        <pt x="107" y="445" on="1"/>
        <pt x="54" y="445" on="1"/>
        <pt x="66" y="498" on="1"/>
      </contour>
      <contour>
        <pt x="342" y="316" on="1"/>
        <pt x="368" y="445" on="1"/>
        <pt x="169" y="445" on="1"/>
        <pt x="143" y="316" on="1"/>
      </contour>
    </TTGlyph>
    <TTGlyph name="Hcircumflex" xMin="18" yMin="0" xMax="469" yMax="841">
      <component glyphName="H" x="0" y="0" flags="0x400"/>
      <component glyphName="uni0302.case" x="0" y="0" flags="0x400"/>
    </TTGlyph>
    <TTGlyph name="I" xMin="32" yMin="0" xMax="450" yMax="640">
      <contour>
        <pt x="42" y="47" on="1" overlap="1"/>
        <pt x="159" y="55" on="1"/>
        <pt x="265" y="585" on="1"/>
        <pt x="155" y="593" on="1"/>
        <pt x="164" y="640" on="1"/>
        <pt x="450" y="640" on="1"/>
        <pt x="441" y="593" on="1"/>
        <pt x="327" y="585" on="1"/>
        <pt x="221" y="55" on="1"/>
        <pt x="336" y="47" on="1"/>
        <pt x="326" y="0" on="1"/>
        <pt x="32" y="0" on="1"/>
      </contour>
    </TTGlyph>
    <TTGlyph name="I.short" xMin="32" yMin="0" xMax="437" yMax="576">
      <contour>
        <pt x="42" y="47" on="1" overlap="1"/>
        <pt x="159" y="55" on="1"/>
        <pt x="252" y="521" on="1"/>
        <pt x="142" y="529" on="1"/>
        <pt x="151" y="576" on="1"/>
        <pt x="437" y="576" on="1"/>
        <pt x="428" y="529" on="1"/>
        <pt x="314" y="521" on="1"/>
        <pt x="221" y="55" on="1"/>
        <pt x="336" y="47" on="1"/>
        <pt x="326" y="0" on="1"/>
        <pt x="32" y="0" on="1"/>
      </contour>
    </TTGlyph>
    <TTGlyph name="I.sups" xMin="147" yMin="320" xMax="403" yMax="640">
      <contour>
        <pt x="339" y="320" on="1" overlap="1"/>
        <pt x="147" y="320" on="1"/>
        <pt x="157" y="368" on="1"/>
        <pt x="222" y="376" on="1"/>
        <pt x="264" y="584" on="1"/>
        <pt x="202" y="592" on="1"/>
        <pt x="211" y="640" on="1"/>
        <pt x="403" y="640" on="1"/>
        <pt x="394" y="592" on="1"/>
        <pt x="328" y="584" on="1"/>
        <pt x="286" y="376" on="1"/>
        <pt x="349" y="368" on="1"/>
      </contour>
    </TTGlyph>
    <TTGlyph name="IJ" xMin="-41" yMin="0" xMax="470" yMax="640">
      <contour>
        <pt x="-31" y="47" on="1" overlap="1"/>
        <pt x="35" y="56" on="1"/>
        <pt x="140" y="584" on="1"/>
        <pt x="83" y="594" on="1"/>
        <pt x="92" y="640" on="1"/>
        <pt x="275" y="640" on="1"/>
        <pt x="266" y="594" on="1"/>
        <pt x="202" y="584" on="1"/>
        <pt x="97" y="56" on="1"/>
        <pt x="189" y="56" on="1"/>
        <pt x="242" y="56" on="0"/>
        <pt x="303" y="120" on="0"/>
        <pt x="316" y="180" on="1"/>
        <pt x="396" y="584" on="1"/>
        <pt x="312" y="584" on="1"/>
        <pt x="324" y="640" on="1"/>
        <pt x="470" y="640" on="1"/>
        <pt x="378" y="178" on="1"/>
        <pt x="359" y="85" on="0"/>
        <pt x="258" y="0" on="0"/>
        <pt x="183" y="0" on="1"/>
        <pt x="-41" y="0" on="1"/>
      </contour>
    </TTGlyph>
    <TTGlyph name="Iacute" xMin="32" yMin="0" xMax="455" yMax="841">
      <component glyphName="I" x="0" y="0" flags="0x400"/>
      <component glyphName="acutecomb.case" x="0" y="0" flags="0x400"/>
    </TTGlyph>
    <TTGlyph name="Iacute_J.loclNLD" xMin="-41" yMin="0" xMax="470" yMax="841">
      <component glyphName="IJ" x="0" y="0" flags="0x400"/>
      <component glyphName="acutecomb.case" x="0" y="0" flags="0x400"/>
    </TTGlyph>
    <TTGlyph name="Ibreve" xMin="32" yMin="0" xMax="472" yMax="834">
      <component glyphName="I" x="0" y="0" flags="0x400"/>
      <component glyphName="uni0306.case" x="0" y="0" flags="0x400"/>
    </TTGlyph>
    <TTGlyph name="Icircumflex" xMin="32" yMin="0" xMax="452" yMax="841">
      <component glyphName="I" x="0" y="0" flags="0x400"/>
      <component glyphName="uni0302.case" x="0" y="0" flags="0x400"/>
    </TTGlyph>
    <TTGlyph name="Idieresis" xMin="32" yMin="0" xMax="472" yMax="814">
      <component glyphName="I" x="0" y="0" flags="0x400"/>
      <component glyphName="uni0308.case" x="0" y="0" flags="0x400"/>
    </TTGlyph>
    <TTGlyph name="Idotaccent" xMin="32" yMin="0" xMax="450" yMax="816">
      <component glyphName="I" x="0" y="0" flags="0x400"/>
      <component glyphName="uni0307.case" x="0" y="0" flags="0x400"/>
    </TTGlyph>
    <TTGlyph name="Igrave" xMin="32" yMin="0" xMax="450" yMax="835">
      <component glyphName="I" x="0" y="0" flags="0x400"/>
      <component glyphName="gravecomb.case" x="0" y="0" flags="0x400"/>
    </TTGlyph>
    <TTGlyph name="Imacron" xMin="32" yMin="0" xMax="452" yMax="776">
      <component glyphName="I" x="0" y="0" flags="0x400"/>
      <component glyphName="uni0304.case" x="0" y="0" flags="0x400"/>
    </TTGlyph>
    <TTGlyph name="Iogonek" xMin="32" yMin="-197" xMax="450" yMax="640">
      <component glyphName="I" x="0" y="0" flags="0x400"/>
      <component glyphName="uni0328" x="-11" y="0" flags="0x400"/>
    </TTGlyph>
    <TTGlyph name="Iota" xMin="32" yMin="0" xMax="450" yMax="640">
      <component glyphName="I" x="0" y="0" flags="0x400"/>
    </TTGlyph>
    <TTGlyph name="Iotadieresis" xMin="32" yMin="0" xMax="472" yMax="814">
      <component glyphName="I" x="0" y="0" flags="0x400"/>
      <component glyphName="uni0308.case" x="0" y="0" flags="0x400"/>
    </TTGlyph>
    <TTGlyph name="Iotatonos" xMin="0" yMin="0" xMax="450" yMax="704">
      <component glyphName="I" x="0" y="0" flags="0x400"/>
      <component glyphName="tonos" x="-256" y="0" flags="0x400"/>
    </TTGlyph>
    <TTGlyph name="Itilde" xMin="32" yMin="0" xMax="495" yMax="837">
      <component glyphName="I" x="0" y="0" flags="0x400"/>
      <component glyphName="tildecomb.case" x="0" y="0" flags="0x400"/>
    </TTGlyph>
    <TTGlyph name="J" xMin="44" yMin="-8" xMax="469" yMax="640">
      <contour>
        <pt x="106" y="87" on="0" overlap="1"/>
        <pt x="141" y="48" on="0"/>
        <pt x="184" y="48" on="1"/>
        <pt x="240" y="48" on="0"/>
        <pt x="301" y="111" on="0"/>
        <pt x="313" y="172" on="1"/>
        <pt x="395" y="584" on="1"/>
        <pt x="241" y="584" on="1"/>
        <pt x="253" y="640" on="1"/>
        <pt x="469" y="640" on="1"/>
        <pt x="375" y="170" on="1"/>
        <pt x="356" y="77" on="0"/>
        <pt x="256" y="-8" on="0"/>
        <pt x="182" y="-8" on="1"/>
        <pt x="113" y="-8" on="0"/>
        <pt x="46" y="60" on="0"/>
        <pt x="44" y="118" on="1"/>
        <pt x="102" y="129" on="1"/>
      </contour>
    </TTGlyph>
    <TTGlyph name="J.sups" xMin="147" yMin="320" xMax="403" yMax="640">
      <contour>
        <pt x="403" y="640" on="1" overlap="1"/>
        <pt x="390" y="576" on="1"/>
        <pt x="378" y="512" on="1"/>
        <pt x="352" y="384" on="1"/>
        <pt x="288" y="384" on="1"/>
        <pt x="314" y="512" on="1"/>
        <pt x="326" y="576" on="1"/>
        <pt x="198" y="576" on="1"/>
        <pt x="211" y="640" on="1"/>
      </contour>
      <contour>
        <pt x="160" y="384" on="1"/>
        <pt x="288" y="384" on="1"/>
        <pt x="275" y="320" on="1"/>
        <pt x="147" y="320" on="1"/>
      </contour>
    </TTGlyph>
    <TTGlyph name="Jcircumflex" xMin="44" yMin="-8" xMax="498" yMax="841">
      <component glyphName="J" x="0" y="0" flags="0x400"/>
      <component glyphName="uni0302.case" x="46" y="0" flags="0x400"/>
    </TTGlyph>
    <TTGlyph name="K" xMin="18" yMin="0" xMax="481" yMax="640">
      <contour>
        <pt x="146" y="640" on="1" overlap="1"/>
        <pt x="208" y="640" on="1"/>
        <pt x="144" y="321" on="1"/>
        <pt x="196" y="321" on="1"/>
        <pt x="273" y="394" on="0"/>
        <pt x="379" y="540" on="0"/>
        <pt x="415" y="640" on="1"/>
        <pt x="481" y="640" on="1"/>
        <pt x="445" y="542" on="0"/>
        <pt x="342" y="390" on="0"/>
        <pt x="264" y="318" on="1"/>
        <pt x="373" y="299" on="0"/>
        <pt x="373" y="185" on="1"/>
        <pt x="373" y="161" on="0"/>
        <pt x="371" y="148" on="1"/>
        <pt x="353" y="0" on="1"/>
        <pt x="287" y="0" on="1"/>
        <pt x="308" y="150" on="1"/>
        <pt x="311" y="171" on="0"/>
        <pt x="311" y="188" on="1"/>
        <pt x="311" y="229" on="0"/>
        <pt x="265" y="265" on="0"/>
        <pt x="210" y="265" on="1"/>
        <pt x="132" y="265" on="1"/>
        <pt x="80" y="0" on="1"/>
        <pt x="18" y="0" on="1"/>
      </contour>
    </TTGlyph>
    <TTGlyph name="K.sups" xMin="147" yMin="320" xMax="403" yMax="640">
      <contour>
        <pt x="275" y="640" on="1" overlap="1"/>
        <pt x="262" y="576" on="1"/>
        <pt x="250" y="512" on="1"/>
        <pt x="314" y="512" on="1"/>
        <pt x="301" y="448" on="1"/>
        <pt x="237" y="448" on="1"/>
        <pt x="211" y="320" on="1"/>
        <pt x="147" y="320" on="1"/>
        <pt x="186" y="512" on="1"/>
        <pt x="198" y="576" on="1"/>
        <pt x="211" y="640" on="1"/>
      </contour>
      <contour>
        <pt x="301" y="448" on="1"/>
        <pt x="365" y="448" on="1"/>
        <pt x="339" y="320" on="1"/>
        <pt x="275" y="320" on="1"/>
      </contour>
      <contour>
        <pt x="326" y="576" on="1"/>
        <pt x="339" y="640" on="1"/>
        <pt x="403" y="640" on="1"/>
        <pt x="390" y="576" on="1"/>
        <pt x="378" y="512" on="1"/>
        <pt x="314" y="512" on="1"/>
      </contour>
    </TTGlyph>
    <TTGlyph name="Kappa" xMin="18" yMin="0" xMax="481" yMax="640">
      <component glyphName="K" x="0" y="0" flags="0x400"/>
    </TTGlyph>
    <TTGlyph name="L" xMin="18" yMin="0" xMax="348" yMax="640">
      <contour>
        <pt x="146" y="640" on="1" overlap="1"/>
        <pt x="208" y="640" on="1"/>
        <pt x="91" y="56" on="1"/>
        <pt x="348" y="56" on="1"/>
        <pt x="337" y="0" on="1"/>
        <pt x="18" y="0" on="1"/>
      </contour>
    </TTGlyph>
    <TTGlyph name="L.pl" xMin="96" yMin="384" xMax="327" yMax="704">
      <contour>
        <pt x="316" y="384" on="1" overlap="1"/>
        <pt x="96" y="384" on="1"/>
        <pt x="160" y="704" on="1"/>
        <pt x="224" y="704" on="1"/>
        <pt x="171" y="440" on="1"/>
        <pt x="327" y="440" on="1"/>
      </contour>
    </TTGlyph>
    <TTGlyph name="L.sups" xMin="147" yMin="320" xMax="350" yMax="640">
      <contour>
        <pt x="339" y="320" on="1" overlap="1"/>
        <pt x="147" y="320" on="1"/>
        <pt x="211" y="640" on="1"/>
        <pt x="275" y="640" on="1"/>
        <pt x="222" y="376" on="1"/>
        <pt x="350" y="376" on="1"/>
      </contour>
    </TTGlyph>
    <TTGlyph name="Lacute" xMin="18" yMin="0" xMax="348" yMax="841">
      <component glyphName="L" x="0" y="0" flags="0x400"/>
      <component glyphName="acutecomb.case" x="-130" y="0" flags="0x400"/>
    </TTGlyph>
    <TTGlyph name="Lambda" xMin="-8" yMin="0" xMax="381" yMax="646">
      <contour>
        <pt x="45" y="187" on="0" overlap="1"/>
        <pt x="193" y="522" on="0"/>
        <pt x="280" y="646" on="1"/>
        <pt x="333" y="640" on="1"/>
        <pt x="381" y="483" on="0"/>
        <pt x="381" y="261" on="1"/>
        <pt x="381" y="142" on="0"/>
        <pt x="365" y="0" on="1"/>
        <pt x="302" y="0" on="1"/>
        <pt x="318" y="147" on="0"/>
        <pt x="318" y="280" on="1"/>
        <pt x="318" y="447" on="0"/>
        <pt x="293" y="562" on="1"/>
        <pt x="228" y="458" on="0"/>
        <pt x="108" y="170" on="0"/>
        <pt x="59" y="0" on="1"/>
        <pt x="-8" y="0" on="1"/>
      </contour>
    </TTGlyph>
    <TTGlyph name="Lcaron" xMin="18" yMin="0" xMax="451" yMax="640">
      <component glyphName="L" x="0" y="0" flags="0x400"/>
      <component glyphName="uni030C.alt" x="-64" y="0" flags="0x400"/>
    </TTGlyph>
    <TTGlyph name="Ldot" xMin="18" yMin="0" xMax="348" yMax="640">
      <component glyphName="L" x="0" y="0" flags="0x400"/>
      <component glyphName="period" x="128" y="256" flags="0x404"/>
    </TTGlyph>
    <TTGlyph name="Lslash" xMin="-35" yMin="0" xMax="348" yMax="640">
      <component glyphName="L" x="0" y="0" flags="0x400"/>
      <component glyphName="_part.slash.comp" x="-103" y="0" flags="0x400"/>
    </TTGlyph>
    <TTGlyph name="M" xMin="-24" yMin="0" xMax="485" yMax="640">
      <contour>
        <pt x="48" y="342" on="0" overlap="1"/>
        <pt x="128" y="640" on="1"/>
        <pt x="196" y="640" on="1"/>
        <pt x="229" y="254" on="1"/>
        <pt x="231" y="254" on="1"/>
        <pt x="418" y="640" on="1"/>
        <pt x="485" y="640" on="1"/>
        <pt x="446" y="346" on="0"/>
        <pt x="383" y="0" on="1"/>
        <pt x="321" y="0" on="1"/>
        <pt x="370" y="251" on="0"/>
        <pt x="410" y="509" on="1"/>
        <pt x="409" y="509" on="1"/>
        <pt x="236" y="155" on="1"/>
        <pt x="185" y="155" on="1"/>
        <pt x="154" y="507" on="1"/>
        <pt x="152" y="507" on="1"/>
        <pt x="89" y="254" on="0"/>
        <pt x="38" y="0" on="1"/>
        <pt x="-24" y="0" on="1"/>
      </contour>
    </TTGlyph>
    <TTGlyph name="M.sups" xMin="147" yMin="320" xMax="403" yMax="640">
      <contour>
        <pt x="198" y="576" on="1" overlap="1"/>
        <pt x="211" y="640" on="1"/>
        <pt x="403" y="640" on="1"/>
        <pt x="390" y="576" on="1"/>
        <pt x="378" y="512" on="1"/>
        <pt x="339" y="320" on="1"/>
        <pt x="275" y="320" on="1"/>
        <pt x="288" y="384" on="1"/>
        <pt x="224" y="384" on="1"/>
        <pt x="211" y="320" on="1"/>
        <pt x="147" y="320" on="1"/>
        <pt x="186" y="512" on="1"/>
      </contour>
    </TTGlyph>
    <TTGlyph name="Mu" xMin="-24" yMin="0" xMax="485" yMax="640">
      <component glyphName="M" x="0" y="0" flags="0x400"/>
    </TTGlyph>
    <TTGlyph name="N" xMin="18" yMin="0" xMax="469" yMax="640">
      <contour>
        <pt x="219" y="640" on="1" overlap="1"/>
        <pt x="286" y="256" on="1"/>
        <pt x="300" y="107" on="1"/>
        <pt x="407" y="640" on="1"/>
        <pt x="469" y="640" on="1"/>
        <pt x="341" y="0" on="1"/>
        <pt x="268" y="0" on="1"/>
        <pt x="200" y="384" on="1"/>
        <pt x="186" y="529" on="1"/>
        <pt x="80" y="0" on="1"/>
        <pt x="18" y="0" on="1"/>
        <pt x="146" y="640" on="1"/>
      </contour>
    </TTGlyph>
    <TTGlyph name="N.pl" xMin="73" yMin="-64" xMax="388" yMax="256">
      <contour>
        <pt x="137" y="256" on="1" overlap="1"/>
        <pt x="220" y="256" on="1"/>
        <pt x="281" y="21" on="1"/>
        <pt x="328" y="256" on="1"/>
        <pt x="388" y="256" on="1"/>
        <pt x="324" y="-64" on="1"/>
        <pt x="241" y="-64" on="1"/>
        <pt x="180" y="171" on="1"/>
        <pt x="133" y="-64" on="1"/>
        <pt x="73" y="-64" on="1"/>
      </contour>
    </TTGlyph>
    <TTGlyph name="N.sups" xMin="147" yMin="320" xMax="390" yMax="640">
      <contour>
        <pt x="339" y="640" on="1" overlap="1"/>
        <pt x="326" y="576" on="1"/>
        <pt x="262" y="576" on="1"/>
        <pt x="250" y="512" on="1"/>
        <pt x="211" y="320" on="1"/>
        <pt x="147" y="320" on="1"/>
        <pt x="186" y="512" on="1"/>
        <pt x="198" y="576" on="1"/>
        <pt x="211" y="640" on="1"/>
      </contour>
      <contour>
        <pt x="314" y="512" on="1"/>
        <pt x="326" y="576" on="1"/>
        <pt x="390" y="576" on="1"/>
        <pt x="378" y="512" on="1"/>
        <pt x="339" y="320" on="1"/>
        <pt x="275" y="320" on="1"/>
      </contour>
    </TTGlyph>
    <TTGlyph name="Nacute" xMin="18" yMin="0" xMax="469" yMax="841">
      <component glyphName="N" x="0" y="0" flags="0x400"/>
      <component glyphName="acutecomb.case" x="0" y="0" flags="0x400"/>
    </TTGlyph>
    <TTGlyph name="Ncaron" xMin="18" yMin="0" xMax="482" yMax="839">
      <component glyphName="N" x="0" y="0" flags="0x400"/>
      <component glyphName="uni030C.case" x="0" y="0" flags="0x400"/>
    </TTGlyph>
    <TTGlyph name="Ntilde" xMin="18" yMin="0" xMax="495" yMax="837">
      <component glyphName="N" x="0" y="0" flags="0x400"/>
      <component glyphName="tildecomb.case" x="0" y="0" flags="0x400"/>
    </TTGlyph>
    <TTGlyph name="Nu" xMin="18" yMin="0" xMax="469" yMax="640">
      <component glyphName="N" x="0" y="0" flags="0x400"/>
    </TTGlyph>
    <TTGlyph name="O" xMin="43" yMin="-10" xMax="445" yMax="650">
      <contour>
        <pt x="43" y="-10" on="0" overlap="1"/>
        <pt x="43" y="173" on="1"/>
        <pt x="43" y="242" on="0"/>
        <pt x="60" y="324" on="1"/>
        <pt x="93" y="489" on="0"/>
        <pt x="214" y="650" on="0"/>
        <pt x="305" y="650" on="1"/>
        <pt x="445" y="650" on="0"/>
        <pt x="445" y="470" on="1"/>
        <pt x="445" y="404" on="0"/>
        <pt x="427" y="314" on="1"/>
        <pt x="394" y="151" on="0"/>
        <pt x="275" y="-10" on="0"/>
        <pt x="182" y="-10" on="1"/>
      </contour>
      <contour>
        <pt x="104" y="214" on="0"/>
        <pt x="104" y="157" on="1"/>
        <pt x="104" y="100" on="0"/>
        <pt x="143" y="47" on="0"/>
        <pt x="184" y="47" on="1"/>
        <pt x="250" y="47" on="0"/>
        <pt x="333" y="176" on="0"/>
        <pt x="363" y="324" on="1"/>
        <pt x="383" y="426" on="0"/>
        <pt x="383" y="483" on="1"/>
        <pt x="383" y="540" on="0"/>
        <pt x="344" y="593" on="0"/>
        <pt x="302" y="593" on="1"/>
        <pt x="237" y="593" on="0"/>
        <pt x="153" y="462" on="0"/>
        <pt x="124" y="314" on="1"/>
      </contour>
    </TTGlyph>
    <TTGlyph name="O.pl" xMin="91" yMin="-71" xMax="379" yMax="265">
      <contour>
        <pt x="148" y="-71" on="0" overlap="1"/>
        <pt x="91" y="-7" on="0"/>
        <pt x="91" y="49" on="1"/>
        <pt x="91" y="75" on="0"/>
        <pt x="97" y="103" on="1"/>
        <pt x="111" y="177" on="0"/>
        <pt x="195" y="265" on="0"/>
        <pt x="263" y="265" on="1"/>
        <pt x="321" y="265" on="0"/>
        <pt x="379" y="200" on="0"/>
        <pt x="379" y="144" on="1"/>
        <pt x="379" y="120" on="0"/>
        <pt x="373" y="91" on="1"/>
        <pt x="359" y="18" on="0"/>
        <pt x="273" y="-71" on="0"/>
        <pt x="206" y="-71" on="1"/>
      </contour>
      <contour>
        <pt x="154" y="61" on="0"/>
        <pt x="154" y="41" on="1"/>
        <pt x="154" y="12" on="0"/>
        <pt x="179" y="-15" on="0"/>
        <pt x="207" y="-15" on="1"/>
        <pt x="248" y="-15" on="0"/>
        <pt x="298" y="43" on="0"/>
        <pt x="310" y="103" on="1"/>
        <pt x="316" y="130" on="0"/>
        <pt x="316" y="151" on="1"/>
        <pt x="316" y="180" on="0"/>
        <pt x="290" y="209" on="0"/>
        <pt x="262" y="209" on="1"/>
        <pt x="220" y="209" on="0"/>
        <pt x="172" y="150" on="0"/>
        <pt x="160" y="91" on="1"/>
      </contour>
    </TTGlyph>
    <TTGlyph name="O.short" xMin="43" yMin="-10" xMax="445" yMax="650">
      <contour>
        <pt x="43" y="-10" on="0" overlap="1"/>
        <pt x="43" y="173" on="1"/>
        <pt x="43" y="242" on="0"/>
        <pt x="60" y="324" on="1"/>
        <pt x="93" y="489" on="0"/>
        <pt x="214" y="650" on="0"/>
        <pt x="305" y="650" on="1"/>
        <pt x="445" y="650" on="0"/>
        <pt x="445" y="470" on="1"/>
        <pt x="445" y="404" on="0"/>
        <pt x="427" y="314" on="1"/>
        <pt x="394" y="151" on="0"/>
        <pt x="275" y="-10" on="0"/>
        <pt x="182" y="-10" on="1"/>
      </contour>
      <contour>
        <pt x="104" y="214" on="0"/>
        <pt x="104" y="157" on="1"/>
        <pt x="104" y="100" on="0"/>
        <pt x="143" y="47" on="0"/>
        <pt x="184" y="47" on="1"/>
        <pt x="250" y="47" on="0"/>
        <pt x="333" y="176" on="0"/>
        <pt x="363" y="324" on="1"/>
        <pt x="383" y="426" on="0"/>
        <pt x="383" y="483" on="1"/>
        <pt x="383" y="540" on="0"/>
        <pt x="344" y="593" on="0"/>
        <pt x="302" y="593" on="1"/>
        <pt x="237" y="593" on="0"/>
        <pt x="153" y="462" on="0"/>
        <pt x="124" y="314" on="1"/>
      </contour>
    </TTGlyph>
    <TTGlyph name="O.sups" xMin="150" yMin="316" xMax="401" yMax="644">
      <contour>
        <pt x="196" y="316" on="0" overlap="1"/>
        <pt x="150" y="375" on="0"/>
        <pt x="150" y="426" on="1"/>
        <pt x="150" y="455" on="0"/>
        <pt x="156" y="486" on="1"/>
        <pt x="170" y="558" on="0"/>
        <pt x="241" y="644" on="0"/>
        <pt x="303" y="644" on="1"/>
        <pt x="353" y="644" on="0"/>
        <pt x="401" y="585" on="0"/>
        <pt x="401" y="534" on="1"/>
        <pt x="401" y="511" on="0"/>
        <pt x="394" y="474" on="1"/>
        <pt x="379" y="403" on="0"/>
        <pt x="307" y="316" on="0"/>
        <pt x="247" y="316" on="1"/>
      </contour>
      <contour>
        <pt x="210" y="434" on="0"/>
        <pt x="210" y="415" on="1"/>
        <pt x="210" y="391" on="0"/>
        <pt x="228" y="372" on="0"/>
        <pt x="248" y="372" on="1"/>
        <pt x="281" y="372" on="0"/>
        <pt x="319" y="423" on="0"/>
        <pt x="332" y="486" on="1"/>
        <pt x="339" y="520" on="0"/>
        <pt x="339" y="544" on="1"/>
        <pt x="339" y="568" on="0"/>
        <pt x="322" y="588" on="0"/>
        <pt x="302" y="588" on="1"/>
        <pt x="269" y="588" on="0"/>
        <pt x="231" y="535" on="0"/>
        <pt x="218" y="474" on="1"/>
      </contour>
    </TTGlyph>
    <TTGlyph name="OE" xMin="3" yMin="0" xMax="519" yMax="640">
      <contour>
        <pt x="66" y="0" on="0" overlap="1"/>
        <pt x="3" y="87" on="0"/>
        <pt x="3" y="172" on="1"/>
        <pt x="3" y="237" on="0"/>
        <pt x="21" y="324" on="1"/>
        <pt x="53" y="484" on="0"/>
        <pt x="166" y="640" on="0"/>
        <pt x="251" y="640" on="1"/>
        <pt x="519" y="640" on="1"/>
        <pt x="507" y="584" on="1"/>
        <pt x="337" y="584" on="1"/>
        <pt x="283" y="316" on="1"/>
        <pt x="414" y="316" on="1"/>
        <pt x="403" y="260" on="1"/>
        <pt x="272" y="260" on="1"/>
        <pt x="231" y="56" on="1"/>
        <pt x="412" y="56" on="1"/>
        <pt x="401" y="0" on="1"/>
        <pt x="128" y="0" on="1"/>
      </contour>
      <contour>
        <pt x="65" y="218" on="0"/>
        <pt x="65" y="156" on="1"/>
        <pt x="65" y="103" on="0"/>
        <pt x="98" y="56" on="0"/>
        <pt x="134" y="56" on="1"/>
        <pt x="169" y="56" on="1"/>
        <pt x="275" y="584" on="1"/>
        <pt x="244" y="584" on="1"/>
        <pt x="189" y="584" on="0"/>
        <pt x="114" y="459" on="0"/>
        <pt x="85" y="314" on="1"/>
      </contour>
    </TTGlyph>
    <TTGlyph name="Oacute" xMin="43" yMin="-10" xMax="455" yMax="841">
      <component glyphName="O" x="0" y="0" flags="0x400"/>
      <component glyphName="acutecomb.case" x="0" y="0" flags="0x400"/>
    </TTGlyph>
    <TTGlyph name="Obreve" xMin="43" yMin="-10" xMax="472" yMax="834">
      <component glyphName="O" x="0" y="0" flags="0x400"/>
      <component glyphName="uni0306.case" x="0" y="0" flags="0x400"/>
    </TTGlyph>
    <TTGlyph name="Ocircumflex" xMin="43" yMin="-10" xMax="452" yMax="841">
      <component glyphName="O" x="0" y="0" flags="0x400"/>
      <component glyphName="uni0302.case" x="0" y="0" flags="0x400"/>
    </TTGlyph>
    <TTGlyph name="Odieresis" xMin="43" yMin="-10" xMax="472" yMax="814">
      <component glyphName="O" x="0" y="0" flags="0x400"/>
      <component glyphName="uni0308.case" x="0" y="0" flags="0x400"/>
    </TTGlyph>
    <TTGlyph name="Ograve" xMin="43" yMin="-10" xMax="445" yMax="835">
      <component glyphName="O" x="0" y="0" flags="0x400"/>
      <component glyphName="gravecomb.case" x="0" y="0" flags="0x400"/>
    </TTGlyph>
    <TTGlyph name="Ohorn" xMin="43" yMin="-10" xMax="512" yMax="768">
      <contour>
        <pt x="43" y="-10" on="0" overlap="1"/>
        <pt x="43" y="173" on="1"/>
        <pt x="43" y="242" on="0"/>
        <pt x="60" y="324" on="1"/>
        <pt x="93" y="490" on="0"/>
        <pt x="213" y="650" on="0"/>
        <pt x="305" y="650" on="1"/>
        <pt x="327" y="650" on="0"/>
        <pt x="353" y="644" on="1"/>
        <pt x="377" y="640" on="0"/>
        <pt x="389" y="640" on="1"/>
        <pt x="437" y="640" on="0"/>
        <pt x="449" y="695" on="1"/>
        <pt x="454" y="720" on="0"/>
        <pt x="454" y="768" on="1"/>
        <pt x="510" y="768" on="1"/>
        <pt x="512" y="744" on="0"/>
        <pt x="512" y="728" on="1"/>
        <pt x="512" y="699" on="0"/>
        <pt x="507" y="678" on="1"/>
        <pt x="499" y="639" on="0"/>
        <pt x="458" y="598" on="0"/>
        <pt x="422" y="589" on="1"/>
        <pt x="444" y="548" on="0"/>
        <pt x="444" y="472" on="1"/>
        <pt x="444" y="400" on="0"/>
        <pt x="427" y="314" on="1"/>
        <pt x="394" y="151" on="0"/>
        <pt x="275" y="-10" on="0"/>
        <pt x="182" y="-10" on="1"/>
      </contour>
      <contour>
        <pt x="104" y="214" on="0"/>
        <pt x="104" y="157" on="1"/>
        <pt x="104" y="100" on="0"/>
        <pt x="143" y="47" on="0"/>
        <pt x="184" y="47" on="1"/>
        <pt x="250" y="47" on="0"/>
        <pt x="333" y="176" on="0"/>
        <pt x="363" y="324" on="1"/>
        <pt x="383" y="426" on="0"/>
        <pt x="383" y="482" on="1"/>
        <pt x="383" y="540" on="0"/>
        <pt x="344" y="593" on="0"/>
        <pt x="302" y="593" on="1"/>
        <pt x="236" y="593" on="0"/>
        <pt x="153" y="463" on="0"/>
        <pt x="124" y="314" on="1"/>
      </contour>
    </TTGlyph>
    <TTGlyph name="Ohorn.short" xMin="39" yMin="-10" xMax="499" yMax="704">
      <contour>
        <pt x="111" y="-10" on="0" overlap="1"/>
        <pt x="39" y="82" on="0"/>
        <pt x="39" y="169" on="1"/>
        <pt x="39" y="220" on="0"/>
        <pt x="53" y="292" on="1"/>
        <pt x="82" y="434" on="0"/>
        <pt x="202" y="586" on="0"/>
        <pt x="292" y="586" on="1"/>
        <pt x="314" y="586" on="0"/>
        <pt x="340" y="580" on="1"/>
        <pt x="364" y="576" on="0"/>
        <pt x="376" y="576" on="1"/>
        <pt x="424" y="576" on="0"/>
        <pt x="436" y="631" on="1"/>
        <pt x="441" y="656" on="0"/>
        <pt x="441" y="704" on="1"/>
        <pt x="497" y="704" on="1"/>
        <pt x="499" y="680" on="0"/>
        <pt x="499" y="664" on="1"/>
        <pt x="499" y="635" on="0"/>
        <pt x="494" y="614" on="1"/>
        <pt x="487" y="575" on="0"/>
        <pt x="445" y="534" on="0"/>
        <pt x="409" y="525" on="1"/>
        <pt x="434" y="481" on="0"/>
        <pt x="434" y="405" on="1"/>
        <pt x="434" y="350" on="0"/>
        <pt x="421" y="282" on="1"/>
        <pt x="361" y="-10" on="0"/>
        <pt x="182" y="-10" on="1"/>
      </contour>
      <contour>
        <pt x="102" y="207" on="0"/>
        <pt x="102" y="156" on="1"/>
        <pt x="102" y="100" on="0"/>
        <pt x="142" y="47" on="0"/>
        <pt x="184" y="47" on="1"/>
        <pt x="249" y="47" on="0"/>
        <pt x="331" y="166" on="0"/>
        <pt x="356" y="292" on="1"/>
        <pt x="372" y="366" on="0"/>
        <pt x="372" y="420" on="1"/>
        <pt x="372" y="475" on="0"/>
        <pt x="332" y="529" on="0"/>
        <pt x="289" y="529" on="1"/>
        <pt x="224" y="529" on="0"/>
        <pt x="142" y="408" on="0"/>
        <pt x="117" y="282" on="1"/>
      </contour>
    </TTGlyph>
    <TTGlyph name="Ohungarumlaut" xMin="43" yMin="-10" xMax="481" yMax="832">
      <component glyphName="O" x="0" y="0" flags="0x400"/>
      <component glyphName="uni030B.case" x="0" y="0" flags="0x400"/>
    </TTGlyph>
    <TTGlyph name="Omacron" xMin="43" yMin="-10" xMax="452" yMax="776">
      <component glyphName="O" x="0" y="0" flags="0x400"/>
      <component glyphName="uni0304.case" x="0" y="0" flags="0x400"/>
    </TTGlyph>
    <TTGlyph name="Omegatonos" xMin="0" yMin="0" xMax="452" yMax="704">
      <component glyphName="uni03A9" x="0" y="0" flags="0x400"/>
      <component glyphName="tonos" x="-256" y="0" flags="0x400"/>
    </TTGlyph>
    <TTGlyph name="Omicron" xMin="43" yMin="-10" xMax="445" yMax="650">
      <component glyphName="O" x="0" y="0" flags="0x400"/>
    </TTGlyph>
    <TTGlyph name="Omicrontonos" xMin="0" yMin="-10" xMax="445" yMax="704">
      <component glyphName="O" x="0" y="0" flags="0x400"/>
      <component glyphName="tonos" x="-256" y="0" flags="0x400"/>
    </TTGlyph>
    <TTGlyph name="Oslash" xMin="-4" yMin="-12" xMax="490" yMax="653">
      <component glyphName="O" x="0" y="0" flags="0x400"/>
      <component glyphName="slash.O" x="0" y="0" flags="0x400"/>
    </TTGlyph>
    <TTGlyph name="Oslashacute" xMin="-4" yMin="-12" xMax="490" yMax="841">
      <component glyphName="Oslash" x="0" y="0" flags="0x400"/>
      <component glyphName="acutecomb.case" x="0" y="0" flags="0x400"/>
    </TTGlyph>
    <TTGlyph name="Otilde" xMin="43" yMin="-10" xMax="495" yMax="837">
      <component glyphName="O" x="0" y="0" flags="0x400"/>
      <component glyphName="tildecomb.case" x="0" y="0" flags="0x400"/>
    </TTGlyph>
    <TTGlyph name="P" xMin="18" yMin="0" xMax="443" yMax="640">
      <contour>
        <pt x="146" y="640" on="1" overlap="1"/>
        <pt x="295" y="640" on="1"/>
        <pt x="364" y="640" on="0"/>
        <pt x="443" y="556" on="0"/>
        <pt x="443" y="480" on="1"/>
        <pt x="443" y="446" on="0"/>
        <pt x="436" y="411" on="1"/>
        <pt x="415" y="306" on="0"/>
        <pt x="295" y="196" on="0"/>
        <pt x="211" y="196" on="1"/>
        <pt x="119" y="196" on="1"/>
        <pt x="80" y="0" on="1"/>
        <pt x="18" y="0" on="1"/>
      </contour>
      <contour>
        <pt x="213" y="252" on="1"/>
        <pt x="281" y="252" on="0"/>
        <pt x="356" y="340" on="0"/>
        <pt x="372" y="421" on="1"/>
        <pt x="380" y="459" on="0"/>
        <pt x="380" y="488" on="1"/>
        <pt x="380" y="535" on="0"/>
        <pt x="334" y="584" on="0"/>
        <pt x="283" y="584" on="1"/>
        <pt x="196" y="584" on="1"/>
        <pt x="130" y="252" on="1"/>
      </contour>
    </TTGlyph>
    <TTGlyph name="P.sups" xMin="147" yMin="320" xMax="399" yMax="640">
      <contour>
        <pt x="211" y="640" on="1" overlap="1"/>
        <pt x="309" y="640" on="1"/>
        <pt x="350" y="640" on="0"/>
        <pt x="399" y="598" on="0"/>
        <pt x="399" y="561" on="1"/>
        <pt x="399" y="546" on="0"/>
        <pt x="397" y="538" on="1"/>
        <pt x="388" y="495" on="0"/>
        <pt x="325" y="448" on="0"/>
        <pt x="278" y="448" on="1"/>
        <pt x="237" y="448" on="1"/>
        <pt x="211" y="320" on="1"/>
        <pt x="147" y="320" on="1"/>
      </contour>
      <contour>
        <pt x="280" y="503" on="1"/>
        <pt x="302" y="503" on="0"/>
        <pt x="327" y="529" on="0"/>
        <pt x="331" y="550" on="1"/>
        <pt x="332" y="554" on="0"/>
        <pt x="332" y="561" on="1"/>
        <pt x="332" y="585" on="0"/>
        <pt x="301" y="585" on="1"/>
        <pt x="264" y="585" on="1"/>
        <pt x="247" y="503" on="1"/>
      </contour>
    </TTGlyph>
    <TTGlyph name="Phi" xMin="45" yMin="0" xMax="442" yMax="640">
      <component glyphName="uni0424" x="0" y="0" flags="0x400"/>
    </TTGlyph>
    <TTGlyph name="Pi" xMin="18" yMin="0" xMax="469" yMax="640">
      <component glyphName="uni041F" x="0" y="0" flags="0x400"/>
    </TTGlyph>
    <TTGlyph name="Psi" xMin="83" yMin="0" xMax="467" yMax="640">
      <contour>
        <pt x="198" y="256" on="1" overlap="1"/>
        <pt x="134" y="256" on="1"/>
        <pt x="147" y="320" on="1"/>
        <pt x="211" y="320" on="1"/>
        <pt x="250" y="512" on="1"/>
        <pt x="262" y="576" on="1"/>
        <pt x="275" y="640" on="1"/>
        <pt x="339" y="640" on="1"/>
        <pt x="326" y="576" on="1"/>
        <pt x="314" y="512" on="1"/>
        <pt x="275" y="320" on="1"/>
        <pt x="339" y="320" on="1"/>
        <pt x="326" y="256" on="1"/>
        <pt x="262" y="256" on="1"/>
        <pt x="250" y="192" on="1"/>
        <pt x="211" y="0" on="1"/>
        <pt x="147" y="0" on="1"/>
        <pt x="186" y="192" on="1"/>
      </contour>
      <contour>
        <pt x="122" y="512" on="1"/>
        <pt x="134" y="576" on="1"/>
        <pt x="147" y="640" on="1"/>
        <pt x="211" y="640" on="1"/>
        <pt x="198" y="576" on="1"/>
        <pt x="186" y="512" on="1"/>
        <pt x="147" y="320" on="1"/>
        <pt x="83" y="320" on="1"/>
      </contour>
      <contour>
        <pt x="378" y="512" on="1"/>
        <pt x="390" y="576" on="1"/>
        <pt x="403" y="640" on="1"/>
        <pt x="467" y="640" on="1"/>
        <pt x="454" y="576" on="1"/>
        <pt x="442" y="512" on="1"/>
        <pt x="403" y="320" on="1"/>
        <pt x="339" y="320" on="1"/>
      </contour>
    </TTGlyph>
    <TTGlyph name="Q" xMin="43" yMin="-138" xMax="445" yMax="650">
      <contour>
        <pt x="255" y="-134" on="0" overlap="1"/>
        <pt x="170" y="-73" on="0"/>
        <pt x="169" y="-10" on="1"/>
        <pt x="43" y="-1" on="0"/>
        <pt x="43" y="173" on="1"/>
        <pt x="43" y="234" on="0"/>
        <pt x="60" y="324" on="1"/>
        <pt x="93" y="489" on="0"/>
        <pt x="214" y="650" on="0"/>
        <pt x="305" y="650" on="1"/>
        <pt x="445" y="650" on="0"/>
        <pt x="445" y="470" on="1"/>
        <pt x="445" y="404" on="0"/>
        <pt x="427" y="314" on="1"/>
        <pt x="399" y="173" on="0"/>
        <pt x="302" y="15" on="0"/>
        <pt x="230" y="-4" on="1"/>
        <pt x="229" y="-34" on="0"/>
        <pt x="251" y="-65" on="0"/>
        <pt x="301" y="-78" on="0"/>
        <pt x="348" y="-80" on="1"/>
        <pt x="334" y="-138" on="1"/>
      </contour>
      <contour>
        <pt x="104" y="214" on="0"/>
        <pt x="104" y="157" on="1"/>
        <pt x="104" y="100" on="0"/>
        <pt x="143" y="47" on="0"/>
        <pt x="184" y="47" on="1"/>
        <pt x="250" y="47" on="0"/>
        <pt x="333" y="176" on="0"/>
        <pt x="363" y="324" on="1"/>
        <pt x="383" y="426" on="0"/>
        <pt x="383" y="483" on="1"/>
        <pt x="383" y="540" on="0"/>
        <pt x="344" y="593" on="0"/>
        <pt x="302" y="593" on="1"/>
        <pt x="237" y="593" on="0"/>
        <pt x="153" y="462" on="0"/>
        <pt x="124" y="314" on="1"/>
      </contour>
    </TTGlyph>
    <TTGlyph name="Q.sups" xMin="147" yMin="256" xMax="403" yMax="640">
      <contour>
        <pt x="403" y="640" on="1" overlap="1"/>
        <pt x="390" y="576" on="1"/>
        <pt x="378" y="512" on="1"/>
        <pt x="339" y="320" on="1"/>
        <pt x="275" y="320" on="1"/>
        <pt x="262" y="256" on="1"/>
        <pt x="198" y="256" on="1"/>
        <pt x="211" y="320" on="1"/>
        <pt x="147" y="320" on="1"/>
        <pt x="186" y="512" on="1"/>
        <pt x="198" y="576" on="1"/>
        <pt x="211" y="640" on="1"/>
      </contour>
      <contour>
        <pt x="288" y="384" on="1"/>
        <pt x="314" y="512" on="1"/>
        <pt x="326" y="576" on="1"/>
        <pt x="262" y="576" on="1"/>
        <pt x="250" y="512" on="1"/>
        <pt x="224" y="384" on="1"/>
      </contour>
    </TTGlyph>
    <TTGlyph name="R" xMin="18" yMin="0" xMax="447" yMax="640">
      <contour>
        <pt x="367" y="640" on="0" overlap="1"/>
        <pt x="447" y="563" on="0"/>
        <pt x="447" y="494" on="1"/>
        <pt x="447" y="467" on="0"/>
        <pt x="441" y="437" on="1"/>
        <pt x="425" y="356" on="0"/>
        <pt x="332" y="264" on="0"/>
        <pt x="262" y="255" on="1"/>
        <pt x="313" y="232" on="0"/>
        <pt x="366" y="124" on="0"/>
        <pt x="366" y="48" on="1"/>
        <pt x="366" y="26" on="0"/>
        <pt x="363" y="0" on="1"/>
        <pt x="301" y="0" on="1"/>
        <pt x="303" y="34" on="0"/>
        <pt x="303" y="47" on="1"/>
        <pt x="303" y="124" on="0"/>
        <pt x="250" y="216" on="0"/>
        <pt x="191" y="245" on="1"/>
        <pt x="128" y="245" on="1"/>
        <pt x="80" y="0" on="1"/>
        <pt x="18" y="0" on="1"/>
        <pt x="146" y="640" on="1"/>
        <pt x="296" y="640" on="1"/>
      </contour>
      <contour>
        <pt x="224" y="301" on="1"/>
        <pt x="292" y="301" on="0"/>
        <pt x="363" y="377" on="0"/>
        <pt x="377" y="447" on="1"/>
        <pt x="383" y="476" on="0"/>
        <pt x="383" y="500" on="1"/>
        <pt x="383" y="541" on="0"/>
        <pt x="338" y="584" on="0"/>
        <pt x="285" y="584" on="1"/>
        <pt x="196" y="584" on="1"/>
        <pt x="140" y="301" on="1"/>
      </contour>
    </TTGlyph>
    <TTGlyph name="R.sups" xMin="147" yMin="320" xMax="403" yMax="640">
      <contour>
        <pt x="403" y="640" on="1" overlap="1"/>
        <pt x="390" y="576" on="1"/>
        <pt x="378" y="512" on="1"/>
        <pt x="314" y="512" on="1"/>
        <pt x="326" y="576" on="1"/>
        <pt x="262" y="576" on="1"/>
        <pt x="250" y="512" on="1"/>
        <pt x="314" y="512" on="1"/>
        <pt x="301" y="448" on="1"/>
        <pt x="237" y="448" on="1"/>
        <pt x="211" y="320" on="1"/>
        <pt x="147" y="320" on="1"/>
        <pt x="186" y="512" on="1"/>
        <pt x="198" y="576" on="1"/>
        <pt x="211" y="640" on="1"/>
      </contour>
      <contour>
        <pt x="301" y="448" on="1"/>
        <pt x="365" y="448" on="1"/>
        <pt x="339" y="320" on="1"/>
        <pt x="275" y="320" on="1"/>
      </contour>
    </TTGlyph>
    <TTGlyph name="Racute" xMin="18" yMin="0" xMax="447" yMax="841">
      <component glyphName="R" x="0" y="0" flags="0x400"/>
      <component glyphName="acutecomb.case" x="-16" y="0" flags="0x400"/>
    </TTGlyph>
    <TTGlyph name="Rcaron" xMin="18" yMin="0" xMax="466" yMax="839">
      <component glyphName="R" x="0" y="0" flags="0x400"/>
      <component glyphName="uni030C.case" x="-16" y="0" flags="0x400"/>
    </TTGlyph>
    <TTGlyph name="Rho" xMin="18" yMin="0" xMax="443" yMax="640">
      <component glyphName="P" x="0" y="0" flags="0x400"/>
    </TTGlyph>
    <TTGlyph name="S" xMin="17" yMin="-8" xMax="449" yMax="648">
      <contour>
        <pt x="78" y="-8" on="0" overlap="1"/>
        <pt x="17" y="23" on="1"/>
        <pt x="36" y="70" on="1"/>
        <pt x="96" y="48" on="0"/>
        <pt x="161" y="48" on="1"/>
        <pt x="236" y="48" on="0"/>
        <pt x="311" y="106" on="0"/>
        <pt x="311" y="155" on="1"/>
        <pt x="311" y="194" on="0"/>
        <pt x="267" y="242" on="0"/>
        <pt x="222" y="272" on="1"/>
        <pt x="185" y="296" on="0"/>
        <pt x="139" y="336" on="0"/>
        <pt x="107" y="398" on="0"/>
        <pt x="107" y="443" on="1"/>
        <pt x="107" y="537" on="0"/>
        <pt x="223" y="648" on="0"/>
        <pt x="334" y="648" on="1"/>
        <pt x="394" y="648" on="0"/>
        <pt x="449" y="629" on="1"/>
        <pt x="434" y="580" on="1"/>
        <pt x="384" y="592" on="0"/>
        <pt x="334" y="592" on="1"/>
        <pt x="252" y="592" on="0"/>
        <pt x="170" y="519" on="0"/>
        <pt x="170" y="448" on="1"/>
        <pt x="170" y="416" on="0"/>
        <pt x="196" y="370" on="0"/>
        <pt x="233" y="339" on="0"/>
        <pt x="266" y="318" on="1"/>
        <pt x="302" y="295" on="0"/>
        <pt x="344" y="259" on="0"/>
        <pt x="374" y="202" on="0"/>
        <pt x="374" y="161" on="1"/>
        <pt x="374" y="84" on="0"/>
        <pt x="264" y="-8" on="0"/>
        <pt x="161" y="-8" on="1"/>
      </contour>
    </TTGlyph>
    <TTGlyph name="S.sups" xMin="148" yMin="316" xMax="395" yMax="644">
      <contour>
        <pt x="196" y="316" on="0" overlap="1"/>
        <pt x="148" y="327" on="1"/>
        <pt x="162" y="377" on="1"/>
        <pt x="213" y="370" on="0"/>
        <pt x="233" y="370" on="1"/>
        <pt x="264" y="370" on="0"/>
        <pt x="295" y="400" on="0"/>
        <pt x="295" y="427" on="1"/>
        <pt x="295" y="438" on="0"/>
        <pt x="281" y="449" on="0"/>
        <pt x="257" y="458" on="0"/>
        <pt x="252" y="460" on="1"/>
        <pt x="222" y="470" on="0"/>
        <pt x="191" y="503" on="0"/>
        <pt x="191" y="530" on="1"/>
        <pt x="191" y="542" on="0"/>
        <pt x="194" y="555" on="1"/>
        <pt x="213" y="644" on="0"/>
        <pt x="314" y="644" on="1"/>
        <pt x="353" y="644" on="0"/>
        <pt x="395" y="633" on="1"/>
        <pt x="379" y="583" on="1"/>
        <pt x="341" y="590" on="0"/>
        <pt x="316" y="590" on="1"/>
        <pt x="292" y="590" on="0"/>
        <pt x="260" y="568" on="0"/>
        <pt x="256" y="547" on="1"/>
        <pt x="255" y="544" on="0"/>
        <pt x="255" y="538" on="1"/>
        <pt x="255" y="528" on="0"/>
        <pt x="267" y="518" on="0"/>
        <pt x="287" y="510" on="0"/>
        <pt x="293" y="508" on="1"/>
        <pt x="326" y="498" on="0"/>
        <pt x="360" y="466" on="0"/>
        <pt x="360" y="437" on="1"/>
        <pt x="360" y="429" on="0"/>
        <pt x="356" y="407" on="1"/>
        <pt x="348" y="363" on="0"/>
        <pt x="288" y="316" on="0"/>
        <pt x="237" y="316" on="1"/>
      </contour>
    </TTGlyph>
    <TTGlyph name="Sacute" xMin="17" yMin="-8" xMax="455" yMax="841">
      <component glyphName="S" x="0" y="0" flags="0x400"/>
      <component glyphName="acutecomb.case" x="0" y="0" flags="0x400"/>
    </TTGlyph>
    <TTGlyph name="Scaron" xMin="17" yMin="-8" xMax="482" yMax="839">
      <component glyphName="S" x="0" y="0" flags="0x400"/>
      <component glyphName="uni030C.case" x="0" y="0" flags="0x400"/>
    </TTGlyph>
    <TTGlyph name="Scedilla" xMin="17" yMin="-192" xMax="449" yMax="648">
      <component glyphName="S" x="0" y="0" flags="0x400"/>
      <component glyphName="uni0327" x="12" y="0" flags="0x400"/>
    </TTGlyph>
    <TTGlyph name="Scircumflex" xMin="17" yMin="-8" xMax="452" yMax="841">
      <component glyphName="S" x="0" y="0" flags="0x400"/>
      <component glyphName="uni0302.case" x="0" y="0" flags="0x400"/>
    </TTGlyph>
    <TTGlyph name="Sigma" xMin="13" yMin="0" xMax="469" yMax="640">
      <contour>
        <pt x="210" y="320" on="1" overlap="1"/>
        <pt x="212" y="320" on="1"/>
        <pt x="144" y="594" on="1"/>
        <pt x="153" y="640" on="1"/>
        <pt x="469" y="640" on="1"/>
        <pt x="457" y="584" on="1"/>
        <pt x="212" y="584" on="1"/>
        <pt x="278" y="320" on="1"/>
        <pt x="280" y="320" on="1"/>
        <pt x="97" y="56" on="1"/>
        <pt x="352" y="56" on="1"/>
        <pt x="341" y="0" on="1"/>
        <pt x="13" y="0" on="1"/>
        <pt x="22" y="46" on="1"/>
        <pt x="21" y="46" on="1"/>
      </contour>
    </TTGlyph>
    <TTGlyph name="T" xMin="121" yMin="0" xMax="482" yMax="640">
      <contour>
        <pt x="327" y="584" on="1" overlap="1"/>
        <pt x="210" y="0" on="1"/>
        <pt x="148" y="0" on="1"/>
        <pt x="264" y="584" on="1"/>
        <pt x="121" y="584" on="1"/>
        <pt x="132" y="640" on="1"/>
        <pt x="482" y="640" on="1"/>
        <pt x="471" y="584" on="1"/>
      </contour>
    </TTGlyph>
    <TTGlyph name="T.sups" xMin="192" yMin="320" xMax="411" yMax="640">
      <contour>
        <pt x="400" y="584" on="1" overlap="1"/>
        <pt x="328" y="584" on="1"/>
        <pt x="275" y="320" on="1"/>
        <pt x="211" y="320" on="1"/>
        <pt x="264" y="584" on="1"/>
        <pt x="192" y="584" on="1"/>
        <pt x="203" y="640" on="1"/>
        <pt x="411" y="640" on="1"/>
      </contour>
    </TTGlyph>
    <TTGlyph name="Tau" xMin="121" yMin="0" xMax="482" yMax="640">
      <component glyphName="T" x="0" y="0" flags="0x400"/>
    </TTGlyph>
    <TTGlyph name="Tbar" xMin="87" yMin="0" xMax="482" yMax="640">
      <contour>
        <pt x="262" y="260" on="1" overlap="1"/>
        <pt x="210" y="0" on="1"/>
        <pt x="148" y="0" on="1"/>
        <pt x="200" y="260" on="1"/>
        <pt x="87" y="260" on="1"/>
        <pt x="87" y="316" on="1"/>
        <pt x="211" y="316" on="1"/>
        <pt x="264" y="584" on="1"/>
        <pt x="121" y="584" on="1"/>
        <pt x="132" y="640" on="1"/>
        <pt x="482" y="640" on="1"/>
        <pt x="471" y="584" on="1"/>
        <pt x="327" y="584" on="1"/>
        <pt x="273" y="316" on="1"/>
        <pt x="362" y="316" on="1"/>
        <pt x="362" y="260" on="1"/>
      </contour>
    </TTGlyph>
    <TTGlyph name="Tcaron" xMin="121" yMin="0" xMax="482" yMax="839">
      <component glyphName="T" x="0" y="0" flags="0x400"/>
      <component glyphName="uni030C.case" x="0" y="0" flags="0x400"/>
    </TTGlyph>
    <TTGlyph name="Theta" xMin="43" yMin="-10" xMax="445" yMax="650">
      <contour>
        <pt x="43" y="-10" on="0" overlap="1"/>
        <pt x="43" y="173" on="1"/>
        <pt x="43" y="242" on="0"/>
        <pt x="60" y="324" on="1"/>
        <pt x="93" y="489" on="0"/>
        <pt x="214" y="650" on="0"/>
        <pt x="305" y="650" on="1"/>
        <pt x="445" y="650" on="0"/>
        <pt x="445" y="470" on="1"/>
        <pt x="445" y="404" on="0"/>
        <pt x="427" y="314" on="1"/>
        <pt x="394" y="151" on="0"/>
        <pt x="275" y="-10" on="0"/>
        <pt x="182" y="-10" on="1"/>
      </contour>
      <contour>
        <pt x="104" y="201" on="0"/>
        <pt x="104" y="157" on="1"/>
        <pt x="104" y="100" on="0"/>
        <pt x="143" y="47" on="0"/>
        <pt x="184" y="47" on="1"/>
        <pt x="242" y="47" on="0"/>
        <pt x="320" y="147" on="0"/>
        <pt x="348" y="258" on="1"/>
        <pt x="114" y="258" on="1"/>
      </contour>
      <contour>
        <pt x="362" y="318" on="1"/>
        <pt x="363" y="324" on="1"/>
        <pt x="383" y="426" on="0"/>
        <pt x="383" y="483" on="1"/>
        <pt x="383" y="540" on="0"/>
        <pt x="344" y="593" on="0"/>
        <pt x="302" y="593" on="1"/>
        <pt x="237" y="593" on="0"/>
        <pt x="154" y="464" on="0"/>
        <pt x="125" y="318" on="1"/>
      </contour>
    </TTGlyph>
    <TTGlyph name="Thorn" xMin="18" yMin="0" xMax="422" yMax="640">
      <contour>
        <pt x="341" y="508" on="0" overlap="1"/>
        <pt x="422" y="433" on="0"/>
        <pt x="422" y="364" on="1"/>
        <pt x="422" y="343" on="0"/>
        <pt x="417" y="313" on="1"/>
        <pt x="399" y="224" on="0"/>
        <pt x="283" y="132" on="0"/>
        <pt x="198" y="132" on="1"/>
        <pt x="106" y="132" on="1"/>
        <pt x="80" y="0" on="1"/>
        <pt x="18" y="0" on="1"/>
        <pt x="146" y="640" on="1"/>
        <pt x="208" y="640" on="1"/>
        <pt x="182" y="508" on="1"/>
        <pt x="268" y="508" on="1"/>
      </contour>
      <contour>
        <pt x="199" y="188" on="1"/>
        <pt x="269" y="188" on="0"/>
        <pt x="341" y="258" on="0"/>
        <pt x="355" y="323" on="1"/>
        <pt x="360" y="350" on="0"/>
        <pt x="360" y="368" on="1"/>
        <pt x="360" y="409" on="0"/>
        <pt x="312" y="452" on="0"/>
        <pt x="256" y="452" on="1"/>
        <pt x="170" y="452" on="1"/>
        <pt x="118" y="188" on="1"/>
      </contour>
    </TTGlyph>
    <TTGlyph name="U" xMin="46" yMin="-8" xMax="469" yMax="640">
      <contour>
        <pt x="208" y="640" on="1" overlap="1"/>
        <pt x="112" y="163" on="1"/>
        <pt x="106" y="136" on="0"/>
        <pt x="106" y="114" on="1"/>
        <pt x="106" y="81" on="0"/>
        <pt x="142" y="48" on="0"/>
        <pt x="184" y="48" on="1"/>
        <pt x="241" y="48" on="0"/>
        <pt x="302" y="111" on="0"/>
        <pt x="313" y="168" on="1"/>
        <pt x="407" y="640" on="1"/>
        <pt x="469" y="640" on="1"/>
        <pt x="374" y="167" on="1"/>
        <pt x="356" y="76" on="0"/>
        <pt x="255" y="-8" on="0"/>
        <pt x="182" y="-8" on="1"/>
        <pt x="118" y="-8" on="0"/>
        <pt x="46" y="54" on="0"/>
        <pt x="46" y="117" on="1"/>
        <pt x="46" y="141" on="0"/>
        <pt x="52" y="171" on="1"/>
        <pt x="146" y="640" on="1"/>
      </contour>
    </TTGlyph>
    <TTGlyph name="U.short" xMin="46" yMin="-8" xMax="456" yMax="576">
      <contour>
        <pt x="195" y="576" on="1" overlap="1"/>
        <pt x="112" y="163" on="1"/>
        <pt x="106" y="136" on="0"/>
        <pt x="106" y="114" on="1"/>
        <pt x="106" y="81" on="0"/>
        <pt x="142" y="48" on="0"/>
        <pt x="184" y="48" on="1"/>
        <pt x="241" y="48" on="0"/>
        <pt x="302" y="111" on="0"/>
        <pt x="313" y="168" on="1"/>
        <pt x="394" y="576" on="1"/>
        <pt x="456" y="576" on="1"/>
        <pt x="374" y="167" on="1"/>
        <pt x="356" y="76" on="0"/>
        <pt x="255" y="-8" on="0"/>
        <pt x="182" y="-8" on="1"/>
        <pt x="118" y="-8" on="0"/>
        <pt x="46" y="54" on="0"/>
        <pt x="46" y="117" on="1"/>
        <pt x="46" y="141" on="0"/>
        <pt x="52" y="171" on="1"/>
        <pt x="133" y="576" on="1"/>
      </contour>
    </TTGlyph>
    <TTGlyph name="U.sups" xMin="160" yMin="320" xMax="403" yMax="640">
      <contour>
        <pt x="275" y="640" on="1" overlap="1"/>
        <pt x="262" y="576" on="1"/>
        <pt x="250" y="512" on="1"/>
        <pt x="224" y="384" on="1"/>
        <pt x="160" y="384" on="1"/>
        <pt x="186" y="512" on="1"/>
        <pt x="198" y="576" on="1"/>
        <pt x="211" y="640" on="1"/>
      </contour>
      <contour>
        <pt x="224" y="384" on="1"/>
        <pt x="288" y="384" on="1"/>
        <pt x="314" y="512" on="1"/>
        <pt x="326" y="576" on="1"/>
        <pt x="339" y="640" on="1"/>
        <pt x="403" y="640" on="1"/>
        <pt x="390" y="576" on="1"/>
        <pt x="378" y="512" on="1"/>
        <pt x="339" y="320" on="1"/>
        <pt x="211" y="320" on="1"/>
      </contour>
    </TTGlyph>
    <TTGlyph name="Uacute" xMin="46" yMin="-8" xMax="469" yMax="841">
      <component glyphName="U" x="0" y="0" flags="0x400"/>
      <component glyphName="acutecomb.case" x="0" y="0" flags="0x400"/>
    </TTGlyph>
    <TTGlyph name="Ubreve" xMin="46" yMin="-8" xMax="472" yMax="834">
      <component glyphName="U" x="0" y="0" flags="0x400"/>
      <component glyphName="uni0306.case" x="0" y="0" flags="0x400"/>
    </TTGlyph>
    <TTGlyph name="Ucircumflex" xMin="46" yMin="-8" xMax="469" yMax="841">
      <component glyphName="U" x="0" y="0" flags="0x400"/>
      <component glyphName="uni0302.case" x="0" y="0" flags="0x400"/>
    </TTGlyph>
    <TTGlyph name="Udieresis" xMin="46" yMin="-8" xMax="472" yMax="814">
      <component glyphName="U" x="0" y="0" flags="0x400"/>
      <component glyphName="uni0308.case" x="0" y="0" flags="0x400"/>
    </TTGlyph>
    <TTGlyph name="Ugrave" xMin="46" yMin="-8" xMax="469" yMax="835">
      <component glyphName="U" x="0" y="0" flags="0x400"/>
      <component glyphName="gravecomb.case" x="0" y="0" flags="0x400"/>
    </TTGlyph>
    <TTGlyph name="Uhorn" xMin="46" yMin="-8" xMax="548" yMax="768">
      <component glyphName="U" x="0" y="0" flags="0x400"/>
      <component glyphName="uni031B.case" x="0" y="0" flags="0x400"/>
    </TTGlyph>
    <TTGlyph name="Uhorn.short" xMin="46" yMin="-8" xMax="535" yMax="704">
      <component glyphName="U.short" x="0" y="0" flags="0x400"/>
      <component glyphName="uni031B.case" x="-13" y="-64" flags="0x404"/>
    </TTGlyph>
    <TTGlyph name="Uhungarumlaut" xMin="46" yMin="-8" xMax="481" yMax="832">
      <component glyphName="U" x="0" y="0" flags="0x400"/>
      <component glyphName="uni030B.case" x="0" y="0" flags="0x400"/>
    </TTGlyph>
    <TTGlyph name="Umacron" xMin="46" yMin="-8" xMax="469" yMax="776">
      <component glyphName="U" x="0" y="0" flags="0x400"/>
      <component glyphName="uni0304.case" x="0" y="0" flags="0x400"/>
    </TTGlyph>
    <TTGlyph name="Uogonek" xMin="46" yMin="-197" xMax="469" yMax="640">
      <component glyphName="U" x="0" y="0" flags="0x400"/>
      <component glyphName="uni0328" x="-99" y="0" flags="0x400"/>
    </TTGlyph>
    <TTGlyph name="Upsilon" xMin="118" yMin="0" xMax="494" yMax="640">
      <component glyphName="Y" x="0" y="0" flags="0x400"/>
    </TTGlyph>
    <TTGlyph name="Upsilondieresis" xMin="118" yMin="0" xMax="494" yMax="814">
      <component glyphName="Y" x="0" y="0" flags="0x400"/>
      <component glyphName="uni0308.case" x="0" y="0" flags="0x400"/>
    </TTGlyph>
    <TTGlyph name="Upsilontonos" xMin="0" yMin="0" xMax="494" yMax="704">
      <component glyphName="Y" x="0" y="0" flags="0x400"/>
      <component glyphName="tonos" x="-256" y="0" flags="0x400"/>
    </TTGlyph>
    <TTGlyph name="Uring" xMin="46" yMin="-8" xMax="456" yMax="821">
      <component glyphName="U.short" x="0" y="0" flags="0x400"/>
      <component glyphName="uni030A.case" x="0" y="0" flags="0x400"/>
    </TTGlyph>
    <TTGlyph name="Utilde" xMin="46" yMin="-8" xMax="495" yMax="837">
      <component glyphName="U" x="0" y="0" flags="0x400"/>
      <component glyphName="tildecomb.case" x="0" y="0" flags="0x400"/>
    </TTGlyph>
    <TTGlyph name="V" xMin="105" yMin="-3" xMax="494" yMax="640">
      <contour>
        <pt x="105" y="153" on="0" overlap="1"/>
        <pt x="105" y="376" on="1"/>
        <pt x="105" y="501" on="0"/>
        <pt x="122" y="640" on="1"/>
        <pt x="186" y="640" on="1"/>
        <pt x="170" y="492" on="0"/>
        <pt x="170" y="357" on="1"/>
        <pt x="170" y="198" on="0"/>
        <pt x="193" y="78" on="1"/>
        <pt x="258" y="183" on="0"/>
        <pt x="378" y="470" on="0"/>
        <pt x="428" y="640" on="1"/>
        <pt x="494" y="640" on="1"/>
        <pt x="441" y="453" on="0"/>
        <pt x="294" y="119" on="0"/>
        <pt x="207" y="-3" on="1"/>
        <pt x="154" y="-3" on="1"/>
      </contour>
    </TTGlyph>
    <TTGlyph name="V.sups" xMin="188" yMin="317" xMax="424" yMax="643">
      <contour>
        <pt x="247" y="586" on="0" overlap="1"/>
        <pt x="247" y="535" on="1"/>
        <pt x="247" y="453" on="0"/>
        <pt x="254" y="383" on="1"/>
        <pt x="325" y="525" on="0"/>
        <pt x="363" y="643" on="1"/>
        <pt x="424" y="637" on="1"/>
        <pt x="371" y="475" on="0"/>
        <pt x="272" y="317" on="1"/>
        <pt x="217" y="323" on="1"/>
        <pt x="188" y="454" on="0"/>
        <pt x="188" y="581" on="1"/>
        <pt x="188" y="601" on="0"/>
        <pt x="190" y="643" on="1"/>
        <pt x="250" y="637" on="1"/>
      </contour>
    </TTGlyph>
    <TTGlyph name="W" xMin="68" yMin="0" xMax="489" yMax="640">
      <contour>
        <pt x="68" y="59" on="0" overlap="1"/>
        <pt x="68" y="114" on="1"/>
        <pt x="68" y="234" on="0"/>
        <pt x="96" y="482" on="0"/>
        <pt x="126" y="640" on="1"/>
        <pt x="189" y="640" on="1"/>
        <pt x="154" y="465" on="0"/>
        <pt x="121" y="206" on="0"/>
        <pt x="118" y="74" on="1"/>
        <pt x="163" y="175" on="0"/>
        <pt x="223" y="355" on="0"/>
        <pt x="241" y="448" on="1"/>
        <pt x="297" y="448" on="1"/>
        <pt x="267" y="304" on="0"/>
        <pt x="267" y="153" on="1"/>
        <pt x="267" y="128" on="0"/>
        <pt x="269" y="74" on="1"/>
        <pt x="318" y="205" on="0"/>
        <pt x="389" y="463" on="0"/>
        <pt x="427" y="640" on="1"/>
        <pt x="489" y="640" on="1"/>
        <pt x="448" y="444" on="0"/>
        <pt x="358" y="152" on="0"/>
        <pt x="289" y="0" on="1"/>
        <pt x="233" y="0" on="1"/>
        <pt x="224" y="66" on="0"/>
        <pt x="224" y="132" on="1"/>
        <pt x="224" y="194" on="0"/>
        <pt x="231" y="254" on="1"/>
        <pt x="194" y="121" on="0"/>
        <pt x="130" y="0" on="1"/>
        <pt x="71" y="0" on="1"/>
      </contour>
    </TTGlyph>
    <TTGlyph name="W.sups" xMin="147" yMin="320" xMax="403" yMax="640">
      <contour>
        <pt x="275" y="640" on="1" overlap="1"/>
        <pt x="262" y="576" on="1"/>
        <pt x="326" y="576" on="1"/>
        <pt x="339" y="640" on="1"/>
        <pt x="403" y="640" on="1"/>
        <pt x="390" y="576" on="1"/>
        <pt x="378" y="512" on="1"/>
        <pt x="339" y="320" on="1"/>
        <pt x="147" y="320" on="1"/>
        <pt x="186" y="512" on="1"/>
        <pt x="198" y="576" on="1"/>
        <pt x="211" y="640" on="1"/>
      </contour>
    </TTGlyph>
    <TTGlyph name="Wacute" xMin="68" yMin="0" xMax="489" yMax="841">
      <component glyphName="W" x="0" y="0" flags="0x400"/>
      <component glyphName="acutecomb.case" x="0" y="0" flags="0x400"/>
    </TTGlyph>
    <TTGlyph name="Wcircumflex" xMin="68" yMin="0" xMax="489" yMax="841">
      <component glyphName="W" x="0" y="0" flags="0x400"/>
      <component glyphName="uni0302.case" x="0" y="0" flags="0x400"/>
    </TTGlyph>
    <TTGlyph name="Wdieresis" xMin="68" yMin="0" xMax="489" yMax="814">
      <component glyphName="W" x="0" y="0" flags="0x400"/>
      <component glyphName="uni0308.case" x="0" y="0" flags="0x400"/>
    </TTGlyph>
    <TTGlyph name="Wgrave" xMin="68" yMin="0" xMax="489" yMax="835">
      <component glyphName="W" x="0" y="0" flags="0x400"/>
      <component glyphName="gravecomb.case" x="0" y="0" flags="0x400"/>
    </TTGlyph>
    <TTGlyph name="X" xMin="4" yMin="0" xMax="473" yMax="640">
      <contour>
        <pt x="41" y="98" on="0" overlap="1"/>
        <pt x="125" y="232" on="0"/>
        <pt x="196" y="304" on="1"/>
        <pt x="164" y="353" on="0"/>
        <pt x="136" y="456" on="0"/>
        <pt x="136" y="524" on="1"/>
        <pt x="136" y="578" on="0"/>
        <pt x="143" y="640" on="1"/>
        <pt x="204" y="640" on="1"/>
        <pt x="196" y="563" on="0"/>
        <pt x="196" y="517" on="1"/>
        <pt x="196" y="459" on="0"/>
        <pt x="219" y="377" on="0"/>
        <pt x="245" y="336" on="1"/>
        <pt x="304" y="389" on="0"/>
        <pt x="376" y="523" on="0"/>
        <pt x="410" y="640" on="1"/>
        <pt x="473" y="640" on="1"/>
        <pt x="437" y="516" on="0"/>
        <pt x="353" y="362" on="0"/>
        <pt x="282" y="295" on="1"/>
        <pt x="324" y="226" on="0"/>
        <pt x="353" y="97" on="0"/>
        <pt x="352" y="0" on="1"/>
        <pt x="290" y="0" on="1"/>
        <pt x="291" y="95" on="0"/>
        <pt x="267" y="204" on="0"/>
        <pt x="232" y="262" on="1"/>
        <pt x="176" y="206" on="0"/>
        <pt x="107" y="93" on="0"/>
        <pt x="70" y="0" on="1"/>
        <pt x="4" y="0" on="1"/>
      </contour>
    </TTGlyph>
    <TTGlyph name="X.sups" xMin="147" yMin="320" xMax="403" yMax="640">
      <contour>
        <pt x="275" y="640" on="1" overlap="1"/>
        <pt x="262" y="576" on="1"/>
        <pt x="250" y="512" on="1"/>
        <pt x="186" y="512" on="1"/>
        <pt x="198" y="576" on="1"/>
        <pt x="211" y="640" on="1"/>
      </contour>
      <contour>
        <pt x="173" y="448" on="1"/>
        <pt x="237" y="448" on="1"/>
        <pt x="211" y="320" on="1"/>
        <pt x="147" y="320" on="1"/>
      </contour>
      <contour>
        <pt x="250" y="512" on="1"/>
        <pt x="314" y="512" on="1"/>
        <pt x="301" y="448" on="1"/>
        <pt x="237" y="448" on="1"/>
      </contour>
      <contour>
        <pt x="301" y="448" on="1"/>
        <pt x="365" y="448" on="1"/>
        <pt x="339" y="320" on="1"/>
        <pt x="275" y="320" on="1"/>
      </contour>
      <contour>
        <pt x="326" y="576" on="1"/>
        <pt x="339" y="640" on="1"/>
        <pt x="403" y="640" on="1"/>
        <pt x="390" y="576" on="1"/>
        <pt x="378" y="512" on="1"/>
        <pt x="314" y="512" on="1"/>
      </contour>
    </TTGlyph>
    <TTGlyph name="Xi" xMin="5" yMin="0" xMax="476" yMax="640">
      <contour>
        <pt x="476" y="640" on="1" overlap="1"/>
        <pt x="465" y="584" on="1"/>
        <pt x="127" y="584" on="1"/>
        <pt x="138" y="640" on="1"/>
      </contour>
      <contour>
        <pt x="16" y="56" on="1"/>
        <pt x="364" y="56" on="1"/>
        <pt x="353" y="0" on="1"/>
        <pt x="5" y="0" on="1"/>
      </contour>
      <contour>
        <pt x="122" y="316" on="1"/>
        <pt x="362" y="316" on="1"/>
        <pt x="351" y="260" on="1"/>
        <pt x="111" y="260" on="1"/>
      </contour>
    </TTGlyph>
    <TTGlyph name="Y" xMin="118" yMin="0" xMax="494" yMax="640">
      <contour>
        <pt x="189" y="202" on="1" overlap="1"/>
        <pt x="118" y="333" on="0"/>
        <pt x="118" y="526" on="1"/>
        <pt x="118" y="573" on="0"/>
        <pt x="123" y="640" on="1"/>
        <pt x="183" y="640" on="1"/>
        <pt x="178" y="570" on="0"/>
        <pt x="178" y="525" on="1"/>
        <pt x="178" y="446" on="0"/>
        <pt x="201" y="314" on="0"/>
        <pt x="226" y="246" on="1"/>
        <pt x="297" y="336" on="0"/>
        <pt x="390" y="516" on="0"/>
        <pt x="430" y="640" on="1"/>
        <pt x="494" y="640" on="1"/>
        <pt x="449" y="498" on="0"/>
        <pt x="331" y="285" on="0"/>
        <pt x="251" y="202" on="1"/>
        <pt x="244" y="202" on="1"/>
        <pt x="251" y="202" on="1"/>
        <pt x="210" y="0" on="1"/>
        <pt x="148" y="0" on="1"/>
      </contour>
    </TTGlyph>
    <TTGlyph name="Y.short" xMin="105" yMin="0" xMax="481" yMax="576">
      <contour>
        <pt x="183" y="170" on="1" overlap="1"/>
        <pt x="105" y="302" on="0"/>
        <pt x="105" y="482" on="1"/>
        <pt x="105" y="521" on="0"/>
        <pt x="110" y="576" on="1"/>
        <pt x="170" y="576" on="1"/>
        <pt x="166" y="531" on="0"/>
        <pt x="166" y="482" on="1"/>
        <pt x="166" y="406" on="0"/>
        <pt x="192" y="278" on="0"/>
        <pt x="220" y="211" on="1"/>
        <pt x="288" y="293" on="0"/>
        <pt x="377" y="459" on="0"/>
        <pt x="417" y="576" on="1"/>
        <pt x="481" y="576" on="1"/>
        <pt x="436" y="442" on="0"/>
        <pt x="323" y="246" on="0"/>
        <pt x="245" y="170" on="1"/>
        <pt x="238" y="170" on="1"/>
        <pt x="245" y="170" on="1"/>
        <pt x="210" y="0" on="1"/>
        <pt x="148" y="0" on="1"/>
      </contour>
    </TTGlyph>
    <TTGlyph name="Y.sups" xMin="147" yMin="320" xMax="403" yMax="640">
      <contour>
        <pt x="275" y="640" on="1" overlap="1"/>
        <pt x="262" y="576" on="1"/>
        <pt x="250" y="512" on="1"/>
        <pt x="314" y="512" on="1"/>
        <pt x="326" y="576" on="1"/>
        <pt x="339" y="640" on="1"/>
        <pt x="403" y="640" on="1"/>
        <pt x="390" y="576" on="1"/>
        <pt x="378" y="512" on="1"/>
        <pt x="352" y="384" on="1"/>
        <pt x="288" y="384" on="1"/>
        <pt x="301" y="448" on="1"/>
        <pt x="173" y="448" on="1"/>
        <pt x="186" y="512" on="1"/>
        <pt x="198" y="576" on="1"/>
        <pt x="211" y="640" on="1"/>
      </contour>
      <contour>
        <pt x="160" y="384" on="1"/>
        <pt x="288" y="384" on="1"/>
        <pt x="275" y="320" on="1"/>
        <pt x="147" y="320" on="1"/>
      </contour>
    </TTGlyph>
    <TTGlyph name="Yacute" xMin="118" yMin="0" xMax="494" yMax="841">
      <component glyphName="Y" x="0" y="0" flags="0x400"/>
      <component glyphName="acutecomb.case" x="0" y="0" flags="0x400"/>
    </TTGlyph>
    <TTGlyph name="Ycircumflex" xMin="118" yMin="0" xMax="494" yMax="841">
      <component glyphName="Y" x="0" y="0" flags="0x400"/>
      <component glyphName="uni0302.case" x="0" y="0" flags="0x400"/>
    </TTGlyph>
    <TTGlyph name="Ydieresis" xMin="118" yMin="0" xMax="494" yMax="814">
      <component glyphName="Y" x="0" y="0" flags="0x400"/>
      <component glyphName="uni0308.case" x="0" y="0" flags="0x400"/>
    </TTGlyph>
    <TTGlyph name="Ygrave" xMin="118" yMin="0" xMax="494" yMax="835">
      <component glyphName="Y" x="0" y="0" flags="0x400"/>
      <component glyphName="gravecomb.case" x="0" y="0" flags="0x400"/>
    </TTGlyph>
    <TTGlyph name="Z" xMin="13" yMin="0" xMax="469" yMax="640">
      <contour>
        <pt x="22" y="46" on="1" overlap="1"/>
        <pt x="21" y="46" on="1"/>
        <pt x="384" y="584" on="1"/>
        <pt x="141" y="584" on="1"/>
        <pt x="153" y="640" on="1"/>
        <pt x="469" y="640" on="1"/>
        <pt x="460" y="594" on="1"/>
        <pt x="97" y="56" on="1"/>
        <pt x="352" y="56" on="1"/>
        <pt x="341" y="0" on="1"/>
        <pt x="13" y="0" on="1"/>
      </contour>
    </TTGlyph>
    <TTGlyph name="Z.sups" xMin="147" yMin="320" xMax="403" yMax="640">
      <contour>
        <pt x="403" y="640" on="1" overlap="1"/>
        <pt x="390" y="576" on="1"/>
        <pt x="378" y="512" on="1"/>
        <pt x="314" y="512" on="1"/>
        <pt x="326" y="576" on="1"/>
        <pt x="198" y="576" on="1"/>
        <pt x="211" y="640" on="1"/>
      </contour>
      <contour>
        <pt x="173" y="448" on="1"/>
        <pt x="237" y="448" on="1"/>
        <pt x="224" y="384" on="1"/>
        <pt x="352" y="384" on="1"/>
        <pt x="339" y="320" on="1"/>
        <pt x="147" y="320" on="1"/>
      </contour>
      <contour>
        <pt x="250" y="512" on="1"/>
        <pt x="314" y="512" on="1"/>
        <pt x="301" y="448" on="1"/>
        <pt x="237" y="448" on="1"/>
      </contour>
    </TTGlyph>
    <TTGlyph name="Zacute" xMin="13" yMin="0" xMax="469" yMax="841">
      <component glyphName="Z" x="0" y="0" flags="0x400"/>
      <component glyphName="acutecomb.case" x="0" y="0" flags="0x400"/>
    </TTGlyph>
    <TTGlyph name="Zcaron" xMin="13" yMin="0" xMax="482" yMax="839">
      <component glyphName="Z" x="0" y="0" flags="0x400"/>
      <component glyphName="uni030C.case" x="0" y="0" flags="0x400"/>
    </TTGlyph>
    <TTGlyph name="Zdotaccent" xMin="13" yMin="0" xMax="469" yMax="840">
      <component glyphName="Z" x="0" y="0" flags="0x400"/>
      <component glyphName="uni0307" x="38" y="192" flags="0x404"/>
    </TTGlyph>
    <TTGlyph name="Zeta" xMin="13" yMin="0" xMax="469" yMax="640">
      <component glyphName="Z" x="0" y="0" flags="0x400"/>
    </TTGlyph>
    <TTGlyph name="_part.slash.comp" xMin="68" yMin="148" xMax="398" yMax="390">
      <contour>
        <pt x="371" y="390" on="1" overlap="1"/>
        <pt x="398" y="338" on="1"/>
        <pt x="95" y="148" on="1"/>
        <pt x="68" y="200" on="1"/>
      </contour>
    </TTGlyph>
    <TTGlyph name="a" xMin="27" yMin="-4" xMax="395" yMax="453">
      <contour>
        <pt x="332" y="321" on="0" overlap="1"/>
        <pt x="332" y="337" on="1"/>
        <pt x="332" y="370" on="0"/>
        <pt x="297" y="396" on="0"/>
        <pt x="257" y="396" on="1"/>
        <pt x="225" y="396" on="0"/>
        <pt x="161" y="381" on="0"/>
        <pt x="120" y="368" on="1"/>
        <pt x="109" y="419" on="1"/>
        <pt x="195" y="453" on="0"/>
        <pt x="265" y="453" on="1"/>
        <pt x="327" y="453" on="0"/>
        <pt x="395" y="401" on="0"/>
        <pt x="395" y="347" on="1"/>
        <pt x="395" y="329" on="0"/>
        <pt x="390" y="302" on="1"/>
        <pt x="343" y="64" on="1"/>
        <pt x="334" y="0" on="1"/>
        <pt x="277" y="0" on="1"/>
        <pt x="282" y="62" on="1"/>
        <pt x="247" y="28" on="0"/>
        <pt x="178" y="-4" on="0"/>
        <pt x="136" y="-4" on="1"/>
        <pt x="82" y="-4" on="0"/>
        <pt x="27" y="53" on="0"/>
        <pt x="27" y="97" on="1"/>
        <pt x="27" y="178" on="0"/>
        <pt x="180" y="261" on="0"/>
        <pt x="321" y="263" on="1"/>
        <pt x="327" y="293" on="1"/>
      </contour>
      <contour>
        <pt x="92" y="52" on="0"/>
        <pt x="149" y="52" on="1"/>
        <pt x="188" y="52" on="0"/>
        <pt x="252" y="91" on="0"/>
        <pt x="297" y="141" on="1"/>
        <pt x="311" y="212" on="1"/>
        <pt x="201" y="209" on="0"/>
        <pt x="92" y="152" on="0"/>
        <pt x="92" y="102" on="1"/>
      </contour>
    </TTGlyph>
    <TTGlyph name="aacute" xMin="27" yMin="-4" xMax="417" yMax="649">
      <component glyphName="a" x="0" y="0" flags="0x400"/>
      <component glyphName="acutecomb" x="0" y="0" flags="0x400"/>
    </TTGlyph>
    <TTGlyph name="abreve" xMin="27" yMin="-4" xMax="433" yMax="642">
      <component glyphName="a" x="0" y="0" flags="0x400"/>
      <component glyphName="uni0306" x="0" y="0" flags="0x400"/>
    </TTGlyph>
    <TTGlyph name="acircumflex" xMin="27" yMin="-4" xMax="414" yMax="649">
      <component glyphName="a" x="0" y="0" flags="0x400"/>
      <component glyphName="uni0302" x="0" y="0" flags="0x400"/>
    </TTGlyph>
    <TTGlyph name="acute" xMin="185" yMin="384" xMax="393" yMax="640">
      <contour>
        <pt x="185" y="384" on="1" overlap="1"/>
        <pt x="301" y="640" on="1"/>
        <pt x="393" y="640" on="1"/>
        <pt x="250" y="384" on="1"/>
      </contour>
    </TTGlyph>
    <TTGlyph name="acutecomb" xMin="253" yMin="513" xMax="417" yMax="649">
      <contour>
        <pt x="332" y="649" on="1" overlap="1"/>
        <pt x="417" y="649" on="1"/>
        <pt x="311" y="513" on="1"/>
        <pt x="253" y="513" on="1"/>
      </contour>
    </TTGlyph>
    <TTGlyph name="acutecomb.case" xMin="291" yMin="705" xMax="455" yMax="841">
      <component glyphName="acutecomb" x="38" y="192" flags="0x404"/>
    </TTGlyph>
    <TTGlyph name="adieresis" xMin="27" yMin="-4" xMax="439" yMax="646">
      <component glyphName="a" x="0" y="0" flags="0x400"/>
      <component glyphName="uni0308" x="0" y="0" flags="0x400"/>
    </TTGlyph>
    <TTGlyph name="ae" xMin="-36" yMin="-9" xMax="473" yMax="456">
      <contour>
        <pt x="221" y="-9" on="0" overlap="1"/>
        <pt x="192" y="50" on="1"/>
        <pt x="122" y="-8" on="0"/>
        <pt x="61" y="-8" on="1"/>
        <pt x="16" y="-8" on="0"/>
        <pt x="-36" y="43" on="0"/>
        <pt x="-36" y="94" on="1"/>
        <pt x="-36" y="173" on="0"/>
        <pt x="88" y="256" on="0"/>
        <pt x="196" y="260" on="1"/>
        <pt x="202" y="293" on="1"/>
        <pt x="208" y="323" on="0"/>
        <pt x="208" y="344" on="1"/>
        <pt x="208" y="372" on="0"/>
        <pt x="182" y="397" on="0"/>
        <pt x="154" y="397" on="1"/>
        <pt x="112" y="397" on="0"/>
        <pt x="50" y="374" on="1"/>
        <pt x="40" y="426" on="1"/>
        <pt x="108" y="454" on="0"/>
        <pt x="159" y="454" on="1"/>
        <pt x="200" y="454" on="0"/>
        <pt x="251" y="422" on="0"/>
        <pt x="258" y="392" on="1"/>
        <pt x="301" y="456" on="0"/>
        <pt x="371" y="456" on="1"/>
        <pt x="473" y="456" on="0"/>
        <pt x="473" y="331" on="1"/>
        <pt x="473" y="276" on="0"/>
        <pt x="454" y="204" on="1"/>
        <pt x="247" y="204" on="1"/>
        <pt x="238" y="158" on="0"/>
        <pt x="238" y="126" on="1"/>
        <pt x="238" y="85" on="0"/>
        <pt x="270" y="46" on="0"/>
        <pt x="306" y="46" on="1"/>
        <pt x="342" y="46" on="0"/>
        <pt x="396" y="64" on="1"/>
        <pt x="404" y="13" on="1"/>
        <pt x="353" y="-9" on="0"/>
        <pt x="298" y="-9" on="1"/>
      </contour>
      <contour>
        <pt x="30" y="72" on="0"/>
        <pt x="53" y="48" on="0"/>
        <pt x="74" y="48" on="1"/>
        <pt x="117" y="48" on="0"/>
        <pt x="177" y="100" on="1"/>
        <pt x="176" y="108" on="0"/>
        <pt x="176" y="125" on="1"/>
        <pt x="176" y="167" on="0"/>
        <pt x="186" y="210" on="1"/>
        <pt x="30" y="199" on="0"/>
        <pt x="30" y="95" on="1"/>
      </contour>
      <contour>
        <pt x="402" y="261" on="1"/>
        <pt x="411" y="306" on="0"/>
        <pt x="411" y="337" on="1"/>
        <pt x="411" y="369" on="0"/>
        <pt x="390" y="401" on="0"/>
        <pt x="366" y="401" on="1"/>
        <pt x="328" y="401" on="0"/>
        <pt x="278" y="332" on="0"/>
        <pt x="260" y="260" on="1"/>
      </contour>
    </TTGlyph>
    <TTGlyph name="aeacute" xMin="-36" yMin="-9" xMax="473" yMax="649">
      <component glyphName="ae" x="0" y="0" flags="0x400"/>
      <component glyphName="acutecomb" x="0" y="0" flags="0x400"/>
    </TTGlyph>
    <TTGlyph name="agrave" xMin="27" yMin="-4" xMax="395" yMax="643">
      <component glyphName="a" x="0" y="0" flags="0x400"/>
      <component glyphName="gravecomb" x="0" y="0" flags="0x400"/>
    </TTGlyph>
    <TTGlyph name="alpha" xMin="41" yMin="-8" xMax="445" yMax="456">
      <contour>
        <pt x="115" y="150" on="0" overlap="1"/>
        <pt x="115" y="120" on="1"/>
        <pt x="115" y="85" on="0"/>
        <pt x="138" y="56" on="0"/>
        <pt x="161" y="56" on="1"/>
        <pt x="199" y="56" on="0"/>
        <pt x="282" y="145" on="0"/>
        <pt x="314" y="228" on="1"/>
        <pt x="315" y="308" on="0"/>
        <pt x="272" y="392" on="0"/>
        <pt x="237" y="392" on="1"/>
        <pt x="199" y="392" on="0"/>
        <pt x="147" y="315" on="0"/>
        <pt x="128" y="221" on="1"/>
      </contour>
      <contour>
        <pt x="97" y="456" on="0"/>
        <pt x="236" y="456" on="1"/>
        <pt x="275" y="456" on="0"/>
        <pt x="334" y="408" on="0"/>
        <pt x="352" y="360" on="1"/>
        <pt x="373" y="451" on="1"/>
        <pt x="445" y="446" on="1"/>
        <pt x="419" y="354" on="1"/>
        <pt x="400" y="285" on="0"/>
        <pt x="373" y="219" on="1"/>
        <pt x="374" y="165" on="0"/>
        <pt x="365" y="88" on="1"/>
        <pt x="355" y="2" on="1"/>
        <pt x="283" y="-3" on="1"/>
        <pt x="296" y="81" on="1"/>
        <pt x="229" y="-8" on="0"/>
        <pt x="152" y="-8" on="1"/>
        <pt x="94" y="-8" on="0"/>
        <pt x="41" y="65" on="0"/>
        <pt x="41" y="130" on="1"/>
        <pt x="41" y="172" on="0"/>
        <pt x="52" y="227" on="1"/>
      </contour>
    </TTGlyph>
    <TTGlyph name="alphatonos" xMin="41" yMin="-8" xMax="445" yMax="704">
      <component glyphName="alpha" x="0" y="0" flags="0x400"/>
      <component glyphName="tonos" x="0" y="0" flags="0x400"/>
    </TTGlyph>
    <TTGlyph name="amacron" xMin="27" yMin="-4" xMax="423" yMax="632">
      <component glyphName="a" x="0" y="0" flags="0x400"/>
      <component glyphName="uni0304" x="0" y="0" flags="0x400"/>
    </TTGlyph>
    <TTGlyph name="ampersand" xMin="19" yMin="-10" xMax="444" yMax="542">
      <contour>
        <pt x="310" y="486" on="0" overlap="1"/>
        <pt x="268" y="486" on="1"/>
        <pt x="207" y="486" on="0"/>
        <pt x="147" y="420" on="0"/>
        <pt x="147" y="375" on="1"/>
        <pt x="147" y="347" on="0"/>
        <pt x="187" y="316" on="0"/>
        <pt x="236" y="316" on="1"/>
        <pt x="444" y="316" on="1"/>
        <pt x="432" y="260" on="1"/>
        <pt x="374" y="260" on="1"/>
        <pt x="326" y="17" on="1"/>
        <pt x="287" y="4" on="0"/>
        <pt x="200" y="-10" on="0"/>
        <pt x="166" y="-10" on="1"/>
        <pt x="90" y="-10" on="0"/>
        <pt x="19" y="55" on="0"/>
        <pt x="19" y="109" on="1"/>
        <pt x="19" y="130" on="0"/>
        <pt x="23" y="149" on="1"/>
        <pt x="31" y="191" on="0"/>
        <pt x="88" y="266" on="0"/>
        <pt x="144" y="289" on="1"/>
        <pt x="87" y="316" on="0"/>
        <pt x="87" y="380" on="1"/>
        <pt x="87" y="393" on="0"/>
        <pt x="90" y="408" on="1"/>
        <pt x="102" y="468" on="0"/>
        <pt x="197" y="542" on="0"/>
        <pt x="274" y="542" on="1"/>
        <pt x="325" y="542" on="0"/>
        <pt x="377" y="529" on="1"/>
        <pt x="360" y="477" on="1"/>
      </contour>
      <contour>
        <pt x="81" y="124" on="0"/>
        <pt x="81" y="110" on="1"/>
        <pt x="81" y="46" on="0"/>
        <pt x="163" y="46" on="1"/>
        <pt x="220" y="46" on="0"/>
        <pt x="271" y="59" on="1"/>
        <pt x="311" y="260" on="1"/>
        <pt x="242" y="260" on="1"/>
        <pt x="170" y="260" on="0"/>
        <pt x="94" y="190" on="0"/>
        <pt x="84" y="139" on="1"/>
      </contour>
    </TTGlyph>
    <TTGlyph name="angle" xMin="32" yMin="64" xMax="370" yMax="522">
      <contour>
        <pt x="32" y="64" on="1" overlap="1"/>
        <pt x="44" y="128" on="1"/>
        <pt x="316" y="522" on="1"/>
        <pt x="370" y="494" on="1"/>
        <pt x="118" y="128" on="1"/>
        <pt x="365" y="128" on="1"/>
        <pt x="352" y="64" on="1"/>
      </contour>
    </TTGlyph>
    <TTGlyph name="anoteleia" xMin="199" yMin="340" xMax="319" yMax="458">
      <component glyphName="period" x="102" y="350" flags="0x404"/>
    </TTGlyph>
    <TTGlyph name="aogonek" xMin="27" yMin="-197" xMax="395" yMax="453">
      <component glyphName="a" x="0" y="0" flags="0x400"/>
      <component glyphName="uni0328" x="-2" y="0" flags="0x400"/>
    </TTGlyph>
    <TTGlyph name="approxequal" xMin="16" yMin="149" xMax="458" yMax="427">
      <contour>
        <pt x="271" y="149" on="0" overlap="1"/>
        <pt x="229" y="168" on="0"/>
        <pt x="201" y="188" on="1"/>
        <pt x="182" y="202" on="0"/>
        <pt x="154" y="216" on="0"/>
        <pt x="137" y="216" on="1"/>
        <pt x="89" y="216" on="0"/>
        <pt x="66" y="149" on="1"/>
        <pt x="16" y="159" on="1"/>
        <pt x="51" y="270" on="0"/>
        <pt x="139" y="270" on="1"/>
        <pt x="171" y="270" on="0"/>
        <pt x="213" y="251" on="0"/>
        <pt x="241" y="231" on="1"/>
        <pt x="260" y="217" on="0"/>
        <pt x="288" y="203" on="0"/>
        <pt x="305" y="203" on="1"/>
        <pt x="330" y="203" on="0"/>
        <pt x="364" y="237" on="0"/>
        <pt x="376" y="270" on="1"/>
        <pt x="427" y="260" on="1"/>
        <pt x="409" y="206" on="0"/>
        <pt x="349" y="149" on="0"/>
        <pt x="303" y="149" on="1"/>
      </contour>
      <contour>
        <pt x="65" y="370" on="0"/>
        <pt x="125" y="427" on="0"/>
        <pt x="171" y="427" on="1"/>
        <pt x="202" y="427" on="0"/>
        <pt x="248" y="406" on="0"/>
        <pt x="272" y="388" on="1"/>
        <pt x="292" y="373" on="0"/>
        <pt x="320" y="360" on="0"/>
        <pt x="337" y="360" on="1"/>
        <pt x="362" y="360" on="0"/>
        <pt x="396" y="393" on="0"/>
        <pt x="408" y="427" on="1"/>
        <pt x="458" y="417" on="1"/>
        <pt x="423" y="306" on="0"/>
        <pt x="334" y="306" on="1"/>
        <pt x="303" y="306" on="0"/>
        <pt x="259" y="326" on="0"/>
        <pt x="233" y="345" on="1"/>
        <pt x="213" y="360" on="0"/>
        <pt x="186" y="373" on="0"/>
        <pt x="169" y="373" on="1"/>
        <pt x="144" y="373" on="0"/>
        <pt x="110" y="339" on="0"/>
        <pt x="97" y="306" on="1"/>
        <pt x="47" y="316" on="1"/>
      </contour>
    </TTGlyph>
    <TTGlyph name="aring" xMin="27" yMin="-4" xMax="400" yMax="693">
      <component glyphName="a" x="0" y="0" flags="0x400"/>
      <component glyphName="uni030A" x="0" y="0" flags="0x400"/>
    </TTGlyph>
    <TTGlyph name="aringacute" xMin="27" yMin="-4" xMax="462" yMax="873">
      <component glyphName="a" x="0" y="0" flags="0x400"/>
      <component glyphName="uni030A" x="0" y="0" flags="0x400"/>
      <component glyphName="acutecomb" x="45" y="224" flags="0x404"/>
    </TTGlyph>
    <TTGlyph name="arrowboth" xMin="-1" yMin="118" xMax="474" yMax="458">
      <contour>
        <pt x="195" y="162" on="1" overlap="1"/>
        <pt x="149" y="118" on="1"/>
        <pt x="-1" y="266" on="1"/>
        <pt x="6" y="310" on="1"/>
        <pt x="214" y="458" on="1"/>
        <pt x="245" y="414" on="1"/>
        <pt x="118" y="320" on="1"/>
        <pt x="370" y="320" on="1"/>
        <pt x="279" y="414" on="1"/>
        <pt x="324" y="458" on="1"/>
        <pt x="474" y="310" on="1"/>
        <pt x="467" y="266" on="1"/>
        <pt x="259" y="118" on="1"/>
        <pt x="229" y="162" on="1"/>
        <pt x="355" y="256" on="1"/>
        <pt x="103" y="256" on="1"/>
      </contour>
    </TTGlyph>
    <TTGlyph name="arrowdown" xMin="56" yMin="54" xMax="396" yMax="512">
      <contour>
        <pt x="56" y="233" on="1" overlap="1"/>
        <pt x="98" y="266" on="1"/>
        <pt x="180" y="147" on="1"/>
        <pt x="253" y="512" on="1"/>
        <pt x="310" y="512" on="1"/>
        <pt x="236" y="147" on="1"/>
        <pt x="363" y="266" on="1"/>
        <pt x="396" y="233" on="1"/>
        <pt x="210" y="54" on="1"/>
        <pt x="172" y="54" on="1"/>
      </contour>
    </TTGlyph>
    <TTGlyph name="arrowleft" xMin="-1" yMin="118" xMax="466" yMax="458">
      <contour>
        <pt x="-1" y="269" on="1" overlap="1"/>
        <pt x="6" y="307" on="1"/>
        <pt x="213" y="458" on="1"/>
        <pt x="240" y="421" on="1"/>
        <pt x="102" y="316" on="1"/>
        <pt x="466" y="316" on="1"/>
        <pt x="455" y="260" on="1"/>
        <pt x="89" y="260" on="1"/>
        <pt x="187" y="155" on="1"/>
        <pt x="149" y="118" on="1"/>
      </contour>
    </TTGlyph>
    <TTGlyph name="arrowright" xMin="7" yMin="118" xMax="474" yMax="458">
      <contour>
        <pt x="232" y="155" on="1" overlap="1"/>
        <pt x="370" y="260" on="1"/>
        <pt x="7" y="260" on="1"/>
        <pt x="18" y="316" on="1"/>
        <pt x="383" y="316" on="1"/>
        <pt x="285" y="421" on="1"/>
        <pt x="323" y="458" on="1"/>
        <pt x="474" y="307" on="1"/>
        <pt x="467" y="269" on="1"/>
        <pt x="259" y="118" on="1"/>
      </contour>
    </TTGlyph>
    <TTGlyph name="arrowup" xMin="78" yMin="64" xMax="418" yMax="522">
      <contour>
        <pt x="110" y="310" on="1" overlap="1"/>
        <pt x="78" y="343" on="1"/>
        <pt x="264" y="522" on="1"/>
        <pt x="302" y="522" on="1"/>
        <pt x="418" y="343" on="1"/>
        <pt x="376" y="310" on="1"/>
        <pt x="294" y="429" on="1"/>
        <pt x="220" y="64" on="1"/>
        <pt x="164" y="64" on="1"/>
        <pt x="237" y="429" on="1"/>
      </contour>
    </TTGlyph>
    <TTGlyph name="arrowupdn" xMin="56" yMin="54" xMax="418" yMax="522">
      <contour>
        <pt x="116" y="305" on="1" overlap="1"/>
        <pt x="78" y="343" on="1"/>
        <pt x="261" y="522" on="1"/>
        <pt x="305" y="522" on="1"/>
        <pt x="418" y="343" on="1"/>
        <pt x="368" y="305" on="1"/>
        <pt x="295" y="414" on="1"/>
        <pt x="243" y="162" on="1"/>
        <pt x="358" y="271" on="1"/>
        <pt x="396" y="233" on="1"/>
        <pt x="213" y="54" on="1"/>
        <pt x="169" y="54" on="1"/>
        <pt x="56" y="233" on="1"/>
        <pt x="106" y="271" on="1"/>
        <pt x="179" y="162" on="1"/>
        <pt x="231" y="414" on="1"/>
      </contour>
    </TTGlyph>
    <TTGlyph name="arrowupdnbse" xMin="56" yMin="0" xMax="418" yMax="522">
      <contour>
        <pt x="163" y="64" on="1" overlap="1"/>
        <pt x="56" y="233" on="1"/>
        <pt x="106" y="271" on="1"/>
        <pt x="179" y="162" on="1"/>
        <pt x="231" y="414" on="1"/>
        <pt x="116" y="305" on="1"/>
        <pt x="78" y="343" on="1"/>
        <pt x="261" y="522" on="1"/>
        <pt x="305" y="522" on="1"/>
        <pt x="418" y="343" on="1"/>
        <pt x="368" y="305" on="1"/>
        <pt x="295" y="414" on="1"/>
        <pt x="243" y="162" on="1"/>
        <pt x="358" y="271" on="1"/>
        <pt x="396" y="233" on="1"/>
        <pt x="223" y="64" on="1"/>
        <pt x="384" y="64" on="1"/>
        <pt x="384" y="0" on="1"/>
        <pt x="64" y="0" on="1"/>
        <pt x="64" y="64" on="1"/>
      </contour>
    </TTGlyph>
    <TTGlyph name="asciicircum" xMin="44" yMin="192" xMax="391" yMax="566">
      <contour>
        <pt x="331" y="566" on="1" overlap="1"/>
        <pt x="391" y="192" on="1"/>
        <pt x="326" y="192" on="1"/>
        <pt x="280" y="503" on="1"/>
        <pt x="110" y="192" on="1"/>
        <pt x="44" y="192" on="1"/>
        <pt x="253" y="566" on="1"/>
      </contour>
    </TTGlyph>
    <TTGlyph name="asciitilde" xMin="-7" yMin="192" xMax="481" yMax="384">
      <contour>
        <pt x="292" y="192" on="0" overlap="1"/>
        <pt x="249" y="215" on="0"/>
        <pt x="224" y="247" on="0"/>
        <pt x="209" y="273" on="1"/>
        <pt x="194" y="301" on="0"/>
        <pt x="167" y="328" on="0"/>
        <pt x="145" y="328" on="1"/>
        <pt x="108" y="328" on="0"/>
        <pt x="66" y="270" on="0"/>
        <pt x="47" y="203" on="1"/>
        <pt x="-7" y="212" on="1"/>
        <pt x="16" y="301" on="0"/>
        <pt x="87" y="384" on="0"/>
        <pt x="150" y="384" on="1"/>
        <pt x="195" y="384" on="0"/>
        <pt x="242" y="342" on="0"/>
        <pt x="264" y="304" on="1"/>
        <pt x="280" y="275" on="0"/>
        <pt x="307" y="248" on="0"/>
        <pt x="329" y="248" on="1"/>
        <pt x="366" y="248" on="0"/>
        <pt x="408" y="306" on="0"/>
        <pt x="427" y="373" on="1"/>
        <pt x="481" y="365" on="1"/>
        <pt x="458" y="276" on="0"/>
        <pt x="387" y="192" on="0"/>
        <pt x="325" y="192" on="1"/>
      </contour>
    </TTGlyph>
    <TTGlyph name="asterisk" xMin="37" yMin="74" xMax="437" yMax="502">
      <contour>
        <pt x="277" y="280" on="1" overlap="1"/>
        <pt x="393" y="142" on="1"/>
        <pt x="344" y="104" on="1"/>
        <pt x="252" y="226" on="1"/>
        <pt x="225" y="74" on="1"/>
        <pt x="165" y="87" on="1"/>
        <pt x="199" y="236" on="1"/>
        <pt x="66" y="159" on="1"/>
        <pt x="37" y="214" on="1"/>
        <pt x="196" y="296" on="1"/>
        <pt x="80" y="434" on="1"/>
        <pt x="129" y="472" on="1"/>
        <pt x="222" y="351" on="1"/>
        <pt x="248" y="502" on="1"/>
        <pt x="308" y="489" on="1"/>
        <pt x="274" y="340" on="1"/>
        <pt x="407" y="417" on="1"/>
        <pt x="437" y="362" on="1"/>
      </contour>
    </TTGlyph>
    <TTGlyph name="at" xMin="33" yMin="-128" xMax="422" yMax="586">
      <contour>
        <pt x="325" y="66" on="0" overlap="1"/>
        <pt x="277" y="66" on="1"/>
        <pt x="224" y="66" on="0"/>
        <pt x="167" y="124" on="0"/>
        <pt x="167" y="177" on="1"/>
        <pt x="167" y="197" on="0"/>
        <pt x="172" y="225" on="1"/>
        <pt x="186" y="294" on="0"/>
        <pt x="272" y="374" on="0"/>
        <pt x="353" y="386" on="1"/>
        <pt x="362" y="430" on="0"/>
        <pt x="362" y="459" on="1"/>
        <pt x="362" y="495" on="0"/>
        <pt x="331" y="530" on="0"/>
        <pt x="297" y="530" on="1"/>
        <pt x="253" y="530" on="0"/>
        <pt x="187" y="467" on="0"/>
        <pt x="136" y="331" on="0"/>
        <pt x="114" y="218" on="1"/>
        <pt x="94" y="118" on="0"/>
        <pt x="94" y="52" on="1"/>
        <pt x="94" y="-15" on="0"/>
        <pt x="137" y="-73" on="0"/>
        <pt x="181" y="-73" on="1"/>
        <pt x="224" y="-73" on="0"/>
        <pt x="267" y="-58" on="1"/>
        <pt x="275" y="-110" on="1"/>
        <pt x="251" y="-119" on="0"/>
        <pt x="198" y="-128" on="0"/>
        <pt x="178" y="-128" on="1"/>
        <pt x="104" y="-128" on="0"/>
        <pt x="33" y="-41" on="0"/>
        <pt x="33" y="51" on="1"/>
        <pt x="33" y="123" on="0"/>
        <pt x="54" y="228" on="1"/>
        <pt x="91" y="413" on="0"/>
        <pt x="206" y="586" on="0"/>
        <pt x="301" y="586" on="1"/>
        <pt x="362" y="586" on="0"/>
        <pt x="422" y="515" on="0"/>
        <pt x="422" y="451" on="1"/>
        <pt x="422" y="422" on="0"/>
        <pt x="414" y="380" on="1"/>
        <pt x="355" y="75" on="1"/>
      </contour>
      <contour>
        <pt x="230" y="195" on="0"/>
        <pt x="230" y="175" on="1"/>
        <pt x="230" y="150" on="0"/>
        <pt x="254" y="123" on="0"/>
        <pt x="281" y="123" on="1"/>
        <pt x="292" y="123" on="0"/>
        <pt x="299" y="124" on="1"/>
        <pt x="342" y="329" on="1"/>
        <pt x="292" y="320" on="0"/>
        <pt x="243" y="266" on="0"/>
        <pt x="234" y="215" on="1"/>
      </contour>
    </TTGlyph>
    <TTGlyph name="atilde" xMin="27" yMin="-4" xMax="457" yMax="645">
      <component glyphName="a" x="0" y="0" flags="0x400"/>
      <component glyphName="tildecomb" x="0" y="0" flags="0x400"/>
    </TTGlyph>
    <TTGlyph name="b" xMin="16" yMin="-8" xMax="402" yMax="640">
      <contour>
        <pt x="116" y="-8" on="0" overlap="1"/>
        <pt x="84" y="40" on="1"/>
        <pt x="70" y="0" on="1"/>
        <pt x="16" y="0" on="1"/>
        <pt x="31" y="64" on="1"/>
        <pt x="146" y="640" on="1"/>
        <pt x="208" y="640" on="1"/>
        <pt x="164" y="419" on="1"/>
        <pt x="209" y="456" on="0"/>
        <pt x="269" y="456" on="1"/>
        <pt x="339" y="456" on="0"/>
        <pt x="402" y="371" on="0"/>
        <pt x="402" y="300" on="1"/>
        <pt x="402" y="264" on="0"/>
        <pt x="394" y="219" on="1"/>
        <pt x="374" y="121" on="0"/>
        <pt x="270" y="-8" on="0"/>
        <pt x="186" y="-8" on="1"/>
      </contour>
      <contour>
        <pt x="122" y="47" on="0"/>
        <pt x="181" y="47" on="1"/>
        <pt x="240" y="47" on="0"/>
        <pt x="308" y="132" on="0"/>
        <pt x="328" y="229" on="1"/>
        <pt x="338" y="279" on="0"/>
        <pt x="338" y="316" on="1"/>
        <pt x="338" y="361" on="0"/>
        <pt x="302" y="401" on="0"/>
        <pt x="263" y="401" on="1"/>
        <pt x="196" y="401" on="0"/>
        <pt x="150" y="351" on="1"/>
        <pt x="98" y="90" on="1"/>
      </contour>
    </TTGlyph>
    <TTGlyph name="backslash" xMin="143" yMin="-68" xMax="343" yMax="709">
      <contour>
        <pt x="282" y="-68" on="1" overlap="1"/>
        <pt x="143" y="699" on="1"/>
        <pt x="204" y="709" on="1"/>
        <pt x="343" y="-58" on="1"/>
      </contour>
    </TTGlyph>
    <TTGlyph name="bar" xMin="138" yMin="-64" xMax="349" yMax="704">
      <contour>
        <pt x="138" y="-64" on="1" overlap="1"/>
        <pt x="291" y="704" on="1"/>
        <pt x="349" y="704" on="1"/>
        <pt x="196" y="-64" on="1"/>
      </contour>
    </TTGlyph>
    <TTGlyph name="beta" xMin="-19" yMin="-192" xMax="454" yMax="640">
      <contour>
        <pt x="70" y="256" on="1" overlap="1"/>
        <pt x="122" y="512" on="1"/>
        <pt x="134" y="576" on="1"/>
        <pt x="198" y="576" on="1"/>
        <pt x="186" y="512" on="1"/>
        <pt x="134" y="256" on="1"/>
        <pt x="122" y="192" on="1"/>
        <pt x="109" y="128" on="1"/>
        <pt x="173" y="128" on="1"/>
        <pt x="160" y="64" on="1"/>
        <pt x="96" y="64" on="1"/>
        <pt x="70" y="-64" on="1"/>
        <pt x="58" y="-128" on="1"/>
        <pt x="45" y="-192" on="1"/>
        <pt x="-19" y="-192" on="1"/>
        <pt x="-6" y="-128" on="1"/>
        <pt x="6" y="-64" on="1"/>
        <pt x="58" y="192" on="1"/>
      </contour>
      <contour>
        <pt x="160" y="64" on="1"/>
        <pt x="288" y="64" on="1"/>
        <pt x="275" y="0" on="1"/>
        <pt x="147" y="0" on="1"/>
      </contour>
      <contour>
        <pt x="211" y="640" on="1"/>
        <pt x="403" y="640" on="1"/>
        <pt x="390" y="576" on="1"/>
        <pt x="198" y="576" on="1"/>
      </contour>
      <contour>
        <pt x="224" y="384" on="1"/>
        <pt x="352" y="384" on="1"/>
        <pt x="339" y="320" on="1"/>
        <pt x="211" y="320" on="1"/>
      </contour>
      <contour>
        <pt x="314" y="192" on="1"/>
        <pt x="326" y="256" on="1"/>
        <pt x="339" y="320" on="1"/>
        <pt x="403" y="320" on="1"/>
        <pt x="390" y="256" on="1"/>
        <pt x="378" y="192" on="1"/>
        <pt x="352" y="64" on="1"/>
        <pt x="288" y="64" on="1"/>
      </contour>
      <contour>
        <pt x="378" y="512" on="1"/>
        <pt x="390" y="576" on="1"/>
        <pt x="454" y="576" on="1"/>
        <pt x="442" y="512" on="1"/>
        <pt x="416" y="384" on="1"/>
        <pt x="352" y="384" on="1"/>
      </contour>
    </TTGlyph>
    <TTGlyph name="block" xMin="-83" yMin="-192" xMax="570" yMax="832">
      <contour>
        <pt x="-83" y="-192" on="1" overlap="1"/>
        <pt x="122" y="832" on="1"/>
        <pt x="570" y="832" on="1"/>
        <pt x="365" y="-192" on="1"/>
      </contour>
    </TTGlyph>
    <TTGlyph name="braceleft" xMin="101" yMin="-64" xMax="421" yMax="704">
      <contour>
        <pt x="198" y="-55" on="0" overlap="1"/>
        <pt x="122" y="-6" on="0"/>
        <pt x="122" y="45" on="1"/>
        <pt x="122" y="60" on="0"/>
        <pt x="125" y="78" on="1"/>
        <pt x="131" y="102" on="0"/>
        <pt x="140" y="126" on="1"/>
        <pt x="155" y="169" on="0"/>
        <pt x="162" y="199" on="1"/>
        <pt x="164" y="207" on="0"/>
        <pt x="164" y="222" on="1"/>
        <pt x="164" y="249" on="0"/>
        <pt x="134" y="279" on="0"/>
        <pt x="101" y="284" on="1"/>
        <pt x="111" y="356" on="1"/>
        <pt x="196" y="371" on="0"/>
        <pt x="212" y="452" on="1"/>
        <pt x="216" y="474" on="0"/>
        <pt x="218" y="513" on="1"/>
        <pt x="220" y="552" on="0"/>
        <pt x="225" y="573" on="1"/>
        <pt x="238" y="639" on="0"/>
        <pt x="332" y="693" on="0"/>
        <pt x="417" y="704" on="1"/>
        <pt x="421" y="655" on="1"/>
        <pt x="350" y="643" on="0"/>
        <pt x="289" y="605" on="0"/>
        <pt x="280" y="564" on="1"/>
        <pt x="278" y="553" on="0"/>
        <pt x="276" y="524" on="0"/>
        <pt x="276" y="518" on="1"/>
        <pt x="276" y="477" on="0"/>
        <pt x="269" y="443" on="1"/>
        <pt x="258" y="387" on="0"/>
        <pt x="203" y="334" on="0"/>
        <pt x="152" y="318" on="1"/>
        <pt x="187" y="306" on="0"/>
        <pt x="222" y="265" on="0"/>
        <pt x="222" y="229" on="1"/>
        <pt x="222" y="214" on="0"/>
        <pt x="217" y="187" on="1"/>
        <pt x="210" y="153" on="0"/>
        <pt x="197" y="120" on="1"/>
        <pt x="184" y="77" on="0"/>
        <pt x="181" y="66" on="1"/>
        <pt x="179" y="52" on="0"/>
        <pt x="179" y="48" on="1"/>
        <pt x="179" y="21" on="0"/>
        <pt x="225" y="-5" on="0"/>
        <pt x="283" y="-16" on="1"/>
        <pt x="268" y="-64" on="1"/>
      </contour>
    </TTGlyph>
    <TTGlyph name="braceright" xMin="66" yMin="-64" xMax="385" yMax="704">
      <contour>
        <pt x="136" y="-3" on="0" overlap="1"/>
        <pt x="197" y="35" on="0"/>
        <pt x="206" y="76" on="1"/>
        <pt x="208" y="87" on="0"/>
        <pt x="210" y="114" on="0"/>
        <pt x="210" y="120" on="1"/>
        <pt x="212" y="168" on="0"/>
        <pt x="218" y="197" on="1"/>
        <pt x="229" y="253" on="0"/>
        <pt x="284" y="307" on="0"/>
        <pt x="334" y="322" on="1"/>
        <pt x="299" y="334" on="0"/>
        <pt x="264" y="375" on="0"/>
        <pt x="264" y="411" on="1"/>
        <pt x="264" y="426" on="0"/>
        <pt x="269" y="453" on="1"/>
        <pt x="275" y="479" on="0"/>
        <pt x="288" y="518" on="1"/>
        <pt x="300" y="551" on="0"/>
        <pt x="305" y="575" on="1"/>
        <pt x="307" y="589" on="0"/>
        <pt x="307" y="593" on="1"/>
        <pt x="307" y="619" on="0"/>
        <pt x="261" y="645" on="0"/>
        <pt x="203" y="656" on="1"/>
        <pt x="218" y="704" on="1"/>
        <pt x="288" y="695" on="0"/>
        <pt x="364" y="646" on="0"/>
        <pt x="364" y="595" on="1"/>
        <pt x="364" y="581" on="0"/>
        <pt x="361" y="563" on="1"/>
        <pt x="358" y="545" on="0"/>
        <pt x="345" y="510" on="1"/>
        <pt x="330" y="467" on="0"/>
        <pt x="325" y="441" on="1"/>
        <pt x="322" y="428" on="0"/>
        <pt x="322" y="417" on="1"/>
        <pt x="322" y="392" on="0"/>
        <pt x="353" y="362" on="0"/>
        <pt x="385" y="356" on="1"/>
        <pt x="375" y="284" on="1"/>
        <pt x="291" y="271" on="0"/>
        <pt x="274" y="189" on="1"/>
        <pt x="270" y="167" on="0"/>
        <pt x="268" y="127" on="1"/>
        <pt x="268" y="122" on="0"/>
        <pt x="266" y="85" on="0"/>
        <pt x="262" y="67" on="1"/>
        <pt x="249" y="1" on="0"/>
        <pt x="155" y="-53" on="0"/>
        <pt x="69" y="-64" on="1"/>
        <pt x="66" y="-15" on="1"/>
      </contour>
    </TTGlyph>
    <TTGlyph name="bracketleft" xMin="91" yMin="-64" xMax="431" yMax="704">
      <contour>
        <pt x="296" y="648" on="1" overlap="1"/>
        <pt x="164" y="-8" on="1"/>
        <pt x="288" y="-8" on="1"/>
        <pt x="277" y="-64" on="1"/>
        <pt x="91" y="-64" on="1"/>
        <pt x="245" y="704" on="1"/>
        <pt x="431" y="704" on="1"/>
        <pt x="420" y="648" on="1"/>
      </contour>
    </TTGlyph>
    <TTGlyph name="bracketright" xMin="55" yMin="-64" xMax="395" yMax="704">
      <contour>
        <pt x="55" y="-64" on="1" overlap="1"/>
        <pt x="66" y="-8" on="1"/>
        <pt x="190" y="-8" on="1"/>
        <pt x="322" y="648" on="1"/>
        <pt x="198" y="648" on="1"/>
        <pt x="209" y="704" on="1"/>
        <pt x="395" y="704" on="1"/>
        <pt x="241" y="-64" on="1"/>
      </contour>
    </TTGlyph>
    <TTGlyph name="breve" xMin="178" yMin="504" xMax="433" yMax="642">
      <component glyphName="uni0306" x="0" y="0" flags="0x400"/>
    </TTGlyph>
    <TTGlyph name="brokenbar" xMin="112" yMin="-192" xMax="349" yMax="704">
      <contour>
        <pt x="214" y="320" on="1" overlap="1"/>
        <pt x="291" y="704" on="1"/>
        <pt x="349" y="704" on="1"/>
        <pt x="272" y="320" on="1"/>
      </contour>
      <contour>
        <pt x="189" y="192" on="1"/>
        <pt x="247" y="192" on="1"/>
        <pt x="170" y="-192" on="1"/>
        <pt x="112" y="-192" on="1"/>
      </contour>
    </TTGlyph>
    <TTGlyph name="bullet" xMin="126" yMin="125" xMax="322" yMax="323">
      <contour>
        <pt x="277" y="323" on="0" overlap="1"/>
        <pt x="322" y="278" on="0"/>
        <pt x="322" y="242" on="1"/>
        <pt x="322" y="194" on="0"/>
        <pt x="254" y="125" on="0"/>
        <pt x="208" y="125" on="1"/>
        <pt x="172" y="125" on="0"/>
        <pt x="126" y="171" on="0"/>
        <pt x="126" y="207" on="1"/>
        <pt x="126" y="239" on="0"/>
        <pt x="158" y="292" on="0"/>
        <pt x="210" y="323" on="0"/>
        <pt x="240" y="323" on="1"/>
      </contour>
    </TTGlyph>
    <TTGlyph name="c" xMin="42" yMin="-7" xMax="395" yMax="455">
      <contour>
        <pt x="331" y="400" on="0" overlap="1"/>
        <pt x="278" y="400" on="1"/>
        <pt x="208" y="400" on="0"/>
        <pt x="134" y="316" on="0"/>
        <pt x="115" y="219" on="1"/>
        <pt x="105" y="167" on="0"/>
        <pt x="105" y="139" on="1"/>
        <pt x="105" y="91" on="0"/>
        <pt x="150" y="48" on="0"/>
        <pt x="199" y="48" on="1"/>
        <pt x="247" y="48" on="0"/>
        <pt x="309" y="65" on="1"/>
        <pt x="314" y="11" on="1"/>
        <pt x="254" y="-7" on="0"/>
        <pt x="192" y="-7" on="1"/>
        <pt x="113" y="-7" on="0"/>
        <pt x="42" y="75" on="0"/>
        <pt x="42" y="147" on="1"/>
        <pt x="42" y="186" on="0"/>
        <pt x="51" y="229" on="1"/>
        <pt x="96" y="455" on="0"/>
        <pt x="276" y="455" on="1"/>
        <pt x="342" y="455" on="0"/>
        <pt x="395" y="435" on="1"/>
        <pt x="377" y="386" on="1"/>
      </contour>
    </TTGlyph>
    <TTGlyph name="cacute" xMin="42" yMin="-7" xMax="433" yMax="649">
      <component glyphName="c" x="0" y="0" flags="0x400"/>
      <component glyphName="acutecomb" x="16" y="0" flags="0x400"/>
    </TTGlyph>
    <TTGlyph name="caron" xMin="175" yMin="509" xMax="443" yMax="647">
      <component glyphName="uni030C" x="0" y="0" flags="0x400"/>
    </TTGlyph>
    <TTGlyph name="carriagereturn" xMin="-4" yMin="54" xMax="473" yMax="448">
      <contour>
        <pt x="192" y="98" on="1" overlap="1"/>
        <pt x="147" y="54" on="1"/>
        <pt x="-4" y="202" on="1"/>
        <pt x="3" y="246" on="1"/>
        <pt x="211" y="394" on="1"/>
        <pt x="242" y="350" on="1"/>
        <pt x="115" y="256" on="1"/>
        <pt x="366" y="256" on="1"/>
        <pt x="405" y="448" on="1"/>
        <pt x="473" y="448" on="1"/>
        <pt x="421" y="192" on="1"/>
        <pt x="101" y="192" on="1"/>
      </contour>
    </TTGlyph>
    <TTGlyph name="ccaron" xMin="42" yMin="-7" xMax="459" yMax="647">
      <component glyphName="c" x="0" y="0" flags="0x400"/>
      <component glyphName="uni030C" x="16" y="0" flags="0x400"/>
    </TTGlyph>
    <TTGlyph name="ccedilla" xMin="25" yMin="-192" xMax="395" yMax="455">
      <component glyphName="c" x="0" y="0" flags="0x400"/>
      <component glyphName="uni0327" x="-22" y="0" flags="0x400"/>
    </TTGlyph>
    <TTGlyph name="ccircumflex" xMin="42" yMin="-7" xMax="430" yMax="649">
      <component glyphName="c" x="0" y="0" flags="0x400"/>
      <component glyphName="uni0302" x="16" y="0" flags="0x400"/>
    </TTGlyph>
    <TTGlyph name="cdotaccent" xMin="42" yMin="-7" xMax="395" yMax="648">
      <component glyphName="c" x="0" y="0" flags="0x400"/>
      <component glyphName="uni0307" x="16" y="0" flags="0x400"/>
    </TTGlyph>
    <TTGlyph name="cedilla" xMin="47" yMin="-192" xMax="274" yMax="13">
      <component glyphName="uni0327" x="0" y="0" flags="0x400"/>
    </TTGlyph>
    <TTGlyph name="cent" xMin="53" yMin="-64" xMax="406" yMax="640">
      <contour>
        <pt x="342" y="464" on="0" overlap="1"/>
        <pt x="289" y="464" on="1"/>
        <pt x="219" y="464" on="0"/>
        <pt x="145" y="380" on="0"/>
        <pt x="126" y="283" on="1"/>
        <pt x="116" y="231" on="0"/>
        <pt x="116" y="203" on="1"/>
        <pt x="116" y="155" on="0"/>
        <pt x="161" y="112" on="0"/>
        <pt x="210" y="112" on="1"/>
        <pt x="258" y="112" on="0"/>
        <pt x="320" y="129" on="1"/>
        <pt x="325" y="75" on="1"/>
        <pt x="276" y="60" on="0"/>
        <pt x="219" y="57" on="1"/>
        <pt x="195" y="-64" on="1"/>
        <pt x="138" y="-64" on="1"/>
        <pt x="162" y="60" on="1"/>
        <pt x="53" y="79" on="0"/>
        <pt x="53" y="211" on="1"/>
        <pt x="53" y="250" on="0"/>
        <pt x="62" y="293" on="1"/>
        <pt x="103" y="497" on="0"/>
        <pt x="254" y="517" on="1"/>
        <pt x="278" y="640" on="1"/>
        <pt x="336" y="640" on="1"/>
        <pt x="311" y="518" on="1"/>
        <pt x="363" y="515" on="0"/>
        <pt x="406" y="499" on="1"/>
        <pt x="388" y="450" on="1"/>
      </contour>
    </TTGlyph>
    <TTGlyph name="chi" xMin="-59" yMin="-192" xMax="445" yMax="448">
      <contour>
        <pt x="445" y="448" on="1" overlap="1"/>
        <pt x="248" y="154" on="1"/>
        <pt x="284" y="104" on="0"/>
        <pt x="316" y="-4" on="0"/>
        <pt x="316" y="-77" on="1"/>
        <pt x="316" y="-132" on="0"/>
        <pt x="309" y="-192" on="1"/>
        <pt x="238" y="-192" on="1"/>
        <pt x="246" y="-115" on="0"/>
        <pt x="246" y="-70" on="1"/>
        <pt x="246" y="-18" on="0"/>
        <pt x="227" y="59" on="0"/>
        <pt x="207" y="93" on="1"/>
        <pt x="16" y="-192" on="1"/>
        <pt x="-59" y="-192" on="1"/>
        <pt x="164" y="141" on="1"/>
        <pt x="123" y="213" on="0"/>
        <pt x="92" y="347" on="0"/>
        <pt x="94" y="448" on="1"/>
        <pt x="167" y="448" on="1"/>
        <pt x="165" y="363" on="0"/>
        <pt x="182" y="256" on="0"/>
        <pt x="207" y="205" on="1"/>
        <pt x="369" y="448" on="1"/>
      </contour>
    </TTGlyph>
    <TTGlyph name="circle" xMin="64" yMin="120" xMax="409" yMax="456">
      <contour>
        <pt x="144" y="120" on="0" overlap="1"/>
        <pt x="64" y="197" on="0"/>
        <pt x="64" y="258" on="1"/>
        <pt x="64" y="277" on="0"/>
        <pt x="68" y="294" on="1"/>
        <pt x="77" y="340" on="0"/>
        <pt x="136" y="414" on="0"/>
        <pt x="219" y="456" on="0"/>
        <pt x="265" y="456" on="1"/>
        <pt x="330" y="456" on="0"/>
        <pt x="409" y="378" on="0"/>
        <pt x="409" y="317" on="1"/>
        <pt x="409" y="300" on="0"/>
        <pt x="406" y="282" on="1"/>
        <pt x="397" y="236" on="0"/>
        <pt x="338" y="162" on="0"/>
        <pt x="254" y="120" on="0"/>
        <pt x="208" y="120" on="1"/>
      </contour>
      <contour>
        <pt x="133" y="226" on="0"/>
        <pt x="176" y="184" on="0"/>
        <pt x="211" y="184" on="1"/>
        <pt x="244" y="184" on="0"/>
        <pt x="303" y="220" on="0"/>
        <pt x="340" y="280" on="0"/>
        <pt x="340" y="315" on="1"/>
        <pt x="340" y="349" on="0"/>
        <pt x="298" y="392" on="0"/>
        <pt x="263" y="392" on="1"/>
        <pt x="230" y="392" on="0"/>
        <pt x="170" y="356" on="0"/>
        <pt x="133" y="295" on="0"/>
        <pt x="133" y="259" on="1"/>
      </contour>
    </TTGlyph>
    <TTGlyph name="circumflex" xMin="147" yMin="511" xMax="414" yMax="649">
      <component glyphName="uni0302" x="0" y="0" flags="0x400"/>
    </TTGlyph>
    <TTGlyph name="club" xMin="32" yMin="64" xMax="416" yMax="512">
      <contour>
        <pt x="416" y="384" on="1" overlap="1"/>
        <pt x="378" y="192" on="1"/>
        <pt x="314" y="192" on="1"/>
        <pt x="326" y="256" on="1"/>
        <pt x="262" y="256" on="1"/>
        <pt x="237" y="128" on="1"/>
        <pt x="365" y="128" on="1"/>
        <pt x="352" y="64" on="1"/>
        <pt x="32" y="64" on="1"/>
        <pt x="45" y="128" on="1"/>
        <pt x="173" y="128" on="1"/>
        <pt x="198" y="256" on="1"/>
        <pt x="134" y="256" on="1"/>
        <pt x="122" y="192" on="1"/>
        <pt x="58" y="192" on="1"/>
        <pt x="96" y="384" on="1"/>
        <pt x="160" y="384" on="1"/>
        <pt x="147" y="320" on="1"/>
        <pt x="211" y="320" on="1"/>
        <pt x="237" y="448" on="1"/>
        <pt x="173" y="448" on="1"/>
        <pt x="186" y="512" on="1"/>
        <pt x="378" y="512" on="1"/>
        <pt x="365" y="448" on="1"/>
        <pt x="301" y="448" on="1"/>
        <pt x="275" y="320" on="1"/>
        <pt x="339" y="320" on="1"/>
        <pt x="352" y="384" on="1"/>
      </contour>
    </TTGlyph>
    <TTGlyph name="colon" xMin="97" yMin="-10" xMax="287" yMax="458">
      <contour>
        <pt x="188" y="108" on="0" overlap="1"/>
        <pt x="217" y="81" on="0"/>
        <pt x="217" y="58" on="1"/>
        <pt x="217" y="26" on="0"/>
        <pt x="177" y="-10" on="0"/>
        <pt x="150" y="-10" on="1"/>
        <pt x="127" y="-10" on="0"/>
        <pt x="97" y="16" on="0"/>
        <pt x="97" y="39" on="1"/>
        <pt x="97" y="71" on="0"/>
        <pt x="137" y="108" on="0"/>
        <pt x="165" y="108" on="1"/>
      </contour>
      <contour>
        <pt x="167" y="421" on="0"/>
        <pt x="207" y="458" on="0"/>
        <pt x="234" y="458" on="1"/>
        <pt x="257" y="458" on="0"/>
        <pt x="287" y="432" on="0"/>
        <pt x="287" y="409" on="1"/>
        <pt x="287" y="376" on="0"/>
        <pt x="247" y="340" on="0"/>
        <pt x="219" y="340" on="1"/>
        <pt x="197" y="340" on="0"/>
        <pt x="167" y="366" on="0"/>
        <pt x="167" y="389" on="1"/>
      </contour>
    </TTGlyph>
    <TTGlyph name="comma" xMin="72" yMin="-132" xMax="216" yMax="108">
      <contour>
        <pt x="186" y="108" on="0" overlap="1"/>
        <pt x="216" y="79" on="0"/>
        <pt x="216" y="51" on="1"/>
        <pt x="216" y="39" on="0"/>
        <pt x="213" y="22" on="1"/>
        <pt x="197" y="-63" on="0"/>
        <pt x="101" y="-132" on="1"/>
        <pt x="72" y="-91" on="1"/>
        <pt x="100" y="-70" on="0"/>
        <pt x="138" y="-31" on="0"/>
        <pt x="148" y="-8" on="1"/>
        <pt x="124" y="-9" on="0"/>
        <pt x="97" y="18" on="0"/>
        <pt x="97" y="40" on="1"/>
        <pt x="97" y="70" on="0"/>
        <pt x="136" y="108" on="0"/>
        <pt x="162" y="108" on="1"/>
      </contour>
    </TTGlyph>
    <TTGlyph name="copyright" xMin="11" yMin="13" xMax="450" yMax="499">
      <contour>
        <pt x="138" y="13" on="0" overlap="1"/>
        <pt x="58" y="55" on="0"/>
        <pt x="11" y="138" on="0"/>
        <pt x="11" y="197" on="1"/>
        <pt x="11" y="229" on="0"/>
        <pt x="18" y="261" on="1"/>
        <pt x="33" y="338" on="0"/>
        <pt x="114" y="445" on="0"/>
        <pt x="220" y="499" on="0"/>
        <pt x="274" y="499" on="1"/>
        <pt x="322" y="499" on="0"/>
        <pt x="402" y="458" on="0"/>
        <pt x="450" y="376" on="0"/>
        <pt x="450" y="317" on="1"/>
        <pt x="450" y="285" on="0"/>
        <pt x="443" y="251" on="1"/>
        <pt x="428" y="175" on="0"/>
        <pt x="347" y="67" on="0"/>
        <pt x="240" y="13" on="0"/>
        <pt x="186" y="13" on="1"/>
      </contour>
      <contour>
        <pt x="57" y="220" on="0"/>
        <pt x="57" y="192" on="1"/>
        <pt x="57" y="129" on="0"/>
        <pt x="121" y="57" on="0"/>
        <pt x="186" y="57" on="1"/>
        <pt x="268" y="57" on="0"/>
        <pt x="379" y="170" on="0"/>
        <pt x="398" y="261" on="1"/>
        <pt x="404" y="291" on="0"/>
        <pt x="404" y="319" on="1"/>
        <pt x="404" y="382" on="0"/>
        <pt x="339" y="455" on="0"/>
        <pt x="275" y="455" on="1"/>
        <pt x="193" y="455" on="0"/>
        <pt x="81" y="341" on="0"/>
        <pt x="63" y="251" on="1"/>
      </contour>
      <contour>
        <pt x="134" y="326" on="0"/>
        <pt x="206" y="397" on="0"/>
        <pt x="265" y="397" on="1"/>
        <pt x="306" y="397" on="0"/>
        <pt x="341" y="381" on="1"/>
        <pt x="323" y="343" on="1"/>
        <pt x="299" y="353" on="0"/>
        <pt x="267" y="353" on="1"/>
        <pt x="227" y="353" on="0"/>
        <pt x="181" y="307" on="0"/>
        <pt x="170" y="253" on="1"/>
        <pt x="165" y="228" on="0"/>
        <pt x="165" y="214" on="1"/>
        <pt x="165" y="187" on="0"/>
        <pt x="192" y="164" on="0"/>
        <pt x="221" y="164" on="1"/>
        <pt x="248" y="164" on="0"/>
        <pt x="287" y="176" on="1"/>
        <pt x="295" y="134" on="1"/>
        <pt x="257" y="120" on="0"/>
        <pt x="218" y="120" on="1"/>
        <pt x="167" y="120" on="0"/>
        <pt x="116" y="172" on="0"/>
        <pt x="116" y="219" on="1"/>
        <pt x="116" y="236" on="0"/>
        <pt x="121" y="263" on="1"/>
      </contour>
    </TTGlyph>
    <TTGlyph name="currency" xMin="20" yMin="59" xMax="454" yMax="517">
      <contour>
        <pt x="312" y="464" on="0" overlap="1"/>
        <pt x="347" y="444" on="1"/>
        <pt x="413" y="517" on="1"/>
        <pt x="454" y="483" on="1"/>
        <pt x="387" y="410" on="1"/>
        <pt x="416" y="373" on="0"/>
        <pt x="416" y="320" on="1"/>
        <pt x="416" y="300" on="0"/>
        <pt x="412" y="283" on="1"/>
        <pt x="405" y="247" on="0"/>
        <pt x="366" y="185" on="0"/>
        <pt x="338" y="161" on="1"/>
        <pt x="376" y="93" on="1"/>
        <pt x="324" y="59" on="1"/>
        <pt x="286" y="129" on="1"/>
        <pt x="247" y="112" on="0"/>
        <pt x="206" y="112" on="1"/>
        <pt x="162" y="112" on="0"/>
        <pt x="127" y="131" on="1"/>
        <pt x="61" y="59" on="1"/>
        <pt x="20" y="93" on="1"/>
        <pt x="87" y="166" on="1"/>
        <pt x="58" y="204" on="0"/>
        <pt x="58" y="258" on="1"/>
        <pt x="58" y="275" on="0"/>
        <pt x="61" y="293" on="1"/>
        <pt x="68" y="329" on="0"/>
        <pt x="107" y="391" on="0"/>
        <pt x="135" y="415" on="1"/>
        <pt x="98" y="483" on="1"/>
        <pt x="149" y="517" on="1"/>
        <pt x="187" y="447" on="1"/>
        <pt x="226" y="464" on="0"/>
        <pt x="267" y="464" on="1"/>
      </contour>
      <contour>
        <pt x="117" y="275" on="0"/>
        <pt x="117" y="260" on="1"/>
        <pt x="117" y="220" on="0"/>
        <pt x="167" y="168" on="0"/>
        <pt x="208" y="168" on="1"/>
        <pt x="246" y="168" on="0"/>
        <pt x="315" y="210" on="0"/>
        <pt x="357" y="279" on="0"/>
        <pt x="357" y="318" on="1"/>
        <pt x="357" y="358" on="0"/>
        <pt x="307" y="408" on="0"/>
        <pt x="265" y="408" on="1"/>
        <pt x="214" y="408" on="0"/>
        <pt x="130" y="335" on="0"/>
        <pt x="119" y="283" on="1"/>
      </contour>
    </TTGlyph>
    <TTGlyph name="d" xMin="46" yMin="-8" xMax="469" yMax="640">
      <contour>
        <pt x="106" y="-8" on="0" overlap="1"/>
        <pt x="46" y="76" on="0"/>
        <pt x="46" y="145" on="1"/>
        <pt x="46" y="186" on="0"/>
        <pt x="55" y="229" on="1"/>
        <pt x="75" y="327" on="0"/>
        <pt x="176" y="456" on="0"/>
        <pt x="254" y="456" on="1"/>
        <pt x="322" y="456" on="0"/>
        <pt x="360" y="406" on="1"/>
        <pt x="408" y="640" on="1"/>
        <pt x="469" y="640" on="1"/>
        <pt x="354" y="64" on="1"/>
        <pt x="346" y="0" on="1"/>
        <pt x="292" y="0" on="1"/>
        <pt x="294" y="62" on="1"/>
        <pt x="245" y="-8" on="0"/>
        <pt x="169" y="-8" on="1"/>
      </contour>
      <contour>
        <pt x="111" y="172" on="0"/>
        <pt x="111" y="136" on="1"/>
        <pt x="111" y="90" on="0"/>
        <pt x="146" y="47" on="0"/>
        <pt x="180" y="47" on="1"/>
        <pt x="287" y="47" on="0"/>
        <pt x="329" y="253" on="1"/>
        <pt x="350" y="354" on="1"/>
        <pt x="321" y="401" on="0"/>
        <pt x="261" y="401" on="1"/>
        <pt x="209" y="401" on="0"/>
        <pt x="140" y="314" on="0"/>
        <pt x="121" y="219" on="1"/>
      </contour>
    </TTGlyph>
    <TTGlyph name="dagger" xMin="102" yMin="0" xMax="428" yMax="640">
      <contour>
        <pt x="299" y="454" on="1" overlap="1"/>
        <pt x="428" y="454" on="1"/>
        <pt x="417" y="400" on="1"/>
        <pt x="288" y="400" on="1"/>
        <pt x="208" y="0" on="1"/>
        <pt x="150" y="0" on="1"/>
        <pt x="230" y="400" on="1"/>
        <pt x="102" y="400" on="1"/>
        <pt x="113" y="454" on="1"/>
        <pt x="241" y="454" on="1"/>
        <pt x="278" y="640" on="1"/>
        <pt x="336" y="640" on="1"/>
      </contour>
    </TTGlyph>
    <TTGlyph name="daggerdbl" xMin="59" yMin="0" xMax="428" yMax="640">
      <contour>
        <pt x="299" y="454" on="1" overlap="1"/>
        <pt x="428" y="454" on="1"/>
        <pt x="416" y="398" on="1"/>
        <pt x="288" y="398" on="1"/>
        <pt x="256" y="242" on="1"/>
        <pt x="385" y="242" on="1"/>
        <pt x="374" y="186" on="1"/>
        <pt x="245" y="186" on="1"/>
        <pt x="208" y="0" on="1"/>
        <pt x="150" y="0" on="1"/>
        <pt x="187" y="186" on="1"/>
        <pt x="59" y="186" on="1"/>
        <pt x="70" y="242" on="1"/>
        <pt x="198" y="242" on="1"/>
        <pt x="230" y="398" on="1"/>
        <pt x="101" y="398" on="1"/>
        <pt x="113" y="454" on="1"/>
        <pt x="241" y="454" on="1"/>
        <pt x="278" y="640" on="1"/>
        <pt x="336" y="640" on="1"/>
      </contour>
    </TTGlyph>
    <TTGlyph name="dcaron" xMin="8" yMin="-8" xMax="559" yMax="640">
      <component glyphName="d" x="-38" y="0" flags="0x400"/>
      <component glyphName="uni030C.alt" x="44" y="0" flags="0x400"/>
    </TTGlyph>
    <TTGlyph name="dcroat" xMin="46" yMin="-8" xMax="504" yMax="640">
      <component glyphName="d" x="0" y="0" flags="0x400"/>
      <component glyphName="uni0335" x="148" y="310" flags="0x404"/>
    </TTGlyph>
    <TTGlyph name="degree" xMin="150" yMin="377" xMax="424" yMax="647">
      <contour>
        <pt x="362" y="647" on="0" overlap="1"/>
        <pt x="424" y="583" on="0"/>
        <pt x="424" y="535" on="1"/>
        <pt x="424" y="495" on="0"/>
        <pt x="380" y="422" on="0"/>
        <pt x="307" y="377" on="0"/>
        <pt x="265" y="377" on="1"/>
        <pt x="213" y="377" on="0"/>
        <pt x="150" y="441" on="0"/>
        <pt x="150" y="489" on="1"/>
        <pt x="150" y="529" on="0"/>
        <pt x="193" y="602" on="0"/>
        <pt x="267" y="647" on="0"/>
        <pt x="310" y="647" on="1"/>
      </contour>
      <contour>
        <pt x="206" y="461" on="0"/>
        <pt x="235" y="428" on="0"/>
        <pt x="266" y="428" on="1"/>
        <pt x="297" y="428" on="0"/>
        <pt x="344" y="462" on="0"/>
        <pt x="368" y="512" on="0"/>
        <pt x="368" y="536" on="1"/>
        <pt x="368" y="562" on="0"/>
        <pt x="339" y="596" on="0"/>
        <pt x="308" y="596" on="1"/>
        <pt x="276" y="596" on="0"/>
        <pt x="229" y="561" on="0"/>
        <pt x="206" y="509" on="0"/>
        <pt x="206" y="486" on="1"/>
      </contour>
    </TTGlyph>
    <TTGlyph name="delta" xMin="37" yMin="-13" xMax="464" yMax="642">
      <contour>
        <pt x="388" y="578" on="0" overlap="1"/>
        <pt x="353" y="578" on="1"/>
        <pt x="297" y="578" on="0"/>
        <pt x="247" y="529" on="0"/>
        <pt x="247" y="495" on="1"/>
        <pt x="247" y="480" on="0"/>
        <pt x="268" y="450" on="0"/>
        <pt x="294" y="426" on="1"/>
        <pt x="337" y="392" on="0"/>
        <pt x="395" y="304" on="0"/>
        <pt x="395" y="240" on="1"/>
        <pt x="395" y="211" on="0"/>
        <pt x="390" y="187" on="1"/>
        <pt x="374" y="104" on="0"/>
        <pt x="266" y="-13" on="0"/>
        <pt x="178" y="-13" on="1"/>
        <pt x="105" y="-13" on="0"/>
        <pt x="37" y="71" on="0"/>
        <pt x="37" y="133" on="1"/>
        <pt x="37" y="155" on="0"/>
        <pt x="42" y="182" on="1"/>
        <pt x="55" y="252" on="0"/>
        <pt x="149" y="364" on="0"/>
        <pt x="220" y="400" on="1"/>
        <pt x="174" y="438" on="0"/>
        <pt x="174" y="491" on="1"/>
        <pt x="174" y="507" on="0"/>
        <pt x="177" y="523" on="1"/>
        <pt x="187" y="575" on="0"/>
        <pt x="273" y="642" on="0"/>
        <pt x="357" y="642" on="1"/>
        <pt x="403" y="642" on="0"/>
        <pt x="464" y="635" on="1"/>
        <pt x="450" y="573" on="1"/>
      </contour>
      <contour>
        <pt x="110" y="151" on="0"/>
        <pt x="110" y="131" on="1"/>
        <pt x="110" y="93" on="0"/>
        <pt x="146" y="51" on="0"/>
        <pt x="182" y="51" on="1"/>
        <pt x="235" y="51" on="0"/>
        <pt x="305" y="126" on="0"/>
        <pt x="319" y="197" on="1"/>
        <pt x="323" y="217" on="0"/>
        <pt x="323" y="239" on="1"/>
        <pt x="323" y="307" on="0"/>
        <pt x="272" y="358" on="1"/>
        <pt x="197" y="320" on="0"/>
        <pt x="127" y="232" on="0"/>
        <pt x="114" y="171" on="1"/>
      </contour>
    </TTGlyph>
    <TTGlyph name="diamond" xMin="71" yMin="80" xMax="395" yMax="456">
      <contour>
        <pt x="247" y="456" on="1" overlap="1"/>
        <pt x="291" y="456" on="1"/>
        <pt x="395" y="284" on="1"/>
        <pt x="390" y="252" on="1"/>
        <pt x="218" y="80" on="1"/>
        <pt x="174" y="80" on="1"/>
        <pt x="71" y="252" on="1"/>
        <pt x="75" y="284" on="1"/>
      </contour>
    </TTGlyph>
    <TTGlyph name="dieresis" xMin="156" yMin="539" xMax="439" yMax="646">
      <component glyphName="uni0308" x="0" y="0" flags="0x400"/>
    </TTGlyph>
    <TTGlyph name="dieresistonos" xMin="129" yMin="512" xMax="464" yMax="704">
      <contour>
        <pt x="372" y="704" on="1" overlap="1"/>
        <pt x="304" y="512" on="1"/>
        <pt x="239" y="512" on="1"/>
        <pt x="288" y="704" on="1"/>
      </contour>
      <contour>
        <pt x="143" y="650" on="0"/>
        <pt x="177" y="650" on="1"/>
        <pt x="208" y="650" on="0"/>
        <pt x="208" y="609" on="1"/>
        <pt x="208" y="596" on="0"/>
        <pt x="205" y="581" on="1"/>
        <pt x="194" y="522" on="0"/>
        <pt x="160" y="522" on="1"/>
        <pt x="129" y="522" on="0"/>
        <pt x="129" y="563" on="1"/>
        <pt x="129" y="576" on="0"/>
        <pt x="132" y="591" on="1"/>
      </contour>
      <contour>
        <pt x="399" y="650" on="0"/>
        <pt x="433" y="650" on="1"/>
        <pt x="464" y="650" on="0"/>
        <pt x="464" y="609" on="1"/>
        <pt x="464" y="596" on="0"/>
        <pt x="461" y="581" on="1"/>
        <pt x="450" y="522" on="0"/>
        <pt x="416" y="522" on="1"/>
        <pt x="385" y="522" on="0"/>
        <pt x="385" y="563" on="1"/>
        <pt x="385" y="576" on="0"/>
        <pt x="388" y="591" on="1"/>
      </contour>
    </TTGlyph>
    <TTGlyph name="divide" xMin="31" yMin="67" xMax="442" yMax="509">
      <contour>
        <pt x="42" y="315" on="1" overlap="1"/>
        <pt x="442" y="315" on="1"/>
        <pt x="431" y="261" on="1"/>
        <pt x="31" y="261" on="1"/>
      </contour>
      <contour>
        <pt x="145" y="147" on="0"/>
        <pt x="185" y="185" on="0"/>
        <pt x="212" y="185" on="1"/>
        <pt x="235" y="185" on="0"/>
        <pt x="264" y="159" on="0"/>
        <pt x="264" y="136" on="1"/>
        <pt x="264" y="103" on="0"/>
        <pt x="225" y="67" on="0"/>
        <pt x="197" y="67" on="1"/>
        <pt x="174" y="67" on="0"/>
        <pt x="145" y="92" on="0"/>
        <pt x="145" y="115" on="1"/>
      </contour>
      <contour>
        <pt x="209" y="471" on="0"/>
        <pt x="250" y="509" on="0"/>
        <pt x="277" y="509" on="1"/>
        <pt x="300" y="509" on="0"/>
        <pt x="329" y="483" on="0"/>
        <pt x="329" y="460" on="1"/>
        <pt x="329" y="427" on="0"/>
        <pt x="289" y="391" on="0"/>
        <pt x="261" y="391" on="1"/>
        <pt x="238" y="391" on="0"/>
        <pt x="209" y="417" on="0"/>
        <pt x="209" y="440" on="1"/>
      </contour>
    </TTGlyph>
    <TTGlyph name="dkshade" xMin="-70" yMin="-192" xMax="506" yMax="832">
      <contour>
        <pt x="32" y="64" on="1" overlap="1"/>
        <pt x="45" y="128" on="1"/>
        <pt x="-19" y="128" on="1"/>
        <pt x="-6" y="192" on="1"/>
        <pt x="6" y="256" on="1"/>
        <pt x="19" y="320" on="1"/>
        <pt x="83" y="320" on="1"/>
        <pt x="96" y="384" on="1"/>
        <pt x="32" y="384" on="1"/>
        <pt x="58" y="512" on="1"/>
        <pt x="70" y="576" on="1"/>
        <pt x="134" y="576" on="1"/>
        <pt x="147" y="640" on="1"/>
        <pt x="83" y="640" on="1"/>
        <pt x="122" y="832" on="1"/>
        <pt x="506" y="832" on="1"/>
        <pt x="493" y="768" on="1"/>
        <pt x="429" y="768" on="1"/>
        <pt x="416" y="704" on="1"/>
        <pt x="480" y="704" on="1"/>
        <pt x="454" y="576" on="1"/>
        <pt x="442" y="512" on="1"/>
        <pt x="378" y="512" on="1"/>
        <pt x="365" y="448" on="1"/>
        <pt x="429" y="448" on="1"/>
        <pt x="390" y="256" on="1"/>
        <pt x="326" y="256" on="1"/>
        <pt x="314" y="192" on="1"/>
        <pt x="378" y="192" on="1"/>
        <pt x="339" y="0" on="1"/>
        <pt x="275" y="0" on="1"/>
        <pt x="262" y="-64" on="1"/>
        <pt x="326" y="-64" on="1"/>
        <pt x="314" y="-128" on="1"/>
        <pt x="301" y="-192" on="1"/>
        <pt x="237" y="-192" on="1"/>
        <pt x="250" y="-128" on="1"/>
        <pt x="186" y="-128" on="1"/>
        <pt x="173" y="-192" on="1"/>
        <pt x="109" y="-192" on="1"/>
        <pt x="122" y="-128" on="1"/>
        <pt x="58" y="-128" on="1"/>
        <pt x="45" y="-192" on="1"/>
        <pt x="-19" y="-192" on="1"/>
        <pt x="-6" y="-128" on="1"/>
        <pt x="-70" y="-128" on="1"/>
        <pt x="-58" y="-64" on="1"/>
        <pt x="-32" y="64" on="1"/>
      </contour>
      <contour>
        <pt x="70" y="-64" on="1"/>
        <pt x="83" y="0" on="1"/>
        <pt x="19" y="0" on="1"/>
        <pt x="6" y="-64" on="1"/>
      </contour>
      <contour>
        <pt x="122" y="192" on="1"/>
        <pt x="134" y="256" on="1"/>
        <pt x="70" y="256" on="1"/>
        <pt x="58" y="192" on="1"/>
      </contour>
      <contour>
        <pt x="160" y="64" on="1"/>
        <pt x="173" y="128" on="1"/>
        <pt x="109" y="128" on="1"/>
        <pt x="96" y="64" on="1"/>
      </contour>
      <contour>
        <pt x="173" y="448" on="1"/>
        <pt x="186" y="512" on="1"/>
        <pt x="122" y="512" on="1"/>
        <pt x="109" y="448" on="1"/>
      </contour>
      <contour>
        <pt x="198" y="-64" on="1"/>
        <pt x="211" y="0" on="1"/>
        <pt x="147" y="0" on="1"/>
        <pt x="134" y="-64" on="1"/>
      </contour>
      <contour>
        <pt x="211" y="320" on="1"/>
        <pt x="224" y="384" on="1"/>
        <pt x="160" y="384" on="1"/>
        <pt x="147" y="320" on="1"/>
      </contour>
      <contour>
        <pt x="224" y="704" on="1"/>
        <pt x="237" y="768" on="1"/>
        <pt x="173" y="768" on="1"/>
        <pt x="160" y="704" on="1"/>
      </contour>
      <contour>
        <pt x="250" y="192" on="1"/>
        <pt x="262" y="256" on="1"/>
        <pt x="198" y="256" on="1"/>
        <pt x="186" y="192" on="1"/>
      </contour>
      <contour>
        <pt x="262" y="576" on="1"/>
        <pt x="275" y="640" on="1"/>
        <pt x="211" y="640" on="1"/>
        <pt x="198" y="576" on="1"/>
      </contour>
      <contour>
        <pt x="288" y="64" on="1"/>
        <pt x="301" y="128" on="1"/>
        <pt x="237" y="128" on="1"/>
        <pt x="224" y="64" on="1"/>
      </contour>
      <contour>
        <pt x="301" y="448" on="1"/>
        <pt x="314" y="512" on="1"/>
        <pt x="250" y="512" on="1"/>
        <pt x="237" y="448" on="1"/>
      </contour>
      <contour>
        <pt x="339" y="320" on="1"/>
        <pt x="352" y="384" on="1"/>
        <pt x="288" y="384" on="1"/>
        <pt x="275" y="320" on="1"/>
      </contour>
      <contour>
        <pt x="352" y="704" on="1"/>
        <pt x="365" y="768" on="1"/>
        <pt x="301" y="768" on="1"/>
        <pt x="288" y="704" on="1"/>
      </contour>
      <contour>
        <pt x="390" y="576" on="1"/>
        <pt x="403" y="640" on="1"/>
        <pt x="339" y="640" on="1"/>
        <pt x="326" y="576" on="1"/>
      </contour>
    </TTGlyph>
    <TTGlyph name="dnblock" xMin="-83" yMin="-192" xMax="467" yMax="320">
      <contour>
        <pt x="-83" y="-192" on="1" overlap="1"/>
        <pt x="19" y="320" on="1"/>
        <pt x="467" y="320" on="1"/>
        <pt x="365" y="-192" on="1"/>
      </contour>
    </TTGlyph>
    <TTGlyph name="dollar" xMin="17" yMin="-128" xMax="438" yMax="704">
      <contour>
        <pt x="36" y="70" on="1" overlap="1"/>
        <pt x="96" y="48" on="0"/>
        <pt x="161" y="48" on="1"/>
        <pt x="235" y="48" on="0"/>
        <pt x="309" y="100" on="0"/>
        <pt x="309" y="145" on="1"/>
        <pt x="309" y="177" on="0"/>
        <pt x="266" y="216" on="0"/>
        <pt x="219" y="242" on="1"/>
        <pt x="180" y="263" on="0"/>
        <pt x="132" y="298" on="0"/>
        <pt x="98" y="355" on="0"/>
        <pt x="98" y="396" on="1"/>
        <pt x="98" y="469" on="0"/>
        <pt x="184" y="567" on="0"/>
        <pt x="267" y="580" on="1"/>
        <pt x="291" y="704" on="1"/>
        <pt x="349" y="704" on="1"/>
        <pt x="325" y="584" on="1"/>
        <pt x="383" y="584" on="0"/>
        <pt x="438" y="565" on="1"/>
        <pt x="423" y="516" on="1"/>
        <pt x="373" y="528" on="0"/>
        <pt x="323" y="528" on="1"/>
        <pt x="162" y="528" on="0"/>
        <pt x="162" y="400" on="1"/>
        <pt x="162" y="363" on="0"/>
        <pt x="210" y="318" on="0"/>
        <pt x="258" y="293" on="1"/>
        <pt x="295" y="273" on="0"/>
        <pt x="340" y="240" on="0"/>
        <pt x="372" y="188" on="0"/>
        <pt x="372" y="151" on="1"/>
        <pt x="372" y="88" on="0"/>
        <pt x="288" y="5" on="0"/>
        <pt x="207" y="-5" on="1"/>
        <pt x="183" y="-128" on="1"/>
        <pt x="125" y="-128" on="1"/>
        <pt x="149" y="-8" on="1"/>
        <pt x="72" y="-5" on="0"/>
        <pt x="17" y="23" on="1"/>
      </contour>
    </TTGlyph>
    <TTGlyph name="dotaccent" xMin="240" yMin="535" xMax="355" yMax="648">
      <component glyphName="uni0307" x="0" y="0" flags="0x400"/>
    </TTGlyph>
    <TTGlyph name="dotbelowcomb" xMin="98" yMin="-175" xMax="213" yMax="-62">
      <component glyphName="uni0307" x="-142" y="-710" flags="0x404"/>
    </TTGlyph>
    <TTGlyph name="dotlessi" xMin="112" yMin="0" xMax="308" yMax="448">
      <contour>
        <pt x="235" y="390" on="1" overlap="1"/>
        <pt x="112" y="398" on="1"/>
        <pt x="122" y="448" on="1"/>
        <pt x="308" y="448" on="1"/>
        <pt x="218" y="0" on="1"/>
        <pt x="156" y="0" on="1"/>
      </contour>
    </TTGlyph>
    <TTGlyph name="dotmath" xMin="129" yMin="229" xMax="249" yMax="347">
      <component glyphName="period" x="32" y="239" flags="0x404"/>
    </TTGlyph>
    <TTGlyph name="e" xMin="44" yMin="-13" xMax="405" yMax="461">
      <contour>
        <pt x="75" y="335" on="0" overlap="1"/>
        <pt x="179" y="461" on="0"/>
        <pt x="267" y="461" on="1"/>
        <pt x="334" y="461" on="0"/>
        <pt x="405" y="382" on="0"/>
        <pt x="405" y="310" on="1"/>
        <pt x="405" y="266" on="0"/>
        <pt x="389" y="204" on="1"/>
        <pt x="115" y="206" on="1"/>
        <pt x="108" y="170" on="0"/>
        <pt x="108" y="137" on="1"/>
        <pt x="108" y="88" on="0"/>
        <pt x="154" y="42" on="0"/>
        <pt x="207" y="42" on="1"/>
        <pt x="254" y="42" on="0"/>
        <pt x="327" y="64" on="1"/>
        <pt x="333" y="13" on="1"/>
        <pt x="267" y="-13" on="0"/>
        <pt x="199" y="-13" on="1"/>
        <pt x="44" y="-13" on="0"/>
        <pt x="44" y="144" on="1"/>
        <pt x="44" y="179" on="0"/>
        <pt x="54" y="229" on="1"/>
      </contour>
      <contour>
        <pt x="335" y="261" on="1"/>
        <pt x="341" y="294" on="0"/>
        <pt x="341" y="318" on="1"/>
        <pt x="341" y="405" on="0"/>
        <pt x="265" y="405" on="1"/>
        <pt x="213" y="405" on="0"/>
        <pt x="147" y="337" on="0"/>
        <pt x="128" y="261" on="1"/>
      </contour>
    </TTGlyph>
    <TTGlyph name="eacute" xMin="44" yMin="-13" xMax="417" yMax="649">
      <component glyphName="e" x="0" y="0" flags="0x400"/>
      <component glyphName="acutecomb" x="0" y="0" flags="0x400"/>
    </TTGlyph>
    <TTGlyph name="ebreve" xMin="44" yMin="-13" xMax="433" yMax="642">
      <component glyphName="e" x="0" y="0" flags="0x400"/>
      <component glyphName="uni0306" x="0" y="0" flags="0x400"/>
    </TTGlyph>
    <TTGlyph name="ecaron" xMin="44" yMin="-13" xMax="443" yMax="647">
      <component glyphName="e" x="0" y="0" flags="0x400"/>
      <component glyphName="uni030C" x="0" y="0" flags="0x400"/>
    </TTGlyph>
    <TTGlyph name="ecircumflex" xMin="44" yMin="-13" xMax="414" yMax="649">
      <component glyphName="e" x="0" y="0" flags="0x400"/>
      <component glyphName="uni0302" x="0" y="0" flags="0x400"/>
    </TTGlyph>
    <TTGlyph name="edieresis" xMin="44" yMin="-13" xMax="439" yMax="646">
      <component glyphName="e" x="0" y="0" flags="0x400"/>
      <component glyphName="uni0308" x="0" y="0" flags="0x400"/>
    </TTGlyph>
    <TTGlyph name="edotaccent" xMin="44" yMin="-13" xMax="405" yMax="648">
      <component glyphName="e" x="0" y="0" flags="0x400"/>
      <component glyphName="uni0307" x="0" y="0" flags="0x400"/>
    </TTGlyph>
    <TTGlyph name="egrave" xMin="44" yMin="-13" xMax="405" yMax="643">
      <component glyphName="e" x="0" y="0" flags="0x400"/>
      <component glyphName="gravecomb" x="0" y="0" flags="0x400"/>
    </TTGlyph>
    <TTGlyph name="eight" xMin="16" yMin="-11" xMax="433" yMax="586">
      <contour>
        <pt x="97" y="-11" on="0" overlap="1"/>
        <pt x="16" y="58" on="0"/>
        <pt x="16" y="114" on="1"/>
        <pt x="16" y="130" on="0"/>
        <pt x="19" y="146" on="1"/>
        <pt x="29" y="196" on="0"/>
        <pt x="98" y="276" on="0"/>
        <pt x="149" y="305" on="1"/>
        <pt x="99" y="350" on="0"/>
        <pt x="99" y="404" on="1"/>
        <pt x="99" y="419" on="0"/>
        <pt x="102" y="434" on="1"/>
        <pt x="115" y="500" on="0"/>
        <pt x="227" y="586" on="0"/>
        <pt x="299" y="586" on="1"/>
        <pt x="360" y="586" on="0"/>
        <pt x="433" y="522" on="0"/>
        <pt x="433" y="467" on="1"/>
        <pt x="433" y="456" on="0"/>
        <pt x="429" y="432" on="1"/>
        <pt x="421" y="392" on="0"/>
        <pt x="364" y="311" on="0"/>
        <pt x="315" y="279" on="1"/>
        <pt x="357" y="254" on="0"/>
        <pt x="399" y="200" on="0"/>
        <pt x="399" y="166" on="1"/>
        <pt x="399" y="122" on="0"/>
        <pt x="342" y="40" on="0"/>
        <pt x="239" y="-11" on="0"/>
        <pt x="174" y="-11" on="1"/>
      </contour>
      <contour>
        <pt x="82" y="141" on="0"/>
        <pt x="82" y="129" on="1"/>
        <pt x="82" y="91" on="0"/>
        <pt x="136" y="45" on="0"/>
        <pt x="191" y="45" on="1"/>
        <pt x="252" y="45" on="0"/>
        <pt x="323" y="98" on="0"/>
        <pt x="330" y="132" on="1"/>
        <pt x="332" y="144" on="0"/>
        <pt x="332" y="150" on="1"/>
        <pt x="332" y="176" on="0"/>
        <pt x="283" y="223" on="0"/>
        <pt x="217" y="258" on="1"/>
        <pt x="185" y="277" on="1"/>
        <pt x="136" y="252" on="0"/>
        <pt x="92" y="191" on="0"/>
        <pt x="85" y="154" on="1"/>
      </contour>
      <contour>
        <pt x="165" y="387" on="0"/>
        <pt x="213" y="334" on="0"/>
        <pt x="277" y="301" on="1"/>
        <pt x="348" y="354" on="0"/>
        <pt x="364" y="428" on="1"/>
        <pt x="367" y="442" on="0"/>
        <pt x="367" y="454" on="1"/>
        <pt x="367" y="488" on="0"/>
        <pt x="325" y="530" on="0"/>
        <pt x="282" y="530" on="1"/>
        <pt x="223" y="530" on="0"/>
        <pt x="165" y="460" on="0"/>
        <pt x="165" y="416" on="1"/>
      </contour>
    </TTGlyph>
    <TTGlyph name="eight.dnom" xMin="108" yMin="-198" xMax="358" yMax="134">
      <component glyphName="uni2078" x="26" y="-512" flags="0x404"/>
    </TTGlyph>
    <TTGlyph name="eight.numr" xMin="82" yMin="314" xMax="332" yMax="646">
      <component glyphName="uni2078" x="0" y="0" flags="0x400"/>
    </TTGlyph>
    <TTGlyph name="eight.osf" xMin="16" yMin="-11" xMax="433" yMax="586">
      <component glyphName="eight" x="0" y="0" flags="0x400"/>
    </TTGlyph>
    <TTGlyph name="eight_fraction_nine" xMin="41" yMin="-199" xMax="406" yMax="646">
      <component glyphName="eight.numr" x="0" y="0" flags="0x400"/>
      <component glyphName="fraction.alt" x="0" y="0" flags="0x400"/>
      <component glyphName="nine.dnom" x="0" y="0" flags="0x400"/>
    </TTGlyph>
    <TTGlyph name="ellipsis" xMin="-20" yMin="-10" xMax="398" yMax="108">
      <component glyphName="period" x="-117" y="0" flags="0x400"/>
      <component glyphName="period" x="32" y="0" flags="0x400"/>
      <component glyphName="period" x="181" y="0" flags="0x400"/>
    </TTGlyph>
    <TTGlyph name="emacron" xMin="44" yMin="-13" xMax="423" yMax="632">
      <component glyphName="e" x="0" y="0" flags="0x400"/>
      <component glyphName="uni0304" x="0" y="0" flags="0x400"/>
    </TTGlyph>
    <TTGlyph name="emdash" xMin="-3" yMin="260" xMax="476" yMax="316">
      <contour>
        <pt x="-3" y="260" on="1" overlap="1"/>
        <pt x="8" y="316" on="1"/>
        <pt x="476" y="316" on="1"/>
        <pt x="465" y="260" on="1"/>
      </contour>
    </TTGlyph>
    <TTGlyph name="emoji.eyes" xMin="94" yMin="378" xMax="444" yMax="518">
      <contour>
        <pt x="114" y="378" on="0" overlap="1"/>
        <pt x="94" y="409" on="0"/>
        <pt x="94" y="433" on="1"/>
        <pt x="94" y="465" on="0"/>
        <pt x="128" y="518" on="0"/>
        <pt x="150" y="518" on="1"/>
        <pt x="167" y="518" on="0"/>
        <pt x="188" y="487" on="0"/>
        <pt x="188" y="463" on="1"/>
        <pt x="188" y="430" on="0"/>
        <pt x="153" y="378" on="0"/>
        <pt x="132" y="378" on="1"/>
      </contour>
      <contour>
        <pt x="350" y="465" on="0"/>
        <pt x="384" y="518" on="0"/>
        <pt x="406" y="518" on="1"/>
        <pt x="423" y="518" on="0"/>
        <pt x="444" y="487" on="0"/>
        <pt x="444" y="463" on="1"/>
        <pt x="444" y="430" on="0"/>
        <pt x="409" y="378" on="0"/>
        <pt x="388" y="378" on="1"/>
        <pt x="370" y="378" on="0"/>
        <pt x="350" y="409" on="0"/>
        <pt x="350" y="433" on="1"/>
      </contour>
    </TTGlyph>
    <TTGlyph name="emoji.eyes.angry" xMin="48" yMin="378" xMax="507" yMax="518">
      <contour>
        <pt x="59" y="518" on="1" overlap="1"/>
        <pt x="243" y="478" on="1"/>
        <pt x="230" y="414" on="1"/>
        <pt x="181" y="427" on="1"/>
        <pt x="174" y="405" on="0"/>
        <pt x="146" y="378" on="0"/>
        <pt x="132" y="378" on="1"/>
        <pt x="114" y="378" on="0"/>
        <pt x="93" y="409" on="0"/>
        <pt x="93" y="432" on="1"/>
        <pt x="93" y="438" on="0"/>
        <pt x="95" y="450" on="1"/>
        <pt x="48" y="462" on="1"/>
      </contour>
      <contour>
        <pt x="307" y="478" on="1"/>
        <pt x="507" y="518" on="1"/>
        <pt x="496" y="462" on="1"/>
        <pt x="428" y="446" on="1"/>
        <pt x="442" y="445" on="1"/>
        <pt x="437" y="417" on="0"/>
        <pt x="405" y="378" on="0"/>
        <pt x="388" y="378" on="1"/>
        <pt x="371" y="378" on="0"/>
        <pt x="351" y="406" on="0"/>
        <pt x="349" y="427" on="1"/>
        <pt x="294" y="414" on="1"/>
      </contour>
    </TTGlyph>
    <TTGlyph name="emoji.eyes.smiling" xMin="31" yMin="384" xMax="479" yMax="512">
      <contour>
        <pt x="121" y="512" on="1" overlap="1"/>
        <pt x="185" y="512" on="1"/>
        <pt x="223" y="384" on="1"/>
        <pt x="166" y="384" on="1"/>
        <pt x="147" y="448" on="1"/>
        <pt x="137" y="448" on="1"/>
        <pt x="92" y="384" on="1"/>
        <pt x="31" y="384" on="1"/>
      </contour>
      <contour>
        <pt x="377" y="512" on="1"/>
        <pt x="441" y="512" on="1"/>
        <pt x="479" y="384" on="1"/>
        <pt x="422" y="384" on="1"/>
        <pt x="403" y="448" on="1"/>
        <pt x="393" y="448" on="1"/>
        <pt x="348" y="384" on="1"/>
        <pt x="287" y="384" on="1"/>
      </contour>
    </TTGlyph>
    <TTGlyph name="emoji.mouth" xMin="3" yMin="130" xMax="454" yMax="256">
      <contour>
        <pt x="54" y="130" on="0" overlap="1"/>
        <pt x="3" y="179" on="0"/>
        <pt x="3" y="220" on="1"/>
        <pt x="3" y="236" on="0"/>
        <pt x="6" y="252" on="1"/>
        <pt x="6" y="256" on="1"/>
        <pt x="70" y="256" on="1"/>
        <pt x="69" y="248" on="1"/>
        <pt x="66" y="235" on="0"/>
        <pt x="66" y="224" on="1"/>
        <pt x="66" y="207" on="0"/>
        <pt x="85" y="190" on="0"/>
        <pt x="107" y="190" on="1"/>
        <pt x="323" y="190" on="1"/>
        <pt x="377" y="190" on="0"/>
        <pt x="390" y="254" on="1"/>
        <pt x="390" y="256" on="1"/>
        <pt x="454" y="256" on="1"/>
        <pt x="452" y="246" on="1"/>
        <pt x="441" y="191" on="0"/>
        <pt x="371" y="130" on="0"/>
        <pt x="316" y="130" on="1"/>
        <pt x="100" y="130" on="1"/>
      </contour>
    </TTGlyph>
    <TTGlyph name="emoji.mouth.grinning" xMin="-10" yMin="66" xMax="454" yMax="254">
      <contour>
        <pt x="41" y="66" on="0" overlap="1"/>
        <pt x="-10" y="115" on="0"/>
        <pt x="-10" y="156" on="1"/>
        <pt x="-10" y="172" on="0"/>
        <pt x="-7" y="188" on="1"/>
        <pt x="6" y="254" on="1"/>
        <pt x="454" y="254" on="1"/>
        <pt x="440" y="182" on="1"/>
        <pt x="429" y="127" on="0"/>
        <pt x="358" y="66" on="0"/>
        <pt x="303" y="66" on="1"/>
        <pt x="87" y="66" on="1"/>
      </contour>
      <contour>
        <pt x="53" y="171" on="0"/>
        <pt x="53" y="160" on="1"/>
        <pt x="53" y="143" on="0"/>
        <pt x="72" y="126" on="0"/>
        <pt x="94" y="126" on="1"/>
        <pt x="108" y="126" on="1"/>
        <pt x="122" y="194" on="1"/>
        <pt x="58" y="194" on="1"/>
        <pt x="56" y="184" on="1"/>
      </contour>
      <contour>
        <pt x="236" y="126" on="1"/>
        <pt x="250" y="194" on="1"/>
        <pt x="186" y="194" on="1"/>
        <pt x="172" y="126" on="1"/>
      </contour>
      <contour>
        <pt x="310" y="126" on="1"/>
        <pt x="364" y="126" on="0"/>
        <pt x="377" y="190" on="1"/>
        <pt x="378" y="194" on="1"/>
        <pt x="314" y="194" on="1"/>
        <pt x="300" y="126" on="1"/>
      </contour>
    </TTGlyph>
    <TTGlyph name="endash" xMin="96" yMin="260" xMax="377" yMax="316">
      <component glyphName="hyphen" x="0" y="0" flags="0x400"/>
    </TTGlyph>
    <TTGlyph name="eng" xMin="18" yMin="-197" xMax="406" yMax="452">
      <contour>
        <pt x="93" y="378" on="1" overlap="1"/>
        <pt x="106" y="448" on="1"/>
        <pt x="162" y="448" on="1"/>
        <pt x="156" y="394" on="1"/>
        <pt x="191" y="420" on="0"/>
        <pt x="267" y="452" on="0"/>
        <pt x="302" y="452" on="1"/>
        <pt x="349" y="452" on="0"/>
        <pt x="406" y="404" on="0"/>
        <pt x="406" y="349" on="1"/>
        <pt x="406" y="323" on="0"/>
        <pt x="401" y="299" on="1"/>
        <pt x="340" y="-8" on="1"/>
        <pt x="326" y="-80" on="0"/>
        <pt x="258" y="-168" on="0"/>
        <pt x="187" y="-197" on="1"/>
        <pt x="168" y="-144" on="1"/>
        <pt x="217" y="-124" on="0"/>
        <pt x="266" y="-65" on="0"/>
        <pt x="277" y="-10" on="1"/>
        <pt x="339" y="298" on="1"/>
        <pt x="344" y="321" on="0"/>
        <pt x="344" y="343" on="1"/>
        <pt x="344" y="371" on="0"/>
        <pt x="318" y="396" on="0"/>
        <pt x="288" y="396" on="1"/>
        <pt x="225" y="396" on="0"/>
        <pt x="145" y="330" on="1"/>
        <pt x="80" y="0" on="1"/>
        <pt x="18" y="0" on="1"/>
      </contour>
    </TTGlyph>
    <TTGlyph name="eogonek" xMin="44" yMin="-197" xMax="405" yMax="461">
      <component glyphName="e" x="0" y="0" flags="0x400"/>
      <component glyphName="uni0328" x="-46" y="0" flags="0x400"/>
    </TTGlyph>
    <TTGlyph name="epsilon" xMin="32" yMin="0" xMax="429" yMax="448">
      <contour>
        <pt x="339" y="0" on="1" overlap="1"/>
        <pt x="83" y="0" on="1"/>
        <pt x="96" y="64" on="1"/>
        <pt x="352" y="64" on="1"/>
      </contour>
      <contour>
        <pt x="58" y="192" on="1"/>
        <pt x="122" y="192" on="1"/>
        <pt x="96" y="64" on="1"/>
        <pt x="32" y="64" on="1"/>
      </contour>
      <contour>
        <pt x="96" y="384" on="1"/>
        <pt x="160" y="384" on="1"/>
        <pt x="134" y="256" on="1"/>
        <pt x="70" y="256" on="1"/>
      </contour>
      <contour>
        <pt x="134" y="256" on="1"/>
        <pt x="326" y="256" on="1"/>
        <pt x="314" y="192" on="1"/>
        <pt x="122" y="192" on="1"/>
      </contour>
      <contour>
        <pt x="173" y="448" on="1"/>
        <pt x="429" y="448" on="1"/>
        <pt x="416" y="384" on="1"/>
        <pt x="160" y="384" on="1"/>
      </contour>
    </TTGlyph>
    <TTGlyph name="epsilontonos" xMin="32" yMin="0" xMax="429" yMax="704">
      <component glyphName="epsilon" x="0" y="0" flags="0x400"/>
      <component glyphName="tonos" x="0" y="0" flags="0x400"/>
    </TTGlyph>
    <TTGlyph name="equal" xMin="24" yMin="183" xMax="450" yMax="393">
      <contour>
        <pt x="24" y="183" on="1" overlap="1"/>
        <pt x="35" y="237" on="1"/>
        <pt x="419" y="237" on="1"/>
        <pt x="408" y="183" on="1"/>
      </contour>
      <contour>
        <pt x="66" y="393" on="1"/>
        <pt x="450" y="393" on="1"/>
        <pt x="439" y="339" on="1"/>
        <pt x="55" y="339" on="1"/>
      </contour>
    </TTGlyph>
    <TTGlyph name="equivalence" xMin="13" yMin="126" xMax="461" yMax="450">
      <contour>
        <pt x="13" y="126" on="1" overlap="1"/>
        <pt x="23" y="180" on="1"/>
        <pt x="407" y="180" on="1"/>
        <pt x="397" y="126" on="1"/>
      </contour>
      <contour>
        <pt x="50" y="315" on="1"/>
        <pt x="434" y="315" on="1"/>
        <pt x="423" y="261" on="1"/>
        <pt x="39" y="261" on="1"/>
      </contour>
      <contour>
        <pt x="77" y="450" on="1"/>
        <pt x="461" y="450" on="1"/>
        <pt x="450" y="396" on="1"/>
        <pt x="66" y="396" on="1"/>
      </contour>
    </TTGlyph>
    <TTGlyph name="estimated" xMin="43" yMin="-13" xMax="407" yMax="461">
      <contour>
        <pt x="254" y="-13" on="0" overlap="1"/>
        <pt x="195" y="-13" on="1"/>
        <pt x="115" y="-13" on="0"/>
        <pt x="43" y="77" on="0"/>
        <pt x="43" y="150" on="1"/>
        <pt x="43" y="186" on="0"/>
        <pt x="51" y="229" on="1"/>
        <pt x="71" y="330" on="0"/>
        <pt x="184" y="461" on="0"/>
        <pt x="272" y="461" on="1"/>
        <pt x="342" y="461" on="0"/>
        <pt x="407" y="380" on="0"/>
        <pt x="407" y="309" on="1"/>
        <pt x="407" y="273" on="0"/>
        <pt x="397" y="221" on="1"/>
        <pt x="392" y="191" on="1"/>
        <pt x="390" y="192" on="1"/>
        <pt x="390" y="191" on="1"/>
        <pt x="158" y="191" on="1"/>
        <pt x="148" y="134" on="0"/>
        <pt x="148" y="109" on="1"/>
        <pt x="148" y="73" on="0"/>
        <pt x="176" y="41" on="0"/>
        <pt x="208" y="41" on="1"/>
        <pt x="255" y="41" on="0"/>
        <pt x="312" y="58" on="1"/>
        <pt x="321" y="7" on="1"/>
      </contour>
      <contour>
        <pt x="289" y="247" on="1"/>
        <pt x="302" y="313" on="0"/>
        <pt x="302" y="353" on="1"/>
        <pt x="302" y="381" on="0"/>
        <pt x="285" y="407" on="0"/>
        <pt x="266" y="407" on="1"/>
        <pt x="232" y="407" on="0"/>
        <pt x="188" y="333" on="0"/>
        <pt x="169" y="247" on="1"/>
      </contour>
    </TTGlyph>
    <TTGlyph name="eta" xMin="15" yMin="-192" xMax="408" yMax="452">
      <contour>
        <pt x="103" y="448" on="1" overlap="1"/>
        <pt x="168" y="448" on="1"/>
        <pt x="165" y="403" on="1"/>
        <pt x="198" y="425" on="0"/>
        <pt x="269" y="452" on="0"/>
        <pt x="302" y="452" on="1"/>
        <pt x="350" y="452" on="0"/>
        <pt x="408" y="403" on="0"/>
        <pt x="408" y="346" on="1"/>
        <pt x="408" y="324" on="0"/>
        <pt x="402" y="294" on="1"/>
        <pt x="305" y="-192" on="1"/>
        <pt x="233" y="-192" on="1"/>
        <pt x="330" y="292" on="1"/>
        <pt x="336" y="321" on="0"/>
        <pt x="336" y="339" on="1"/>
        <pt x="336" y="365" on="0"/>
        <pt x="312" y="388" on="0"/>
        <pt x="284" y="388" on="1"/>
        <pt x="225" y="388" on="0"/>
        <pt x="152" y="326" on="1"/>
        <pt x="87" y="0" on="1"/>
        <pt x="15" y="0" on="1"/>
        <pt x="92" y="383" on="1"/>
      </contour>
    </TTGlyph>
    <TTGlyph name="etatonos" xMin="15" yMin="-192" xMax="408" yMax="704">
      <component glyphName="eta" x="0" y="0" flags="0x400"/>
      <component glyphName="tonos" x="0" y="0" flags="0x400"/>
    </TTGlyph>
    <TTGlyph name="eth" xMin="40" yMin="-8" xMax="412" yMax="646">
      <contour>
        <pt x="288" y="618" on="0" overlap="1"/>
        <pt x="316" y="586" on="1"/>
        <pt x="387" y="630" on="1"/>
        <pt x="410" y="593" on="1"/>
        <pt x="344" y="552" on="1"/>
        <pt x="412" y="459" on="0"/>
        <pt x="412" y="342" on="1"/>
        <pt x="412" y="302" on="0"/>
        <pt x="402" y="247" on="1"/>
        <pt x="377" y="121" on="0"/>
        <pt x="263" y="-8" on="0"/>
        <pt x="179" y="-8" on="1"/>
        <pt x="113" y="-8" on="0"/>
        <pt x="40" y="73" on="0"/>
        <pt x="40" y="143" on="1"/>
        <pt x="40" y="176" on="0"/>
        <pt x="47" y="208" on="1"/>
        <pt x="66" y="305" on="0"/>
        <pt x="178" y="414" on="0"/>
        <pt x="249" y="414" on="1"/>
        <pt x="304" y="414" on="0"/>
        <pt x="350" y="382" on="1"/>
        <pt x="344" y="460" on="0"/>
        <pt x="296" y="523" on="1"/>
        <pt x="208" y="469" on="1"/>
        <pt x="185" y="506" on="1"/>
        <pt x="268" y="557" on="1"/>
        <pt x="242" y="585" on="0"/>
        <pt x="214" y="606" on="1"/>
        <pt x="250" y="646" on="1"/>
      </contour>
      <contour>
        <pt x="102" y="161" on="0"/>
        <pt x="102" y="139" on="1"/>
        <pt x="102" y="48" on="0"/>
        <pt x="184" y="48" on="1"/>
        <pt x="246" y="48" on="0"/>
        <pt x="320" y="152" on="0"/>
        <pt x="340" y="251" on="1"/>
        <pt x="348" y="295" on="0"/>
        <pt x="351" y="326" on="1"/>
        <pt x="331" y="341" on="0"/>
        <pt x="278" y="358" on="0"/>
        <pt x="251" y="358" on="1"/>
        <pt x="191" y="358" on="0"/>
        <pt x="123" y="269" on="0"/>
        <pt x="109" y="198" on="1"/>
      </contour>
    </TTGlyph>
    <TTGlyph name="exclam" xMin="129" yMin="-10" xMax="348" yMax="640">
      <contour>
        <pt x="266" y="640" on="1" overlap="1"/>
        <pt x="348" y="640" on="1"/>
        <pt x="245" y="192" on="1"/>
        <pt x="191" y="192" on="1"/>
      </contour>
      <contour>
        <pt x="129" y="71" on="0"/>
        <pt x="169" y="108" on="0"/>
        <pt x="197" y="108" on="1"/>
        <pt x="220" y="108" on="0"/>
        <pt x="249" y="81" on="0"/>
        <pt x="249" y="58" on="1"/>
        <pt x="249" y="26" on="0"/>
        <pt x="209" y="-10" on="0"/>
        <pt x="182" y="-10" on="1"/>
        <pt x="159" y="-10" on="0"/>
        <pt x="129" y="16" on="0"/>
        <pt x="129" y="39" on="1"/>
      </contour>
    </TTGlyph>
    <TTGlyph name="exclamdbl" xMin="35" yMin="-10" xMax="442" yMax="640">
      <component glyphName="exclam" x="-94" y="0" flags="0x400"/>
      <component glyphName="exclam" x="94" y="0" flags="0x400"/>
    </TTGlyph>
    <TTGlyph name="exclamdown" xMin="100" yMin="-192" xMax="319" yMax="458">
      <contour>
        <pt x="182" y="-192" on="1" overlap="1"/>
        <pt x="100" y="-192" on="1"/>
        <pt x="203" y="256" on="1"/>
        <pt x="257" y="256" on="1"/>
      </contour>
      <contour>
        <pt x="199" y="422" on="0"/>
        <pt x="239" y="458" on="0"/>
        <pt x="266" y="458" on="1"/>
        <pt x="289" y="458" on="0"/>
        <pt x="319" y="432" on="0"/>
        <pt x="319" y="409" on="1"/>
        <pt x="319" y="377" on="0"/>
        <pt x="279" y="340" on="0"/>
        <pt x="251" y="340" on="1"/>
        <pt x="228" y="340" on="0"/>
        <pt x="199" y="367" on="0"/>
        <pt x="199" y="390" on="1"/>
      </contour>
    </TTGlyph>
    <TTGlyph name="f" xMin="21" yMin="-200" xMax="455" yMax="648">
      <contour>
        <pt x="53" y="-135" on="0" overlap="1"/>
        <pt x="91" y="-67" on="0"/>
        <pt x="101" y="-9" on="1"/>
        <pt x="170" y="392" on="1"/>
        <pt x="93" y="395" on="1"/>
        <pt x="104" y="448" on="1"/>
        <pt x="180" y="448" on="1"/>
        <pt x="189" y="501" on="1"/>
        <pt x="203" y="577" on="0"/>
        <pt x="288" y="648" on="0"/>
        <pt x="348" y="648" on="1"/>
        <pt x="397" y="648" on="0"/>
        <pt x="455" y="636" on="1"/>
        <pt x="438" y="583" on="1"/>
        <pt x="382" y="592" on="0"/>
        <pt x="349" y="592" on="1"/>
        <pt x="307" y="592" on="0"/>
        <pt x="258" y="541" on="0"/>
        <pt x="251" y="501" on="1"/>
        <pt x="242" y="448" on="1"/>
        <pt x="390" y="448" on="1"/>
        <pt x="379" y="393" on="1"/>
        <pt x="232" y="393" on="1"/>
        <pt x="161" y="-14" on="1"/>
        <pt x="150" y="-82" on="0"/>
        <pt x="104" y="-161" on="0"/>
        <pt x="63" y="-200" on="1"/>
        <pt x="21" y="-169" on="1"/>
      </contour>
    </TTGlyph>
    <TTGlyph name="female" xMin="64" yMin="-114" xMax="409" yMax="456">
      <contour>
        <pt x="190" y="48" on="1" overlap="1"/>
        <pt x="190" y="121" on="1"/>
        <pt x="133" y="127" on="0"/>
        <pt x="64" y="202" on="0"/>
        <pt x="64" y="258" on="1"/>
        <pt x="64" y="277" on="0"/>
        <pt x="68" y="294" on="1"/>
        <pt x="77" y="340" on="0"/>
        <pt x="136" y="414" on="0"/>
        <pt x="219" y="456" on="0"/>
        <pt x="265" y="456" on="1"/>
        <pt x="330" y="456" on="0"/>
        <pt x="409" y="378" on="0"/>
        <pt x="409" y="317" on="1"/>
        <pt x="409" y="300" on="0"/>
        <pt x="406" y="282" on="1"/>
        <pt x="394" y="225" on="0"/>
        <pt x="313" y="141" on="0"/>
        <pt x="258" y="127" on="1"/>
        <pt x="258" y="48" on="1"/>
        <pt x="354" y="48" on="1"/>
        <pt x="354" y="-16" on="1"/>
        <pt x="258" y="-16" on="1"/>
        <pt x="258" y="-114" on="1"/>
        <pt x="190" y="-114" on="1"/>
        <pt x="190" y="-16" on="1"/>
        <pt x="94" y="-16" on="1"/>
        <pt x="94" y="48" on="1"/>
      </contour>
      <contour>
        <pt x="133" y="226" on="0"/>
        <pt x="176" y="184" on="0"/>
        <pt x="211" y="184" on="1"/>
        <pt x="244" y="184" on="0"/>
        <pt x="303" y="220" on="0"/>
        <pt x="340" y="280" on="0"/>
        <pt x="340" y="315" on="1"/>
        <pt x="340" y="349" on="0"/>
        <pt x="298" y="392" on="0"/>
        <pt x="263" y="392" on="1"/>
        <pt x="230" y="392" on="0"/>
        <pt x="170" y="356" on="0"/>
        <pt x="133" y="295" on="0"/>
        <pt x="133" y="259" on="1"/>
      </contour>
    </TTGlyph>
    <TTGlyph name="filledbox" xMin="43" yMin="128" xMax="431" yMax="448">
      <contour>
        <pt x="367" y="128" on="1" overlap="1"/>
        <pt x="43" y="128" on="1"/>
        <pt x="107" y="448" on="1"/>
        <pt x="431" y="448" on="1"/>
      </contour>
    </TTGlyph>
    <TTGlyph name="filledrect" xMin="9" yMin="192" xMax="464" yMax="384">
      <contour>
        <pt x="425" y="192" on="1" overlap="1"/>
        <pt x="9" y="192" on="1"/>
        <pt x="48" y="384" on="1"/>
        <pt x="464" y="384" on="1"/>
      </contour>
    </TTGlyph>
    <TTGlyph name="five" xMin="18" yMin="0" xMax="442" yMax="576">
      <contour>
        <pt x="112" y="56" on="0" overlap="1"/>
        <pt x="171" y="56" on="1"/>
        <pt x="235" y="56" on="0"/>
        <pt x="305" y="110" on="0"/>
        <pt x="316" y="168" on="1"/>
        <pt x="320" y="187" on="0"/>
        <pt x="320" y="204" on="1"/>
        <pt x="320" y="237" on="0"/>
        <pt x="278" y="265" on="0"/>
        <pt x="229" y="265" on="1"/>
        <pt x="176" y="265" on="0"/>
        <pt x="98" y="251" on="1"/>
        <pt x="81" y="271" on="1"/>
        <pt x="154" y="576" on="1"/>
        <pt x="442" y="576" on="1"/>
        <pt x="431" y="520" on="1"/>
        <pt x="203" y="520" on="1"/>
        <pt x="153" y="311" on="1"/>
        <pt x="201" y="321" on="0"/>
        <pt x="245" y="321" on="1"/>
        <pt x="308" y="321" on="0"/>
        <pt x="386" y="265" on="0"/>
        <pt x="386" y="204" on="1"/>
        <pt x="386" y="187" on="0"/>
        <pt x="381" y="160" on="1"/>
        <pt x="348" y="0" on="0"/>
        <pt x="171" y="0" on="1"/>
        <pt x="130" y="0" on="0"/>
        <pt x="59" y="11" on="0"/>
        <pt x="18" y="22" on="1"/>
        <pt x="36" y="74" on="1"/>
      </contour>
    </TTGlyph>
    <TTGlyph name="five.dnom" xMin="97" yMin="-198" xMax="360" yMax="128">
      <component glyphName="uni2075" x="26" y="-512" flags="0x404"/>
    </TTGlyph>
    <TTGlyph name="five.numr" xMin="71" yMin="314" xMax="334" yMax="640">
      <component glyphName="uni2075" x="0" y="0" flags="0x400"/>
    </TTGlyph>
    <TTGlyph name="five.osf" xMin="-8" yMin="-128" xMax="416" yMax="448">
      <contour>
        <pt x="86" y="-72" on="0" overlap="1"/>
        <pt x="145" y="-72" on="1"/>
        <pt x="209" y="-72" on="0"/>
        <pt x="279" y="-18" on="0"/>
        <pt x="290" y="40" on="1"/>
        <pt x="294" y="59" on="0"/>
        <pt x="294" y="76" on="1"/>
        <pt x="294" y="109" on="0"/>
        <pt x="252" y="137" on="0"/>
        <pt x="203" y="137" on="1"/>
        <pt x="150" y="137" on="0"/>
        <pt x="72" y="123" on="1"/>
        <pt x="55" y="143" on="1"/>
        <pt x="128" y="448" on="1"/>
        <pt x="416" y="448" on="1"/>
        <pt x="405" y="392" on="1"/>
        <pt x="177" y="392" on="1"/>
        <pt x="127" y="183" on="1"/>
        <pt x="175" y="193" on="0"/>
        <pt x="219" y="193" on="1"/>
        <pt x="282" y="193" on="0"/>
        <pt x="360" y="137" on="0"/>
        <pt x="360" y="76" on="1"/>
        <pt x="360" y="59" on="0"/>
        <pt x="355" y="32" on="1"/>
        <pt x="322" y="-128" on="0"/>
        <pt x="145" y="-128" on="1"/>
        <pt x="104" y="-128" on="0"/>
        <pt x="33" y="-117" on="0"/>
        <pt x="-8" y="-106" on="1"/>
        <pt x="10" y="-54" on="1"/>
      </contour>
    </TTGlyph>
    <TTGlyph name="five_fraction_nine" xMin="41" yMin="-199" xMax="406" yMax="640">
      <component glyphName="five.numr" x="0" y="0" flags="0x400"/>
      <component glyphName="fraction.alt" x="0" y="0" flags="0x400"/>
      <component glyphName="nine.dnom" x="0" y="0" flags="0x400"/>
    </TTGlyph>
    <TTGlyph name="five_fraction_seven" xMin="41" yMin="-200" xMax="406" yMax="640">
      <component glyphName="five.numr" x="0" y="0" flags="0x400"/>
      <component glyphName="fraction.alt" x="0" y="0" flags="0x400"/>
      <component glyphName="seven.dnom" x="0" y="0" flags="0x400"/>
    </TTGlyph>
    <TTGlyph name="fiveeighths" xMin="41" yMin="-198" xMax="406" yMax="640">
      <component glyphName="five.numr" x="0" y="0" flags="0x400"/>
      <component glyphName="fraction.alt" x="0" y="0" flags="0x400"/>
      <component glyphName="eight.dnom" x="0" y="0" flags="0x400"/>
    </TTGlyph>
    <TTGlyph name="florin" xMin="-10" yMin="-197" xMax="467" yMax="648">
      <contour>
        <pt x="38" y="-123" on="0" overlap="1"/>
        <pt x="88" y="-63" on="0"/>
        <pt x="99" y="-10" on="1"/>
        <pt x="179" y="392" on="1"/>
        <pt x="105" y="395" on="1"/>
        <pt x="116" y="448" on="1"/>
        <pt x="191" y="448" on="1"/>
        <pt x="202" y="507" on="1"/>
        <pt x="216" y="579" on="0"/>
        <pt x="300" y="648" on="0"/>
        <pt x="358" y="648" on="1"/>
        <pt x="409" y="648" on="0"/>
        <pt x="467" y="636" on="1"/>
        <pt x="450" y="583" on="1"/>
        <pt x="394" y="592" on="0"/>
        <pt x="361" y="592" on="1"/>
        <pt x="319" y="592" on="0"/>
        <pt x="272" y="544" on="0"/>
        <pt x="264" y="507" on="1"/>
        <pt x="253" y="448" on="1"/>
        <pt x="402" y="448" on="1"/>
        <pt x="390" y="393" on="1"/>
        <pt x="241" y="393" on="1"/>
        <pt x="162" y="-8" on="1"/>
        <pt x="147" y="-81" on="0"/>
        <pt x="80" y="-167" on="0"/>
        <pt x="9" y="-197" on="1"/>
        <pt x="-10" y="-144" on="1"/>
      </contour>
    </TTGlyph>
    <TTGlyph name="four" xMin="25" yMin="0" xMax="414" yMax="593">
      <contour>
        <pt x="254" y="132" on="1" overlap="1"/>
        <pt x="25" y="135" on="1"/>
        <pt x="75" y="338" on="0"/>
        <pt x="258" y="559" on="0"/>
        <pt x="406" y="593" on="1"/>
        <pt x="405" y="590" on="1"/>
        <pt x="407" y="592" on="1"/>
        <pt x="327" y="188" on="1"/>
        <pt x="414" y="188" on="1"/>
        <pt x="402" y="132" on="1"/>
        <pt x="316" y="132" on="1"/>
        <pt x="289" y="0" on="1"/>
        <pt x="227" y="0" on="1"/>
      </contour>
      <contour>
        <pt x="265" y="188" on="1"/>
        <pt x="306" y="392" on="1"/>
        <pt x="328" y="504" on="1"/>
        <pt x="250" y="470" on="0"/>
        <pt x="141" y="311" on="0"/>
        <pt x="102" y="185" on="1"/>
      </contour>
    </TTGlyph>
    <TTGlyph name="four.dnom" xMin="124" yMin="-192" xMax="357" yMax="141">
      <component glyphName="uni2074" x="26" y="-512" flags="0x404"/>
    </TTGlyph>
    <TTGlyph name="four.numr" xMin="98" yMin="320" xMax="331" yMax="653">
      <component glyphName="uni2074" x="0" y="0" flags="0x400"/>
    </TTGlyph>
    <TTGlyph name="four.osf" xMin="-1" yMin="-128" xMax="388" yMax="465">
      <contour>
        <pt x="228" y="4" on="1" overlap="1"/>
        <pt x="-1" y="7" on="1"/>
        <pt x="49" y="210" on="0"/>
        <pt x="232" y="431" on="0"/>
        <pt x="380" y="465" on="1"/>
        <pt x="379" y="462" on="1"/>
        <pt x="381" y="464" on="1"/>
        <pt x="301" y="60" on="1"/>
        <pt x="388" y="60" on="1"/>
        <pt x="376" y="4" on="1"/>
        <pt x="290" y="4" on="1"/>
        <pt x="263" y="-128" on="1"/>
        <pt x="201" y="-128" on="1"/>
      </contour>
      <contour>
        <pt x="239" y="60" on="1"/>
        <pt x="280" y="264" on="1"/>
        <pt x="302" y="376" on="1"/>
        <pt x="224" y="342" on="0"/>
        <pt x="115" y="183" on="0"/>
        <pt x="76" y="57" on="1"/>
      </contour>
    </TTGlyph>
    <TTGlyph name="four_fraction_nine" xMin="41" yMin="-199" xMax="406" yMax="653">
      <component glyphName="four.numr" x="0" y="0" flags="0x400"/>
      <component glyphName="fraction.alt" x="0" y="0" flags="0x400"/>
      <component glyphName="nine.dnom" x="0" y="0" flags="0x400"/>
    </TTGlyph>
    <TTGlyph name="four_fraction_seven" xMin="41" yMin="-200" xMax="406" yMax="653">
      <component glyphName="four.numr" x="0" y="0" flags="0x400"/>
      <component glyphName="fraction.alt" x="0" y="0" flags="0x400"/>
      <component glyphName="seven.dnom" x="0" y="0" flags="0x400"/>
    </TTGlyph>
</ttFont>
